STARTFONT 2.1
FONT -DEC-VT220-medium-r-DoubleWide-80col3x4y-40-400-75-75-m-600-iso10646-1
SIZE 40 75 75
FONTBOUNDINGBOX 60 40 0 -8
STARTPROPERTIES 22
FONTNAME_REGISTRY ""
FOUNDRY "DEC"
FAMILY_NAME "vt220"
WEIGHT_NAME "medium"
SLANT r
SETWIDTH_NAME "DoubleWide"
ADD_STYLE_NAME "80col3x4y"
PIXEL_SIZE 40
POINT_SIZE 400
RESOLUTION_X 75
RESOLUTION_Y 75
SPACING "m"
CHARSET_REGISTRY "ISO10646"
CHARSET_ENCODING "1"
CAP_HEIGHT 28
X_HEIGHT 20
WEIGHT 10
QUAD_WIDTH 60
DEFAULT_CHAR 9670
FONT_ASCENT 32
FONT_DESCENT 8
AVERAGE_WIDTH 600
ENDPROPERTIES
CHARS 288
STARTCHAR U+00FD
ENCODING 253
SWIDTH 1000 0
BBX 60 40 0 -8
DWIDTH 60 0
BITMAP
0000000000000000
0000000000000000
0000000000000000
0000000000000000
FF8000FF80000000
FF8000FF80000000
FF8000FF80000000
FF8000FF80000000
FFFE00FF80000000
FFFE00FF80000000
FFFE00FF80000000
FFFE00FF80000000
FF8FF8FF80000000
FF8FF8FF80000000
FF8FF8FF80000000
FF8FF8FF80000000
FF803FFF80000000
FF803FFF80000000
FF803FFF80000000
FF803FFF80000000
FF803FFF8FF80000
FF803FFF8FF80000
FF803FFF8FF80000
FF803FFF8FF80000
00003FE00FF80000
00003FE00FF80000
00003FE00FF80000
00003FE00FF80000
00003FE00FF80000
00003FE00FF80000
00003FE00FF80000
00003FE00FF80000
00003FE00FF80000
00003FE00FF80000
00003FE00FF80000
00003FE00FF80000
000000FFFE000000
000000FFFE000000
000000FFFE000000
000000FFFE000000
ENDCHAR
STARTCHAR U+25A1
ENCODING 9633
SWIDTH 1000 0
BBX 60 40 0 -8
DWIDTH 60 0
BITMAP
0000000000000000
0000000000000000
0000000000000000
0000000000000000
FFFFFFFFFFF80000
FFFFFFFFFFF80000
FFFFFFFFFFF80000
FFFFFFFFFFF80000
FF8000000FF80000
FF8000000FF80000
FF8000000FF80000
FF8000000FF80000
FF8000000FF80000
FF8000000FF80000
FF8000000FF80000
FF8000000FF80000
FF8000000FF80000
FF8000000FF80000
FF8000000FF80000
FF8000000FF80000
FF8000000FF80000
FF8000000FF80000
FF8000000FF80000
FF8000000FF80000
FF8000000FF80000
FF8000000FF80000
FF8000000FF80000
FF8000000FF80000
FFFFFFFFFFF80000
FFFFFFFFFFF80000
FFFFFFFFFFF80000
FFFFFFFFFFF80000
0000000000000000
0000000000000000
0000000000000000
0000000000000000
0000000000000000
0000000000000000
0000000000000000
0000000000000000
ENDCHAR
STARTCHAR U+00FE
ENCODING 254
SWIDTH 1000 0
BBX 60 40 0 -8
DWIDTH 60 0
BITMAP
0000000000000000
0000000000000000
0000000000000000
0000000000000000
FFFFFFE000000000
FFFFFFE000000000
FFFFFFE000000000
FFFFFFE000000000
FF80000000000000
FF80000000000000
FF80000000000000
FF80000000000000
FFFFF80000000000
FFFFF80000000000
FFFFF80000000000
FFFFF80000000000
FF80000000000000
FF80000000000000
FF80000000000000
FF80000000000000
FF803FFFFFF80000
FF803FFFFFF80000
FF803FFFFFF80000
FF803FFFFFF80000
00003FE000000000
00003FE000000000
00003FE000000000
00003FE000000000
00003FFFFE000000
00003FFFFE000000
00003FFFFE000000
00003FFFFE000000
00003FE000000000
00003FE000000000
00003FE000000000
00003FE000000000
00003FFFFFF80000
00003FFFFFF80000
00003FFFFFF80000
00003FFFFFF80000
ENDCHAR
STARTCHAR U+00FF
ENCODING 255
SWIDTH 1000 0
BBX 60 40 0 -8
DWIDTH 60 0
BITMAP
0000000000000000
0000000000000000
0000000000000000
0000000000000000
03FE0003FE000000
03FE0003FE000000
03FE0003FE000000
03FE0003FE000000
0000000000000000
0000000000000000
0000000000000000
0000000000000000
FF800003FE000000
FF800003FE000000
FF800003FE000000
FF800003FE000000
FF800003FE000000
FF800003FE000000
FF800003FE000000
FF800003FE000000
FF8000FFFE000000
FF8000FFFE000000
FF8000FFFE000000
FF8000FFFE000000
03FFFFE3FE000000
03FFFFE3FE000000
03FFFFE3FE000000
03FFFFE3FE000000
00000003FE000000
00000003FE000000
00000003FE000000
00000003FE000000
FF800003FE000000
FF800003FE000000
FF800003FE000000
FF800003FE000000
03FFFFFF80000000
03FFFFFF80000000
03FFFFFF80000000
03FFFFFF80000000
ENDCHAR
STARTCHAR U+00FC
ENCODING 252
SWIDTH 1000 0
BBX 60 40 0 -8
DWIDTH 60 0
BITMAP
0000000000000000
0000000000000000
0000000000000000
0000000000000000
03FE0003FE000000
03FE0003FE000000
03FE0003FE000000
03FE0003FE000000
0000000000000000
0000000000000000
0000000000000000
0000000000000000
FF800003FE000000
FF800003FE000000
FF800003FE000000
FF800003FE000000
FF800003FE000000
FF800003FE000000
FF800003FE000000
FF800003FE000000
FF800003FE000000
FF800003FE000000
FF800003FE000000
FF800003FE000000
FF800003FE000000
FF800003FE000000
FF800003FE000000
FF800003FE000000
03FFFFFF8FF80000
03FFFFFF8FF80000
03FFFFFF8FF80000
03FFFFFF8FF80000
0000000000000000
0000000000000000
0000000000000000
0000000000000000
0000000000000000
0000000000000000
0000000000000000
0000000000000000
ENDCHAR
STARTCHAR U+00FB
ENCODING 251
SWIDTH 1000 0
BBX 60 40 0 -8
DWIDTH 60 0
BITMAP
000FFFFF80000000
000FFFFF80000000
000FFFFF80000000
000FFFFF80000000
03FE0003FE000000
03FE0003FE000000
03FE0003FE000000
03FE0003FE000000
0000000000000000
0000000000000000
0000000000000000
0000000000000000
FF800003FE000000
FF800003FE000000
FF800003FE000000
FF800003FE000000
FF800003FE000000
FF800003FE000000
FF800003FE000000
FF800003FE000000
FF800003FE000000
FF800003FE000000
FF800003FE000000
FF800003FE000000
FF800003FE000000
FF800003FE000000
FF800003FE000000
FF800003FE000000
03FFFFFF8FF80000
03FFFFFF8FF80000
03FFFFFF8FF80000
03FFFFFF8FF80000
0000000000000000
0000000000000000
0000000000000000
0000000000000000
0000000000000000
0000000000000000
0000000000000000
0000000000000000
ENDCHAR
STARTCHAR U+00FA
ENCODING 250
SWIDTH 1000 0
BBX 60 40 0 -8
DWIDTH 60 0
BITMAP
0000000000000000
0000000000000000
0000000000000000
0000000000000000
00003FFF80000000
00003FFF80000000
00003FFF80000000
00003FFF80000000
03FFF80000000000
03FFF80000000000
03FFF80000000000
03FFF80000000000
FF800003FE000000
FF800003FE000000
FF800003FE000000
FF800003FE000000
FF800003FE000000
FF800003FE000000
FF800003FE000000
FF800003FE000000
FF800003FE000000
FF800003FE000000
FF800003FE000000
FF800003FE000000
FF800003FE000000
FF800003FE000000
FF800003FE000000
FF800003FE000000
03FFFFFF8FF80000
03FFFFFF8FF80000
03FFFFFF8FF80000
03FFFFFF8FF80000
0000000000000000
0000000000000000
0000000000000000
0000000000000000
0000000000000000
0000000000000000
0000000000000000
0000000000000000
ENDCHAR
STARTCHAR U+00F9
ENCODING 249
SWIDTH 1000 0
BBX 60 40 0 -8
DWIDTH 60 0
BITMAP
0000000000000000
0000000000000000
0000000000000000
0000000000000000
03FFF80000000000
03FFF80000000000
03FFF80000000000
03FFF80000000000
00003FFF80000000
00003FFF80000000
00003FFF80000000
00003FFF80000000
FF800003FE000000
FF800003FE000000
FF800003FE000000
FF800003FE000000
FF800003FE000000
FF800003FE000000
FF800003FE000000
FF800003FE000000
FF800003FE000000
FF800003FE000000
FF800003FE000000
FF800003FE000000
FF800003FE000000
FF800003FE000000
FF800003FE000000
FF800003FE000000
03FFFFFF8FF80000
03FFFFFF8FF80000
03FFFFFF8FF80000
03FFFFFF8FF80000
0000000000000000
0000000000000000
0000000000000000
0000000000000000
0000000000000000
0000000000000000
0000000000000000
0000000000000000
ENDCHAR
STARTCHAR U+00F8
ENCODING 248
SWIDTH 1000 0
BBX 60 40 0 -8
DWIDTH 60 0
BITMAP
0000000000000000
0000000000000000
0000000000000000
0000000000000000
0000000000000000
0000000000000000
0000000000000000
0000000000000000
000000000FF80000
000000000FF80000
000000000FF80000
000000000FF80000
03FFFFFFFE000000
03FFFFFFFE000000
03FFFFFFFE000000
03FFFFFFFE000000
FF8000FF8FF80000
FF8000FF8FF80000
FF8000FF8FF80000
FF8000FF8FF80000
FF803FE00FF80000
FF803FE00FF80000
FF803FE00FF80000
FF803FE00FF80000
FF8FF8000FF80000
FF8FF8000FF80000
FF8FF8000FF80000
FF8FF8000FF80000
03FFFFFFFE000000
03FFFFFFFE000000
03FFFFFFFE000000
03FFFFFFFE000000
FF80000000000000
FF80000000000000
FF80000000000000
FF80000000000000
0000000000000000
0000000000000000
0000000000000000
0000000000000000
ENDCHAR
STARTCHAR U+0152
ENCODING 338
SWIDTH 1000 0
BBX 60 40 0 -8
DWIDTH 60 0
BITMAP
0000000000000000
0000000000000000
0000000000000000
0000000000000000
0000000000000000
0000000000000000
0000000000000000
0000000000000000
0000000000000000
0000000000000000
0000000000000000
0000000000000000
03FFF8FFFE000000
03FFF8FFFE000000
03FFF8FFFE000000
03FFF8FFFE000000
FF803FE00FF80000
FF803FE00FF80000
FF803FE00FF80000
FF803FE00FF80000
FF803FFFFFF80000
FF803FFFFFF80000
FF803FFFFFF80000
FF803FFFFFF80000
FF803FE000000000
FF803FE000000000
FF803FE000000000
FF803FE000000000
03FFF8FFFFF80000
03FFF8FFFFF80000
03FFF8FFFFF80000
03FFF8FFFFF80000
0000000000000000
0000000000000000
0000000000000000
0000000000000000
0000000000000000
0000000000000000
0000000000000000
0000000000000000
ENDCHAR
STARTCHAR U+00F6
ENCODING 246
SWIDTH 1000 0
BBX 60 40 0 -8
DWIDTH 60 0
BITMAP
0000000000000000
0000000000000000
0000000000000000
0000000000000000
03FE0003FE000000
03FE0003FE000000
03FE0003FE000000
03FE0003FE000000
0000000000000000
0000000000000000
0000000000000000
0000000000000000
03FFFFFFFE000000
03FFFFFFFE000000
03FFFFFFFE000000
03FFFFFFFE000000
FF8000000FF80000
FF8000000FF80000
FF8000000FF80000
FF8000000FF80000
FF8000000FF80000
FF8000000FF80000
FF8000000FF80000
FF8000000FF80000
FF8000000FF80000
FF8000000FF80000
FF8000000FF80000
FF8000000FF80000
03FFFFFFFE000000
03FFFFFFFE000000
03FFFFFFFE000000
03FFFFFFFE000000
0000000000000000
0000000000000000
0000000000000000
0000000000000000
0000000000000000
0000000000000000
0000000000000000
0000000000000000
ENDCHAR
STARTCHAR U+00F5
ENCODING 245
SWIDTH 1000 0
BBX 60 40 0 -8
DWIDTH 60 0
BITMAP
03FFF803FE000000
03FFF803FE000000
03FFF803FE000000
03FFF803FE000000
FF803FFF80000000
FF803FFF80000000
FF803FFF80000000
FF803FFF80000000
0000000000000000
0000000000000000
0000000000000000
0000000000000000
03FFFFFFFE000000
03FFFFFFFE000000
03FFFFFFFE000000
03FFFFFFFE000000
FF8000000FF80000
FF8000000FF80000
FF8000000FF80000
FF8000000FF80000
FF8000000FF80000
FF8000000FF80000
FF8000000FF80000
FF8000000FF80000
FF8000000FF80000
FF8000000FF80000
FF8000000FF80000
FF8000000FF80000
03FFFFFFFE000000
03FFFFFFFE000000
03FFFFFFFE000000
03FFFFFFFE000000
0000000000000000
0000000000000000
0000000000000000
0000000000000000
0000000000000000
0000000000000000
0000000000000000
0000000000000000
ENDCHAR
STARTCHAR U+00F4
ENCODING 244
SWIDTH 1000 0
BBX 60 40 0 -8
DWIDTH 60 0
BITMAP
000FFFFF80000000
000FFFFF80000000
000FFFFF80000000
000FFFFF80000000
03FE0003FE000000
03FE0003FE000000
03FE0003FE000000
03FE0003FE000000
0000000000000000
0000000000000000
0000000000000000
0000000000000000
03FFFFFFFE000000
03FFFFFFFE000000
03FFFFFFFE000000
03FFFFFFFE000000
FF8000000FF80000
FF8000000FF80000
FF8000000FF80000
FF8000000FF80000
FF8000000FF80000
FF8000000FF80000
FF8000000FF80000
FF8000000FF80000
FF8000000FF80000
FF8000000FF80000
FF8000000FF80000
FF8000000FF80000
03FFFFFFFE000000
03FFFFFFFE000000
03FFFFFFFE000000
03FFFFFFFE000000
0000000000000000
0000000000000000
0000000000000000
0000000000000000
0000000000000000
0000000000000000
0000000000000000
0000000000000000
ENDCHAR
STARTCHAR U+00F3
ENCODING 243
SWIDTH 1000 0
BBX 60 40 0 -8
DWIDTH 60 0
BITMAP
0000000000000000
0000000000000000
0000000000000000
0000000000000000
00003FFF80000000
00003FFF80000000
00003FFF80000000
00003FFF80000000
03FFF80000000000
03FFF80000000000
03FFF80000000000
03FFF80000000000
03FFFFFFFE000000
03FFFFFFFE000000
03FFFFFFFE000000
03FFFFFFFE000000
FF8000000FF80000
FF8000000FF80000
FF8000000FF80000
FF8000000FF80000
FF8000000FF80000
FF8000000FF80000
FF8000000FF80000
FF8000000FF80000
FF8000000FF80000
FF8000000FF80000
FF8000000FF80000
FF8000000FF80000
03FFFFFFFE000000
03FFFFFFFE000000
03FFFFFFFE000000
03FFFFFFFE000000
0000000000000000
0000000000000000
0000000000000000
0000000000000000
0000000000000000
0000000000000000
0000000000000000
0000000000000000
ENDCHAR
STARTCHAR U+00F2
ENCODING 242
SWIDTH 1000 0
BBX 60 40 0 -8
DWIDTH 60 0
BITMAP
0000000000000000
0000000000000000
0000000000000000
0000000000000000
000FFFE000000000
000FFFE000000000
000FFFE000000000
000FFFE000000000
000000FFFE000000
000000FFFE000000
000000FFFE000000
000000FFFE000000
03FFFFFFFE000000
03FFFFFFFE000000
03FFFFFFFE000000
03FFFFFFFE000000
FF8000000FF80000
FF8000000FF80000
FF8000000FF80000
FF8000000FF80000
FF8000000FF80000
FF8000000FF80000
FF8000000FF80000
FF8000000FF80000
FF8000000FF80000
FF8000000FF80000
FF8000000FF80000
FF8000000FF80000
03FFFFFFFE000000
03FFFFFFFE000000
03FFFFFFFE000000
03FFFFFFFE000000
0000000000000000
0000000000000000
0000000000000000
0000000000000000
0000000000000000
0000000000000000
0000000000000000
0000000000000000
ENDCHAR
STARTCHAR U+00F1
ENCODING 241
SWIDTH 1000 0
BBX 60 40 0 -8
DWIDTH 60 0
BITMAP
03FFF803FE000000
03FFF803FE000000
03FFF803FE000000
03FFF803FE000000
FF803FFF80000000
FF803FFF80000000
FF803FFF80000000
FF803FFF80000000
0000000000000000
0000000000000000
0000000000000000
0000000000000000
FF8FFFFFFE000000
FF8FFFFFFE000000
FF8FFFFFFE000000
FF8FFFFFFE000000
FFFE00000FF80000
FFFE00000FF80000
FFFE00000FF80000
FFFE00000FF80000
FF8000000FF80000
FF8000000FF80000
FF8000000FF80000
FF8000000FF80000
FF8000000FF80000
FF8000000FF80000
FF8000000FF80000
FF8000000FF80000
FF8000000FF80000
FF8000000FF80000
FF8000000FF80000
FF8000000FF80000
0000000000000000
0000000000000000
0000000000000000
0000000000000000
0000000000000000
0000000000000000
0000000000000000
0000000000000000
ENDCHAR
STARTCHAR U+00F0
ENCODING 240
SWIDTH 1000 0
BBX 60 40 0 -8
DWIDTH 60 0
BITMAP
0000000000000000
0000000000000000
0000000000000000
0000000000000000
FFFFFFE000000000
FFFFFFE000000000
FFFFFFE000000000
FFFFFFE000000000
FF80000000000000
FF80000000000000
FF80000000000000
FF80000000000000
FFFFF80000000000
FFFFF80000000000
FFFFF80000000000
FFFFF80000000000
FF80000000000000
FF80000000000000
FF80000000000000
FF80000000000000
FF8000FFFE000000
FF8000FFFE000000
FF8000FFFE000000
FF8000FFFE000000
00003FE00FF80000
00003FE00FF80000
00003FE00FF80000
00003FE00FF80000
00003FE00FF80000
00003FE00FF80000
00003FE00FF80000
00003FE00FF80000
00003FE00FF80000
00003FE00FF80000
00003FE00FF80000
00003FE00FF80000
000000FFFE000000
000000FFFE000000
000000FFFE000000
000000FFFE000000
ENDCHAR
STARTCHAR U+00EF
ENCODING 239
SWIDTH 1000 0
BBX 60 40 0 -8
DWIDTH 60 0
BITMAP
0000000000000000
0000000000000000
0000000000000000
0000000000000000
03FE0003FE000000
03FE0003FE000000
03FE0003FE000000
03FE0003FE000000
0000000000000000
0000000000000000
0000000000000000
0000000000000000
000FFFE000000000
000FFFE000000000
000FFFE000000000
000FFFE000000000
00003FE000000000
00003FE000000000
00003FE000000000
00003FE000000000
00003FE000000000
00003FE000000000
00003FE000000000
00003FE000000000
00003FE000000000
00003FE000000000
00003FE000000000
00003FE000000000
03FFFFFFFE000000
03FFFFFFFE000000
03FFFFFFFE000000
03FFFFFFFE000000
0000000000000000
0000000000000000
0000000000000000
0000000000000000
0000000000000000
0000000000000000
0000000000000000
0000000000000000
ENDCHAR
STARTCHAR U+00EE
ENCODING 238
SWIDTH 1000 0
BBX 60 40 0 -8
DWIDTH 60 0
BITMAP
000FFFFF80000000
000FFFFF80000000
000FFFFF80000000
000FFFFF80000000
03FE0003FE000000
03FE0003FE000000
03FE0003FE000000
03FE0003FE000000
0000000000000000
0000000000000000
0000000000000000
0000000000000000
000FFFE000000000
000FFFE000000000
000FFFE000000000
000FFFE000000000
00003FE000000000
00003FE000000000
00003FE000000000
00003FE000000000
00003FE000000000
00003FE000000000
00003FE000000000
00003FE000000000
00003FE000000000
00003FE000000000
00003FE000000000
00003FE000000000
03FFFFFFFE000000
03FFFFFFFE000000
03FFFFFFFE000000
03FFFFFFFE000000
0000000000000000
0000000000000000
0000000000000000
0000000000000000
0000000000000000
0000000000000000
0000000000000000
0000000000000000
ENDCHAR
STARTCHAR U+00ED
ENCODING 237
SWIDTH 1000 0
BBX 60 40 0 -8
DWIDTH 60 0
BITMAP
0000000000000000
0000000000000000
0000000000000000
0000000000000000
00003FFF80000000
00003FFF80000000
00003FFF80000000
00003FFF80000000
03FFF80000000000
03FFF80000000000
03FFF80000000000
03FFF80000000000
000FFFE000000000
000FFFE000000000
000FFFE000000000
000FFFE000000000
00003FE000000000
00003FE000000000
00003FE000000000
00003FE000000000
00003FE000000000
00003FE000000000
00003FE000000000
00003FE000000000
00003FE000000000
00003FE000000000
00003FE000000000
00003FE000000000
03FFFFFFFE000000
03FFFFFFFE000000
03FFFFFFFE000000
03FFFFFFFE000000
0000000000000000
0000000000000000
0000000000000000
0000000000000000
0000000000000000
0000000000000000
0000000000000000
0000000000000000
ENDCHAR
STARTCHAR U+00EC
ENCODING 236
SWIDTH 1000 0
BBX 60 40 0 -8
DWIDTH 60 0
BITMAP
0000000000000000
0000000000000000
0000000000000000
0000000000000000
03FFF80000000000
03FFF80000000000
03FFF80000000000
03FFF80000000000
00003FFF80000000
00003FFF80000000
00003FFF80000000
00003FFF80000000
000FFFE000000000
000FFFE000000000
000FFFE000000000
000FFFE000000000
00003FE000000000
00003FE000000000
00003FE000000000
00003FE000000000
00003FE000000000
00003FE000000000
00003FE000000000
00003FE000000000
00003FE000000000
00003FE000000000
00003FE000000000
00003FE000000000
03FFFFFFFE000000
03FFFFFFFE000000
03FFFFFFFE000000
03FFFFFFFE000000
0000000000000000
0000000000000000
0000000000000000
0000000000000000
0000000000000000
0000000000000000
0000000000000000
0000000000000000
ENDCHAR
STARTCHAR U+00EB
ENCODING 235
SWIDTH 1000 0
BBX 60 40 0 -8
DWIDTH 60 0
BITMAP
0000000000000000
0000000000000000
0000000000000000
0000000000000000
03FE0003FE000000
03FE0003FE000000
03FE0003FE000000
03FE0003FE000000
0000000000000000
0000000000000000
0000000000000000
0000000000000000
03FFFFFFFE000000
03FFFFFFFE000000
03FFFFFFFE000000
03FFFFFFFE000000
FF8000000FF80000
FF8000000FF80000
FF8000000FF80000
FF8000000FF80000
FFFFFFFFFFF80000
FFFFFFFFFFF80000
FFFFFFFFFFF80000
FFFFFFFFFFF80000
FF80000000000000
FF80000000000000
FF80000000000000
FF80000000000000
03FFFFFFFE000000
03FFFFFFFE000000
03FFFFFFFE000000
03FFFFFFFE000000
0000000000000000
0000000000000000
0000000000000000
0000000000000000
0000000000000000
0000000000000000
0000000000000000
0000000000000000
ENDCHAR
STARTCHAR U+00EA
ENCODING 234
SWIDTH 1000 0
BBX 60 40 0 -8
DWIDTH 60 0
BITMAP
000FFFFF80000000
000FFFFF80000000
000FFFFF80000000
000FFFFF80000000
03FE0003FE000000
03FE0003FE000000
03FE0003FE000000
03FE0003FE000000
0000000000000000
0000000000000000
0000000000000000
0000000000000000
03FFFFFFFE000000
03FFFFFFFE000000
03FFFFFFFE000000
03FFFFFFFE000000
FF8000000FF80000
FF8000000FF80000
FF8000000FF80000
FF8000000FF80000
FFFFFFFFFFF80000
FFFFFFFFFFF80000
FFFFFFFFFFF80000
FFFFFFFFFFF80000
FF80000000000000
FF80000000000000
FF80000000000000
FF80000000000000
03FFFFFFFE000000
03FFFFFFFE000000
03FFFFFFFE000000
03FFFFFFFE000000
0000000000000000
0000000000000000
0000000000000000
0000000000000000
0000000000000000
0000000000000000
0000000000000000
0000000000000000
ENDCHAR
STARTCHAR U+00E9
ENCODING 233
SWIDTH 1000 0
BBX 60 40 0 -8
DWIDTH 60 0
BITMAP
0000000000000000
0000000000000000
0000000000000000
0000000000000000
00003FFF80000000
00003FFF80000000
00003FFF80000000
00003FFF80000000
03FFF80000000000
03FFF80000000000
03FFF80000000000
03FFF80000000000
03FFFFFFFE000000
03FFFFFFFE000000
03FFFFFFFE000000
03FFFFFFFE000000
FF8000000FF80000
FF8000000FF80000
FF8000000FF80000
FF8000000FF80000
FFFFFFFFFFF80000
FFFFFFFFFFF80000
FFFFFFFFFFF80000
FFFFFFFFFFF80000
FF80000000000000
FF80000000000000
FF80000000000000
FF80000000000000
03FFFFFFFE000000
03FFFFFFFE000000
03FFFFFFFE000000
03FFFFFFFE000000
0000000000000000
0000000000000000
0000000000000000
0000000000000000
0000000000000000
0000000000000000
0000000000000000
0000000000000000
ENDCHAR
STARTCHAR U+00E8
ENCODING 232
SWIDTH 1000 0
BBX 60 40 0 -8
DWIDTH 60 0
BITMAP
0000000000000000
0000000000000000
0000000000000000
0000000000000000
000FFFE000000000
000FFFE000000000
000FFFE000000000
000FFFE000000000
000000FFFE000000
000000FFFE000000
000000FFFE000000
000000FFFE000000
03FFFFFFFE000000
03FFFFFFFE000000
03FFFFFFFE000000
03FFFFFFFE000000
FF8000000FF80000
FF8000000FF80000
FF8000000FF80000
FF8000000FF80000
FFFFFFFFFFF80000
FFFFFFFFFFF80000
FFFFFFFFFFF80000
FFFFFFFFFFF80000
FF80000000000000
FF80000000000000
FF80000000000000
FF80000000000000
03FFFFFFFE000000
03FFFFFFFE000000
03FFFFFFFE000000
03FFFFFFFE000000
0000000000000000
0000000000000000
0000000000000000
0000000000000000
0000000000000000
0000000000000000
0000000000000000
0000000000000000
ENDCHAR
STARTCHAR U+00E7
ENCODING 231
SWIDTH 1000 0
BBX 60 40 0 -8
DWIDTH 60 0
BITMAP
0000000000000000
0000000000000000
0000000000000000
0000000000000000
0000000000000000
0000000000000000
0000000000000000
0000000000000000
0000000000000000
0000000000000000
0000000000000000
0000000000000000
03FFFFFFFE000000
03FFFFFFFE000000
03FFFFFFFE000000
03FFFFFFFE000000
FF8000000FF80000
FF8000000FF80000
FF8000000FF80000
FF8000000FF80000
FF80000000000000
FF80000000000000
FF80000000000000
FF80000000000000
FF8000000FF80000
FF8000000FF80000
FF8000000FF80000
FF8000000FF80000
03FFFFFFFE000000
03FFFFFFFE000000
03FFFFFFFE000000
03FFFFFFFE000000
000000FF80000000
000000FF80000000
000000FF80000000
000000FF80000000
000FFFFF80000000
000FFFFF80000000
000FFFFF80000000
000FFFFF80000000
ENDCHAR
STARTCHAR U+00E6
ENCODING 230
SWIDTH 1000 0
BBX 60 40 0 -8
DWIDTH 60 0
BITMAP
0000000000000000
0000000000000000
0000000000000000
0000000000000000
0000000000000000
0000000000000000
0000000000000000
0000000000000000
0000000000000000
0000000000000000
0000000000000000
0000000000000000
03FFF8FFFE000000
03FFF8FFFE000000
03FFF8FFFE000000
03FFF8FFFE000000
00003FE00FF80000
00003FE00FF80000
00003FE00FF80000
00003FE00FF80000
03FFFFFFFFF80000
03FFFFFFFFF80000
03FFFFFFFFF80000
03FFFFFFFFF80000
FF803FE000000000
FF803FE000000000
FF803FE000000000
FF803FE000000000
03FFFFFFFFF80000
03FFFFFFFFF80000
03FFFFFFFFF80000
03FFFFFFFFF80000
0000000000000000
0000000000000000
0000000000000000
0000000000000000
0000000000000000
0000000000000000
0000000000000000
0000000000000000
ENDCHAR
STARTCHAR U+00E5
ENCODING 229
SWIDTH 1000 0
BBX 60 40 0 -8
DWIDTH 60 0
BITMAP
000FFFFF80000000
000FFFFF80000000
000FFFFF80000000
000FFFFF80000000
03FE0003FE000000
03FE0003FE000000
03FE0003FE000000
03FE0003FE000000
000FFFFF80000000
000FFFFF80000000
000FFFFF80000000
000FFFFF80000000
03FFFFFFFE000000
03FFFFFFFE000000
03FFFFFFFE000000
03FFFFFFFE000000
000000000FF80000
000000000FF80000
000000000FF80000
000000000FF80000
03FFFFFFFFF80000
03FFFFFFFFF80000
03FFFFFFFFF80000
03FFFFFFFFF80000
FF800003FFF80000
FF800003FFF80000
FF800003FFF80000
FF800003FFF80000
03FFFFFF8FF80000
03FFFFFF8FF80000
03FFFFFF8FF80000
03FFFFFF8FF80000
0000000000000000
0000000000000000
0000000000000000
0000000000000000
0000000000000000
0000000000000000
0000000000000000
0000000000000000
ENDCHAR
STARTCHAR U+00E4
ENCODING 228
SWIDTH 1000 0
BBX 60 40 0 -8
DWIDTH 60 0
BITMAP
0000000000000000
0000000000000000
0000000000000000
0000000000000000
03FE0003FE000000
03FE0003FE000000
03FE0003FE000000
03FE0003FE000000
0000000000000000
0000000000000000
0000000000000000
0000000000000000
03FFFFFFFE000000
03FFFFFFFE000000
03FFFFFFFE000000
03FFFFFFFE000000
000000000FF80000
000000000FF80000
000000000FF80000
000000000FF80000
03FFFFFFFFF80000
03FFFFFFFFF80000
03FFFFFFFFF80000
03FFFFFFFFF80000
FF800003FFF80000
FF800003FFF80000
FF800003FFF80000
FF800003FFF80000
03FFFFFF8FF80000
03FFFFFF8FF80000
03FFFFFF8FF80000
03FFFFFF8FF80000
0000000000000000
0000000000000000
0000000000000000
0000000000000000
0000000000000000
0000000000000000
0000000000000000
0000000000000000
ENDCHAR
STARTCHAR U+00E3
ENCODING 227
SWIDTH 1000 0
BBX 60 40 0 -8
DWIDTH 60 0
BITMAP
000FFFE00FF80000
000FFFE00FF80000
000FFFE00FF80000
000FFFE00FF80000
03FE00FFFE000000
03FE00FFFE000000
03FE00FFFE000000
03FE00FFFE000000
0000000000000000
0000000000000000
0000000000000000
0000000000000000
03FFFFFFFE000000
03FFFFFFFE000000
03FFFFFFFE000000
03FFFFFFFE000000
000000000FF80000
000000000FF80000
000000000FF80000
000000000FF80000
03FFFFFFFFF80000
03FFFFFFFFF80000
03FFFFFFFFF80000
03FFFFFFFFF80000
FF800003FFF80000
FF800003FFF80000
FF800003FFF80000
FF800003FFF80000
03FFFFFF8FF80000
03FFFFFF8FF80000
03FFFFFF8FF80000
03FFFFFF8FF80000
0000000000000000
0000000000000000
0000000000000000
0000000000000000
0000000000000000
0000000000000000
0000000000000000
0000000000000000
ENDCHAR
STARTCHAR U+00E2
ENCODING 226
SWIDTH 1000 0
BBX 60 40 0 -8
DWIDTH 60 0
BITMAP
000FFFFF80000000
000FFFFF80000000
000FFFFF80000000
000FFFFF80000000
03FE0003FE000000
03FE0003FE000000
03FE0003FE000000
03FE0003FE000000
0000000000000000
0000000000000000
0000000000000000
0000000000000000
03FFFFFFFE000000
03FFFFFFFE000000
03FFFFFFFE000000
03FFFFFFFE000000
000000000FF80000
000000000FF80000
000000000FF80000
000000000FF80000
03FFFFFFFFF80000
03FFFFFFFFF80000
03FFFFFFFFF80000
03FFFFFFFFF80000
FF800003FFF80000
FF800003FFF80000
FF800003FFF80000
FF800003FFF80000
03FFFFFF8FF80000
03FFFFFF8FF80000
03FFFFFF8FF80000
03FFFFFF8FF80000
0000000000000000
0000000000000000
0000000000000000
0000000000000000
0000000000000000
0000000000000000
0000000000000000
0000000000000000
ENDCHAR
STARTCHAR U+00E1
ENCODING 225
SWIDTH 1000 0
BBX 60 40 0 -8
DWIDTH 60 0
BITMAP
0000000000000000
0000000000000000
0000000000000000
0000000000000000
00003FFF80000000
00003FFF80000000
00003FFF80000000
00003FFF80000000
03FFF80000000000
03FFF80000000000
03FFF80000000000
03FFF80000000000
03FFFFFFFE000000
03FFFFFFFE000000
03FFFFFFFE000000
03FFFFFFFE000000
000000000FF80000
000000000FF80000
000000000FF80000
000000000FF80000
03FFFFFFFFF80000
03FFFFFFFFF80000
03FFFFFFFFF80000
03FFFFFFFFF80000
FF800003FFF80000
FF800003FFF80000
FF800003FFF80000
FF800003FFF80000
03FFFFFF8FF80000
03FFFFFF8FF80000
03FFFFFF8FF80000
03FFFFFF8FF80000
0000000000000000
0000000000000000
0000000000000000
0000000000000000
0000000000000000
0000000000000000
0000000000000000
0000000000000000
ENDCHAR
STARTCHAR U+00E0
ENCODING 224
SWIDTH 1000 0
BBX 60 40 0 -8
DWIDTH 60 0
BITMAP
0000000000000000
0000000000000000
0000000000000000
0000000000000000
000FFFE000000000
000FFFE000000000
000FFFE000000000
000FFFE000000000
000000FFFE000000
000000FFFE000000
000000FFFE000000
000000FFFE000000
03FFFFFFFE000000
03FFFFFFFE000000
03FFFFFFFE000000
03FFFFFFFE000000
000000000FF80000
000000000FF80000
000000000FF80000
000000000FF80000
03FFFFFFFFF80000
03FFFFFFFFF80000
03FFFFFFFFF80000
03FFFFFFFFF80000
FF800003FFF80000
FF800003FFF80000
FF800003FFF80000
FF800003FFF80000
03FFFFFF8FF80000
03FFFFFF8FF80000
03FFFFFF8FF80000
03FFFFFF8FF80000
0000000000000000
0000000000000000
0000000000000000
0000000000000000
0000000000000000
0000000000000000
0000000000000000
0000000000000000
ENDCHAR
STARTCHAR U+00DF
ENCODING 223
SWIDTH 1000 0
BBX 60 40 0 -8
DWIDTH 60 0
BITMAP
0000000000000000
0000000000000000
0000000000000000
0000000000000000
000FFFFF80000000
000FFFFF80000000
000FFFFF80000000
000FFFFF80000000
03FE0003FE000000
03FE0003FE000000
03FE0003FE000000
03FE0003FE000000
FF800003FE000000
FF800003FE000000
FF800003FE000000
FF800003FE000000
FF8FFFFF80000000
FF8FFFFF80000000
FF8FFFFF80000000
FF8FFFFF80000000
FF800003FE000000
FF800003FE000000
FF800003FE000000
FF800003FE000000
FF8FF8000FF80000
FF8FF8000FF80000
FF8FF8000FF80000
FF8FF8000FF80000
FF803FFFFE000000
FF803FFFFE000000
FF803FFFFE000000
FF803FFFFE000000
FF80000000000000
FF80000000000000
FF80000000000000
FF80000000000000
0000000000000000
0000000000000000
0000000000000000
0000000000000000
ENDCHAR
STARTCHAR U+00DE
ENCODING 222
SWIDTH 1000 0
BBX 60 40 0 -8
DWIDTH 60 0
BITMAP
0000000000000000
0000000000000000
0000000000000000
0000000000000000
FFFFF80000000000
FFFFF80000000000
FFFFF80000000000
FFFFF80000000000
FF803FE000000000
FF803FE000000000
FF803FE000000000
FF803FE000000000
FF803FE000000000
FF803FE000000000
FF803FE000000000
FF803FE000000000
FF803FE000000000
FF803FE000000000
FF803FE000000000
FF803FE000000000
FFFFFFFFFFF80000
FFFFFFFFFFF80000
FFFFFFFFFFF80000
FFFFFFFFFFF80000
00003FE000000000
00003FE000000000
00003FE000000000
00003FE000000000
00003FFFFE000000
00003FFFFE000000
00003FFFFE000000
00003FFFFE000000
00003FE000000000
00003FE000000000
00003FE000000000
00003FE000000000
00003FFFFFF80000
00003FFFFFF80000
00003FFFFFF80000
00003FFFFFF80000
ENDCHAR
STARTCHAR U+0178
ENCODING 376
SWIDTH 1000 0
BBX 60 40 0 -8
DWIDTH 60 0
BITMAP
03FE0003FE000000
03FE0003FE000000
03FE0003FE000000
03FE0003FE000000
0000000000000000
0000000000000000
0000000000000000
0000000000000000
FF8000000FF80000
FF8000000FF80000
FF8000000FF80000
FF8000000FF80000
03FE0003FE000000
03FE0003FE000000
03FE0003FE000000
03FE0003FE000000
000FF8FF80000000
000FF8FF80000000
000FF8FF80000000
000FF8FF80000000
00003FE000000000
00003FE000000000
00003FE000000000
00003FE000000000
00003FE000000000
00003FE000000000
00003FE000000000
00003FE000000000
00003FE000000000
00003FE000000000
00003FE000000000
00003FE000000000
0000000000000000
0000000000000000
0000000000000000
0000000000000000
0000000000000000
0000000000000000
0000000000000000
0000000000000000
ENDCHAR
STARTCHAR U+00DC
ENCODING 220
SWIDTH 1000 0
BBX 60 40 0 -8
DWIDTH 60 0
BITMAP
03FE0003FE000000
03FE0003FE000000
03FE0003FE000000
03FE0003FE000000
0000000000000000
0000000000000000
0000000000000000
0000000000000000
FF8000000FF80000
FF8000000FF80000
FF8000000FF80000
FF8000000FF80000
FF8000000FF80000
FF8000000FF80000
FF8000000FF80000
FF8000000FF80000
FF8000000FF80000
FF8000000FF80000
FF8000000FF80000
FF8000000FF80000
FF8000000FF80000
FF8000000FF80000
FF8000000FF80000
FF8000000FF80000
FF8000000FF80000
FF8000000FF80000
FF8000000FF80000
FF8000000FF80000
03FFFFFFFE000000
03FFFFFFFE000000
03FFFFFFFE000000
03FFFFFFFE000000
0000000000000000
0000000000000000
0000000000000000
0000000000000000
0000000000000000
0000000000000000
0000000000000000
0000000000000000
ENDCHAR
STARTCHAR U+00DB
ENCODING 219
SWIDTH 1000 0
BBX 60 40 0 -8
DWIDTH 60 0
BITMAP
00003FE000000000
00003FE000000000
00003FE000000000
00003FE000000000
000FF8FF80000000
000FF8FF80000000
000FF8FF80000000
000FF8FF80000000
FF8000000FF80000
FF8000000FF80000
FF8000000FF80000
FF8000000FF80000
FF8000000FF80000
FF8000000FF80000
FF8000000FF80000
FF8000000FF80000
FF8000000FF80000
FF8000000FF80000
FF8000000FF80000
FF8000000FF80000
FF8000000FF80000
FF8000000FF80000
FF8000000FF80000
FF8000000FF80000
FF8000000FF80000
FF8000000FF80000
FF8000000FF80000
FF8000000FF80000
03FFFFFFFE000000
03FFFFFFFE000000
03FFFFFFFE000000
03FFFFFFFE000000
0000000000000000
0000000000000000
0000000000000000
0000000000000000
0000000000000000
0000000000000000
0000000000000000
0000000000000000
ENDCHAR
STARTCHAR U+00DA
ENCODING 218
SWIDTH 1000 0
BBX 60 40 0 -8
DWIDTH 60 0
BITMAP
000000FFFE000000
000000FFFE000000
000000FFFE000000
000000FFFE000000
000FFFE000000000
000FFFE000000000
000FFFE000000000
000FFFE000000000
FF8000000FF80000
FF8000000FF80000
FF8000000FF80000
FF8000000FF80000
FF8000000FF80000
FF8000000FF80000
FF8000000FF80000
FF8000000FF80000
FF8000000FF80000
FF8000000FF80000
FF8000000FF80000
FF8000000FF80000
FF8000000FF80000
FF8000000FF80000
FF8000000FF80000
FF8000000FF80000
FF8000000FF80000
FF8000000FF80000
FF8000000FF80000
FF8000000FF80000
03FFFFFFFE000000
03FFFFFFFE000000
03FFFFFFFE000000
03FFFFFFFE000000
0000000000000000
0000000000000000
0000000000000000
0000000000000000
0000000000000000
0000000000000000
0000000000000000
0000000000000000
ENDCHAR
STARTCHAR U+00D9
ENCODING 217
SWIDTH 1000 0
BBX 60 40 0 -8
DWIDTH 60 0
BITMAP
03FFF80000000000
03FFF80000000000
03FFF80000000000
03FFF80000000000
00003FFF80000000
00003FFF80000000
00003FFF80000000
00003FFF80000000
FF8000000FF80000
FF8000000FF80000
FF8000000FF80000
FF8000000FF80000
FF8000000FF80000
FF8000000FF80000
FF8000000FF80000
FF8000000FF80000
FF8000000FF80000
FF8000000FF80000
FF8000000FF80000
FF8000000FF80000
FF8000000FF80000
FF8000000FF80000
FF8000000FF80000
FF8000000FF80000
FF8000000FF80000
FF8000000FF80000
FF8000000FF80000
FF8000000FF80000
03FFFFFFFE000000
03FFFFFFFE000000
03FFFFFFFE000000
03FFFFFFFE000000
0000000000000000
0000000000000000
0000000000000000
0000000000000000
0000000000000000
0000000000000000
0000000000000000
0000000000000000
ENDCHAR
STARTCHAR U+00D8
ENCODING 216
SWIDTH 1000 0
BBX 60 40 0 -8
DWIDTH 60 0
BITMAP
000000000FF80000
000000000FF80000
000000000FF80000
000000000FF80000
03FFFFFFFE000000
03FFFFFFFE000000
03FFFFFFFE000000
03FFFFFFFE000000
FF800003FFF80000
FF800003FFF80000
FF800003FFF80000
FF800003FFF80000
FF8000FF8FF80000
FF8000FF8FF80000
FF8000FF8FF80000
FF8000FF8FF80000
FF803FE00FF80000
FF803FE00FF80000
FF803FE00FF80000
FF803FE00FF80000
FF8FF8000FF80000
FF8FF8000FF80000
FF8FF8000FF80000
FF8FF8000FF80000
FFFE00000FF80000
FFFE00000FF80000
FFFE00000FF80000
FFFE00000FF80000
03FFFFFFFE000000
03FFFFFFFE000000
03FFFFFFFE000000
03FFFFFFFE000000
FF80000000000000
FF80000000000000
FF80000000000000
FF80000000000000
0000000000000000
0000000000000000
0000000000000000
0000000000000000
ENDCHAR
STARTCHAR U+0152
ENCODING 338
SWIDTH 1000 0
BBX 60 40 0 -8
DWIDTH 60 0
BITMAP
0000000000000000
0000000000000000
0000000000000000
0000000000000000
03FFF8FFFFF80000
03FFF8FFFFF80000
03FFF8FFFFF80000
03FFF8FFFFF80000
FF803FE000000000
FF803FE000000000
FF803FE000000000
FF803FE000000000
FF803FE000000000
FF803FE000000000
FF803FE000000000
FF803FE000000000
FF803FFFFE000000
FF803FFFFE000000
FF803FFFFE000000
FF803FFFFE000000
FF803FE000000000
FF803FE000000000
FF803FE000000000
FF803FE000000000
FF803FE000000000
FF803FE000000000
FF803FE000000000
FF803FE000000000
03FFF8FFFFF80000
03FFF8FFFFF80000
03FFF8FFFFF80000
03FFF8FFFFF80000
0000000000000000
0000000000000000
0000000000000000
0000000000000000
0000000000000000
0000000000000000
0000000000000000
0000000000000000
ENDCHAR
STARTCHAR U+00D6
ENCODING 214
SWIDTH 1000 0
BBX 60 40 0 -8
DWIDTH 60 0
BITMAP
03FE0003FE000000
03FE0003FE000000
03FE0003FE000000
03FE0003FE000000
0000000000000000
0000000000000000
0000000000000000
0000000000000000
03FFFFFFFE000000
03FFFFFFFE000000
03FFFFFFFE000000
03FFFFFFFE000000
FF8000000FF80000
FF8000000FF80000
FF8000000FF80000
FF8000000FF80000
FF8000000FF80000
FF8000000FF80000
FF8000000FF80000
FF8000000FF80000
FF8000000FF80000
FF8000000FF80000
FF8000000FF80000
FF8000000FF80000
FF8000000FF80000
FF8000000FF80000
FF8000000FF80000
FF8000000FF80000
03FFFFFFFE000000
03FFFFFFFE000000
03FFFFFFFE000000
03FFFFFFFE000000
0000000000000000
0000000000000000
0000000000000000
0000000000000000
0000000000000000
0000000000000000
0000000000000000
0000000000000000
ENDCHAR
STARTCHAR U+00D5
ENCODING 213
SWIDTH 1000 0
BBX 60 40 0 -8
DWIDTH 60 0
BITMAP
03FFF803FE000000
03FFF803FE000000
03FFF803FE000000
03FFF803FE000000
FF803FFF80000000
FF803FFF80000000
FF803FFF80000000
FF803FFF80000000
03FFFFFFFE000000
03FFFFFFFE000000
03FFFFFFFE000000
03FFFFFFFE000000
FF8000000FF80000
FF8000000FF80000
FF8000000FF80000
FF8000000FF80000
FF8000000FF80000
FF8000000FF80000
FF8000000FF80000
FF8000000FF80000
FF8000000FF80000
FF8000000FF80000
FF8000000FF80000
FF8000000FF80000
FF8000000FF80000
FF8000000FF80000
FF8000000FF80000
FF8000000FF80000
03FFFFFFFE000000
03FFFFFFFE000000
03FFFFFFFE000000
03FFFFFFFE000000
0000000000000000
0000000000000000
0000000000000000
0000000000000000
0000000000000000
0000000000000000
0000000000000000
0000000000000000
ENDCHAR
STARTCHAR U+00D4
ENCODING 212
SWIDTH 1000 0
BBX 60 40 0 -8
DWIDTH 60 0
BITMAP
000FFFFF80000000
000FFFFF80000000
000FFFFF80000000
000FFFFF80000000
03FE0003FE000000
03FE0003FE000000
03FE0003FE000000
03FE0003FE000000
03FFFFFFFE000000
03FFFFFFFE000000
03FFFFFFFE000000
03FFFFFFFE000000
FF8000000FF80000
FF8000000FF80000
FF8000000FF80000
FF8000000FF80000
FF8000000FF80000
FF8000000FF80000
FF8000000FF80000
FF8000000FF80000
FF8000000FF80000
FF8000000FF80000
FF8000000FF80000
FF8000000FF80000
FF8000000FF80000
FF8000000FF80000
FF8000000FF80000
FF8000000FF80000
03FFFFFFFE000000
03FFFFFFFE000000
03FFFFFFFE000000
03FFFFFFFE000000
0000000000000000
0000000000000000
0000000000000000
0000000000000000
0000000000000000
0000000000000000
0000000000000000
0000000000000000
ENDCHAR
STARTCHAR U+00D3
ENCODING 211
SWIDTH 1000 0
BBX 60 40 0 -8
DWIDTH 60 0
BITMAP
00003FFF80000000
00003FFF80000000
00003FFF80000000
00003FFF80000000
03FFF80000000000
03FFF80000000000
03FFF80000000000
03FFF80000000000
03FFFFFFFE000000
03FFFFFFFE000000
03FFFFFFFE000000
03FFFFFFFE000000
FF8000000FF80000
FF8000000FF80000
FF8000000FF80000
FF8000000FF80000
FF8000000FF80000
FF8000000FF80000
FF8000000FF80000
FF8000000FF80000
FF8000000FF80000
FF8000000FF80000
FF8000000FF80000
FF8000000FF80000
FF8000000FF80000
FF8000000FF80000
FF8000000FF80000
FF8000000FF80000
03FFFFFFFE000000
03FFFFFFFE000000
03FFFFFFFE000000
03FFFFFFFE000000
0000000000000000
0000000000000000
0000000000000000
0000000000000000
0000000000000000
0000000000000000
0000000000000000
0000000000000000
ENDCHAR
STARTCHAR U+00D2
ENCODING 210
SWIDTH 1000 0
BBX 60 40 0 -8
DWIDTH 60 0
BITMAP
000FFFE000000000
000FFFE000000000
000FFFE000000000
000FFFE000000000
000000FFFE000000
000000FFFE000000
000000FFFE000000
000000FFFE000000
03FFFFFFFE000000
03FFFFFFFE000000
03FFFFFFFE000000
03FFFFFFFE000000
FF8000000FF80000
FF8000000FF80000
FF8000000FF80000
FF8000000FF80000
FF8000000FF80000
FF8000000FF80000
FF8000000FF80000
FF8000000FF80000
FF8000000FF80000
FF8000000FF80000
FF8000000FF80000
FF8000000FF80000
FF8000000FF80000
FF8000000FF80000
FF8000000FF80000
FF8000000FF80000
03FFFFFFFE000000
03FFFFFFFE000000
03FFFFFFFE000000
03FFFFFFFE000000
0000000000000000
0000000000000000
0000000000000000
0000000000000000
0000000000000000
0000000000000000
0000000000000000
0000000000000000
ENDCHAR
STARTCHAR U+00D1
ENCODING 209
SWIDTH 1000 0
BBX 60 40 0 -8
DWIDTH 60 0
BITMAP
000FFFE00FF80000
000FFFE00FF80000
000FFFE00FF80000
000FFFE00FF80000
03FE00FFFE000000
03FE00FFFE000000
03FE00FFFE000000
03FE00FFFE000000
FFFE00000FF80000
FFFE00000FF80000
FFFE00000FF80000
FFFE00000FF80000
FF8FF8000FF80000
FF8FF8000FF80000
FF8FF8000FF80000
FF8FF8000FF80000
FF803FE00FF80000
FF803FE00FF80000
FF803FE00FF80000
FF803FE00FF80000
FF8000FF8FF80000
FF8000FF8FF80000
FF8000FF8FF80000
FF8000FF8FF80000
FF800003FFF80000
FF800003FFF80000
FF800003FFF80000
FF800003FFF80000
FF8000000FF80000
FF8000000FF80000
FF8000000FF80000
FF8000000FF80000
0000000000000000
0000000000000000
0000000000000000
0000000000000000
0000000000000000
0000000000000000
0000000000000000
0000000000000000
ENDCHAR
STARTCHAR U+00D0
ENCODING 208
SWIDTH 1000 0
BBX 60 40 0 -8
DWIDTH 60 0
BITMAP
0000000000000000
0000000000000000
0000000000000000
0000000000000000
FFFFF80000000000
FFFFF80000000000
FFFFF80000000000
FFFFF80000000000
FF803FE000000000
FF803FE000000000
FF803FE000000000
FF803FE000000000
FF803FE000000000
FF803FE000000000
FF803FE000000000
FF803FE000000000
FF803FE000000000
FF803FE000000000
FF803FE000000000
FF803FE000000000
FFFFF8FFFE000000
FFFFF8FFFE000000
FFFFF8FFFE000000
FFFFF8FFFE000000
00003FE00FF80000
00003FE00FF80000
00003FE00FF80000
00003FE00FF80000
00003FE00FF80000
00003FE00FF80000
00003FE00FF80000
00003FE00FF80000
00003FE00FF80000
00003FE00FF80000
00003FE00FF80000
00003FE00FF80000
000000FFFE000000
000000FFFE000000
000000FFFE000000
000000FFFE000000
ENDCHAR
STARTCHAR U+00CF
ENCODING 207
SWIDTH 1000 0
BBX 60 40 0 -8
DWIDTH 60 0
BITMAP
03FE0003FE000000
03FE0003FE000000
03FE0003FE000000
03FE0003FE000000
0000000000000000
0000000000000000
0000000000000000
0000000000000000
03FFFFFFFE000000
03FFFFFFFE000000
03FFFFFFFE000000
03FFFFFFFE000000
00003FE000000000
00003FE000000000
00003FE000000000
00003FE000000000
00003FE000000000
00003FE000000000
00003FE000000000
00003FE000000000
00003FE000000000
00003FE000000000
00003FE000000000
00003FE000000000
00003FE000000000
00003FE000000000
00003FE000000000
00003FE000000000
03FFFFFFFE000000
03FFFFFFFE000000
03FFFFFFFE000000
03FFFFFFFE000000
0000000000000000
0000000000000000
0000000000000000
0000000000000000
0000000000000000
0000000000000000
0000000000000000
0000000000000000
ENDCHAR
STARTCHAR U+00CE
ENCODING 206
SWIDTH 1000 0
BBX 60 40 0 -8
DWIDTH 60 0
BITMAP
000FFFFF80000000
000FFFFF80000000
000FFFFF80000000
000FFFFF80000000
03FE0003FE000000
03FE0003FE000000
03FE0003FE000000
03FE0003FE000000
03FFFFFFFE000000
03FFFFFFFE000000
03FFFFFFFE000000
03FFFFFFFE000000
00003FE000000000
00003FE000000000
00003FE000000000
00003FE000000000
00003FE000000000
00003FE000000000
00003FE000000000
00003FE000000000
00003FE000000000
00003FE000000000
00003FE000000000
00003FE000000000
00003FE000000000
00003FE000000000
00003FE000000000
00003FE000000000
03FFFFFFFE000000
03FFFFFFFE000000
03FFFFFFFE000000
03FFFFFFFE000000
0000000000000000
0000000000000000
0000000000000000
0000000000000000
0000000000000000
0000000000000000
0000000000000000
0000000000000000
ENDCHAR
STARTCHAR U+00CD
ENCODING 205
SWIDTH 1000 0
BBX 60 40 0 -8
DWIDTH 60 0
BITMAP
00003FFF80000000
00003FFF80000000
00003FFF80000000
00003FFF80000000
03FFF80000000000
03FFF80000000000
03FFF80000000000
03FFF80000000000
03FFFFFFFE000000
03FFFFFFFE000000
03FFFFFFFE000000
03FFFFFFFE000000
00003FE000000000
00003FE000000000
00003FE000000000
00003FE000000000
00003FE000000000
00003FE000000000
00003FE000000000
00003FE000000000
00003FE000000000
00003FE000000000
00003FE000000000
00003FE000000000
00003FE000000000
00003FE000000000
00003FE000000000
00003FE000000000
03FFFFFFFE000000
03FFFFFFFE000000
03FFFFFFFE000000
03FFFFFFFE000000
0000000000000000
0000000000000000
0000000000000000
0000000000000000
0000000000000000
0000000000000000
0000000000000000
0000000000000000
ENDCHAR
STARTCHAR U+00CC
ENCODING 204
SWIDTH 1000 0
BBX 60 40 0 -8
DWIDTH 60 0
BITMAP
000FFFE000000000
000FFFE000000000
000FFFE000000000
000FFFE000000000
000000FFFE000000
000000FFFE000000
000000FFFE000000
000000FFFE000000
03FFFFFFFE000000
03FFFFFFFE000000
03FFFFFFFE000000
03FFFFFFFE000000
00003FE000000000
00003FE000000000
00003FE000000000
00003FE000000000
00003FE000000000
00003FE000000000
00003FE000000000
00003FE000000000
00003FE000000000
00003FE000000000
00003FE000000000
00003FE000000000
00003FE000000000
00003FE000000000
00003FE000000000
00003FE000000000
03FFFFFFFE000000
03FFFFFFFE000000
03FFFFFFFE000000
03FFFFFFFE000000
0000000000000000
0000000000000000
0000000000000000
0000000000000000
0000000000000000
0000000000000000
0000000000000000
0000000000000000
ENDCHAR
STARTCHAR U+00CB
ENCODING 203
SWIDTH 1000 0
BBX 60 40 0 -8
DWIDTH 60 0
BITMAP
03FE0003FE000000
03FE0003FE000000
03FE0003FE000000
03FE0003FE000000
0000000000000000
0000000000000000
0000000000000000
0000000000000000
FFFFFFFFFFF80000
FFFFFFFFFFF80000
FFFFFFFFFFF80000
FFFFFFFFFFF80000
FF80000000000000
FF80000000000000
FF80000000000000
FF80000000000000
FFFFFFFF80000000
FFFFFFFF80000000
FFFFFFFF80000000
FFFFFFFF80000000
FF80000000000000
FF80000000000000
FF80000000000000
FF80000000000000
FF80000000000000
FF80000000000000
FF80000000000000
FF80000000000000
FFFFFFFFFFF80000
FFFFFFFFFFF80000
FFFFFFFFFFF80000
FFFFFFFFFFF80000
0000000000000000
0000000000000000
0000000000000000
0000000000000000
0000000000000000
0000000000000000
0000000000000000
0000000000000000
ENDCHAR
STARTCHAR U+00CA
ENCODING 202
SWIDTH 1000 0
BBX 60 40 0 -8
DWIDTH 60 0
BITMAP
000FFFFF80000000
000FFFFF80000000
000FFFFF80000000
000FFFFF80000000
03FE0003FE000000
03FE0003FE000000
03FE0003FE000000
03FE0003FE000000
FFFFFFFFFFF80000
FFFFFFFFFFF80000
FFFFFFFFFFF80000
FFFFFFFFFFF80000
FF80000000000000
FF80000000000000
FF80000000000000
FF80000000000000
FFFFFFE000000000
FFFFFFE000000000
FFFFFFE000000000
FFFFFFE000000000
FF80000000000000
FF80000000000000
FF80000000000000
FF80000000000000
FF80000000000000
FF80000000000000
FF80000000000000
FF80000000000000
FFFFFFFFFFF80000
FFFFFFFFFFF80000
FFFFFFFFFFF80000
FFFFFFFFFFF80000
0000000000000000
0000000000000000
0000000000000000
0000000000000000
0000000000000000
0000000000000000
0000000000000000
0000000000000000
ENDCHAR
STARTCHAR U+00C9
ENCODING 201
SWIDTH 1000 0
BBX 60 40 0 -8
DWIDTH 60 0
BITMAP
000000FFFE000000
000000FFFE000000
000000FFFE000000
000000FFFE000000
000FFFE000000000
000FFFE000000000
000FFFE000000000
000FFFE000000000
FFFFFFFFFFF80000
FFFFFFFFFFF80000
FFFFFFFFFFF80000
FFFFFFFFFFF80000
FF80000000000000
FF80000000000000
FF80000000000000
FF80000000000000
FFFFFFFF80000000
FFFFFFFF80000000
FFFFFFFF80000000
FFFFFFFF80000000
FF80000000000000
FF80000000000000
FF80000000000000
FF80000000000000
FF80000000000000
FF80000000000000
FF80000000000000
FF80000000000000
FFFFFFFFFFF80000
FFFFFFFFFFF80000
FFFFFFFFFFF80000
FFFFFFFFFFF80000
0000000000000000
0000000000000000
0000000000000000
0000000000000000
0000000000000000
0000000000000000
0000000000000000
0000000000000000
ENDCHAR
STARTCHAR U+00C8
ENCODING 200
SWIDTH 1000 0
BBX 60 40 0 -8
DWIDTH 60 0
BITMAP
03FFF80000000000
03FFF80000000000
03FFF80000000000
03FFF80000000000
00003FFF80000000
00003FFF80000000
00003FFF80000000
00003FFF80000000
FFFFFFFFFFF80000
FFFFFFFFFFF80000
FFFFFFFFFFF80000
FFFFFFFFFFF80000
FF80000000000000
FF80000000000000
FF80000000000000
FF80000000000000
FFFFFFFF80000000
FFFFFFFF80000000
FFFFFFFF80000000
FFFFFFFF80000000
FF80000000000000
FF80000000000000
FF80000000000000
FF80000000000000
FF80000000000000
FF80000000000000
FF80000000000000
FF80000000000000
FFFFFFFFFFF80000
FFFFFFFFFFF80000
FFFFFFFFFFF80000
FFFFFFFFFFF80000
0000000000000000
0000000000000000
0000000000000000
0000000000000000
0000000000000000
0000000000000000
0000000000000000
0000000000000000
ENDCHAR
STARTCHAR U+00C7
ENCODING 199
SWIDTH 1000 0
BBX 60 40 0 -8
DWIDTH 60 0
BITMAP
0000000000000000
0000000000000000
0000000000000000
0000000000000000
000FFFFFFE000000
000FFFFFFE000000
000FFFFFFE000000
000FFFFFFE000000
03FE00000FF80000
03FE00000FF80000
03FE00000FF80000
03FE00000FF80000
FF80000000000000
FF80000000000000
FF80000000000000
FF80000000000000
FF80000000000000
FF80000000000000
FF80000000000000
FF80000000000000
FF80000000000000
FF80000000000000
FF80000000000000
FF80000000000000
03FE00000FF80000
03FE00000FF80000
03FE00000FF80000
03FE00000FF80000
000FFFFFFE000000
000FFFFFFE000000
000FFFFFFE000000
000FFFFFFE000000
000000FF80000000
000000FF80000000
000000FF80000000
000000FF80000000
000FFFFF80000000
000FFFFF80000000
000FFFFF80000000
000FFFFF80000000
ENDCHAR
STARTCHAR U+00C6
ENCODING 198
SWIDTH 1000 0
BBX 60 40 0 -8
DWIDTH 60 0
BITMAP
0000000000000000
0000000000000000
0000000000000000
0000000000000000
000FFFFFFFF80000
000FFFFFFFF80000
000FFFFFFFF80000
000FFFFFFFF80000
03FE3FE000000000
03FE3FE000000000
03FE3FE000000000
03FE3FE000000000
FF803FE000000000
FF803FE000000000
FF803FE000000000
FF803FE000000000
FF803FFFFE000000
FF803FFFFE000000
FF803FFFFE000000
FF803FFFFE000000
FFFFFFE000000000
FFFFFFE000000000
FFFFFFE000000000
FFFFFFE000000000
FF803FE000000000
FF803FE000000000
FF803FE000000000
FF803FE000000000
FF803FFFFFF80000
FF803FFFFFF80000
FF803FFFFFF80000
FF803FFFFFF80000
0000000000000000
0000000000000000
0000000000000000
0000000000000000
0000000000000000
0000000000000000
0000000000000000
0000000000000000
ENDCHAR
STARTCHAR U+00C5
ENCODING 197
SWIDTH 1000 0
BBX 60 40 0 -8
DWIDTH 60 0
BITMAP
000FFFFF80000000
000FFFFF80000000
000FFFFF80000000
000FFFFF80000000
03FE0003FE000000
03FE0003FE000000
03FE0003FE000000
03FE0003FE000000
000FFFFF80000000
000FFFFF80000000
000FFFFF80000000
000FFFFF80000000
000FFFFF80000000
000FFFFF80000000
000FFFFF80000000
000FFFFF80000000
03FE0003FE000000
03FE0003FE000000
03FE0003FE000000
03FE0003FE000000
FFFFFFFFFFF80000
FFFFFFFFFFF80000
FFFFFFFFFFF80000
FFFFFFFFFFF80000
FF8000000FF80000
FF8000000FF80000
FF8000000FF80000
FF8000000FF80000
FF8000000FF80000
FF8000000FF80000
FF8000000FF80000
FF8000000FF80000
0000000000000000
0000000000000000
0000000000000000
0000000000000000
0000000000000000
0000000000000000
0000000000000000
0000000000000000
ENDCHAR
STARTCHAR U+00C4
ENCODING 196
SWIDTH 1000 0
BBX 60 40 0 -8
DWIDTH 60 0
BITMAP
03FE0003FE000000
03FE0003FE000000
03FE0003FE000000
03FE0003FE000000
0000000000000000
0000000000000000
0000000000000000
0000000000000000
00003FE000000000
00003FE000000000
00003FE000000000
00003FE000000000
000FF8FF80000000
000FF8FF80000000
000FF8FF80000000
000FF8FF80000000
03FE0003FE000000
03FE0003FE000000
03FE0003FE000000
03FE0003FE000000
FFFFFFFFFFF80000
FFFFFFFFFFF80000
FFFFFFFFFFF80000
FFFFFFFFFFF80000
FF8000000FF80000
FF8000000FF80000
FF8000000FF80000
FF8000000FF80000
FF8000000FF80000
FF8000000FF80000
FF8000000FF80000
FF8000000FF80000
0000000000000000
0000000000000000
0000000000000000
0000000000000000
0000000000000000
0000000000000000
0000000000000000
0000000000000000
ENDCHAR
STARTCHAR U+00C3
ENCODING 195
SWIDTH 1000 0
BBX 60 40 0 -8
DWIDTH 60 0
BITMAP
000FFFE00FF80000
000FFFE00FF80000
000FFFE00FF80000
000FFFE00FF80000
03FE00FFFE000000
03FE00FFFE000000
03FE00FFFE000000
03FE00FFFE000000
00003FE000000000
00003FE000000000
00003FE000000000
00003FE000000000
000FF8FF80000000
000FF8FF80000000
000FF8FF80000000
000FF8FF80000000
03FE0003FE000000
03FE0003FE000000
03FE0003FE000000
03FE0003FE000000
FFFFFFFFFFF80000
FFFFFFFFFFF80000
FFFFFFFFFFF80000
FFFFFFFFFFF80000
FF8000000FF80000
FF8000000FF80000
FF8000000FF80000
FF8000000FF80000
FF8000000FF80000
FF8000000FF80000
FF8000000FF80000
FF8000000FF80000
0000000000000000
0000000000000000
0000000000000000
0000000000000000
0000000000000000
0000000000000000
0000000000000000
0000000000000000
ENDCHAR
STARTCHAR U+00C2
ENCODING 194
SWIDTH 1000 0
BBX 60 40 0 -8
DWIDTH 60 0
BITMAP
000FFFFF80000000
000FFFFF80000000
000FFFFF80000000
000FFFFF80000000
03FE0003FE000000
03FE0003FE000000
03FE0003FE000000
03FE0003FE000000
00003FE000000000
00003FE000000000
00003FE000000000
00003FE000000000
000FF8FF80000000
000FF8FF80000000
000FF8FF80000000
000FF8FF80000000
03FE0003FE000000
03FE0003FE000000
03FE0003FE000000
03FE0003FE000000
FFFFFFFFFFF80000
FFFFFFFFFFF80000
FFFFFFFFFFF80000
FFFFFFFFFFF80000
FF8000000FF80000
FF8000000FF80000
FF8000000FF80000
FF8000000FF80000
FF8000000FF80000
FF8000000FF80000
FF8000000FF80000
FF8000000FF80000
0000000000000000
0000000000000000
0000000000000000
0000000000000000
0000000000000000
0000000000000000
0000000000000000
0000000000000000
ENDCHAR
STARTCHAR U+00C1
ENCODING 193
SWIDTH 1000 0
BBX 60 40 0 -8
DWIDTH 60 0
BITMAP
00003FFF80000000
00003FFF80000000
00003FFF80000000
00003FFF80000000
03FFF80000000000
03FFF80000000000
03FFF80000000000
03FFF80000000000
00003FE000000000
00003FE000000000
00003FE000000000
00003FE000000000
000FF8FF80000000
000FF8FF80000000
000FF8FF80000000
000FF8FF80000000
03FE0003FE000000
03FE0003FE000000
03FE0003FE000000
03FE0003FE000000
FFFFFFFFFFF80000
FFFFFFFFFFF80000
FFFFFFFFFFF80000
FFFFFFFFFFF80000
FF8000000FF80000
FF8000000FF80000
FF8000000FF80000
FF8000000FF80000
FF8000000FF80000
FF8000000FF80000
FF8000000FF80000
FF8000000FF80000
0000000000000000
0000000000000000
0000000000000000
0000000000000000
0000000000000000
0000000000000000
0000000000000000
0000000000000000
ENDCHAR
STARTCHAR U+00C0
ENCODING 192
SWIDTH 1000 0
BBX 60 40 0 -8
DWIDTH 60 0
BITMAP
000FFFE000000000
000FFFE000000000
000FFFE000000000
000FFFE000000000
000000FFFE000000
000000FFFE000000
000000FFFE000000
000000FFFE000000
00003FE000000000
00003FE000000000
00003FE000000000
00003FE000000000
000FF8FF80000000
000FF8FF80000000
000FF8FF80000000
000FF8FF80000000
03FE0003FE000000
03FE0003FE000000
03FE0003FE000000
03FE0003FE000000
FFFFFFFFFFF80000
FFFFFFFFFFF80000
FFFFFFFFFFF80000
FFFFFFFFFFF80000
FF8000000FF80000
FF8000000FF80000
FF8000000FF80000
FF8000000FF80000
FF8000000FF80000
FF8000000FF80000
FF8000000FF80000
FF8000000FF80000
0000000000000000
0000000000000000
0000000000000000
0000000000000000
0000000000000000
0000000000000000
0000000000000000
0000000000000000
ENDCHAR
STARTCHAR U+00BF
ENCODING 191
SWIDTH 1000 0
BBX 60 40 0 -8
DWIDTH 60 0
BITMAP
0000000000000000
0000000000000000
0000000000000000
0000000000000000
00003FE000000000
00003FE000000000
00003FE000000000
00003FE000000000
0000000000000000
0000000000000000
0000000000000000
0000000000000000
00003FE000000000
00003FE000000000
00003FE000000000
00003FE000000000
00003FE000000000
00003FE000000000
00003FE000000000
00003FE000000000
03FFF80000000000
03FFF80000000000
03FFF80000000000
03FFF80000000000
FF8000000FF80000
FF8000000FF80000
FF8000000FF80000
FF8000000FF80000
03FFFFFFFE000000
03FFFFFFFE000000
03FFFFFFFE000000
03FFFFFFFE000000
0000000000000000
0000000000000000
0000000000000000
0000000000000000
0000000000000000
0000000000000000
0000000000000000
0000000000000000
ENDCHAR
STARTCHAR U+00BE
ENCODING 190
SWIDTH 1000 0
BBX 60 40 0 -8
DWIDTH 60 0
BITMAP
0000000000000000
0000000000000000
0000000000000000
0000000000000000
FFFFF80000000000
FFFFF80000000000
FFFFF80000000000
FFFFF80000000000
FF803FE000000000
FF803FE000000000
FF803FE000000000
FF803FE000000000
FFFFF80000000000
FFFFF80000000000
FFFFF80000000000
FFFFF80000000000
FF803FE000000000
FF803FE000000000
FF803FE000000000
FF803FE000000000
FFFFFFFFFFF80000
FFFFFFFFFFF80000
FFFFFFFFFFF80000
FFFFFFFFFFF80000
00003FE000000000
00003FE000000000
00003FE000000000
00003FE000000000
00003FFFFE000000
00003FFFFE000000
00003FFFFE000000
00003FFFFE000000
00003FE000000000
00003FE000000000
00003FE000000000
00003FE000000000
00003FFFFFF80000
00003FFFFFF80000
00003FFFFFF80000
00003FFFFFF80000
ENDCHAR
STARTCHAR U+00BD
ENCODING 189
SWIDTH 1000 0
BBX 60 40 0 -8
DWIDTH 60 0
BITMAP
0000000000000000
0000000000000000
0000000000000000
0000000000000000
03FE000000000000
03FE000000000000
03FE000000000000
03FE000000000000
FFFE0003FE000000
FFFE0003FE000000
FFFE0003FE000000
FFFE0003FE000000
03FE00FF80000000
03FE00FF80000000
03FE00FF80000000
03FE00FF80000000
03FE3FE000000000
03FE3FE000000000
03FE3FE000000000
03FE3FE000000000
000FF8FFFE000000
000FF8FFFE000000
000FF8FFFE000000
000FF8FFFE000000
03FE3FE00FF80000
03FE3FE00FF80000
03FE3FE00FF80000
03FE3FE00FF80000
FF800003FE000000
FF800003FE000000
FF800003FE000000
FF800003FE000000
000000FF80000000
000000FF80000000
000000FF80000000
000000FF80000000
00003FFFFFF80000
00003FFFFFF80000
00003FFFFFF80000
00003FFFFFF80000
ENDCHAR
STARTCHAR U+00BC
ENCODING 188
SWIDTH 1000 0
BBX 60 40 0 -8
DWIDTH 60 0
BITMAP
0000000000000000
0000000000000000
0000000000000000
0000000000000000
03FE000000000000
03FE000000000000
03FE000000000000
03FE000000000000
FFFE0003FE000000
FFFE0003FE000000
FFFE0003FE000000
FFFE0003FE000000
03FE00FF80000000
03FE00FF80000000
03FE00FF80000000
03FE00FF80000000
03FE3FE000000000
03FE3FE000000000
03FE3FE000000000
03FE3FE000000000
000FF803FE000000
000FF803FE000000
000FF803FE000000
000FF803FE000000
03FE00FFFE000000
03FE00FFFE000000
03FE00FFFE000000
03FE00FFFE000000
FF803FE3FE000000
FF803FE3FE000000
FF803FE3FE000000
FF803FE3FE000000
000FFFFFFFF80000
000FFFFFFFF80000
000FFFFFFFF80000
000FFFFFFFF80000
00000003FE000000
00000003FE000000
00000003FE000000
00000003FE000000
ENDCHAR
STARTCHAR U+00BB
ENCODING 187
SWIDTH 1000 0
BBX 60 40 0 -8
DWIDTH 60 0
BITMAP
0000000000000000
0000000000000000
0000000000000000
0000000000000000
FF803FE000000000
FF803FE000000000
FF803FE000000000
FF803FE000000000
03FE00FF80000000
03FE00FF80000000
03FE00FF80000000
03FE00FF80000000
000FF803FE000000
000FF803FE000000
000FF803FE000000
000FF803FE000000
00003FE00FF80000
00003FE00FF80000
00003FE00FF80000
00003FE00FF80000
000FF803FE000000
000FF803FE000000
000FF803FE000000
000FF803FE000000
03FE00FF80000000
03FE00FF80000000
03FE00FF80000000
03FE00FF80000000
FF803FE000000000
FF803FE000000000
FF803FE000000000
FF803FE000000000
0000000000000000
0000000000000000
0000000000000000
0000000000000000
0000000000000000
0000000000000000
0000000000000000
0000000000000000
ENDCHAR
STARTCHAR U+00BA
ENCODING 186
SWIDTH 1000 0
BBX 60 40 0 -8
DWIDTH 60 0
BITMAP
0000000000000000
0000000000000000
0000000000000000
0000000000000000
03FFFFFFFE000000
03FFFFFFFE000000
03FFFFFFFE000000
03FFFFFFFE000000
FF8000000FF80000
FF8000000FF80000
FF8000000FF80000
FF8000000FF80000
FF8000000FF80000
FF8000000FF80000
FF8000000FF80000
FF8000000FF80000
FF8000000FF80000
FF8000000FF80000
FF8000000FF80000
FF8000000FF80000
03FFFFFFFE000000
03FFFFFFFE000000
03FFFFFFFE000000
03FFFFFFFE000000
0000000000000000
0000000000000000
0000000000000000
0000000000000000
FFFFFFFFFFF80000
FFFFFFFFFFF80000
FFFFFFFFFFF80000
FFFFFFFFFFF80000
0000000000000000
0000000000000000
0000000000000000
0000000000000000
0000000000000000
0000000000000000
0000000000000000
0000000000000000
ENDCHAR
STARTCHAR U+00B9
ENCODING 185
SWIDTH 1000 0
BBX 60 40 0 -8
DWIDTH 60 0
BITMAP
00003FE000000000
00003FE000000000
00003FE000000000
00003FE000000000
000FFFE000000000
000FFFE000000000
000FFFE000000000
000FFFE000000000
00003FE000000000
00003FE000000000
00003FE000000000
00003FE000000000
00003FE000000000
00003FE000000000
00003FE000000000
00003FE000000000
000FFFFF80000000
000FFFFF80000000
000FFFFF80000000
000FFFFF80000000
0000000000000000
0000000000000000
0000000000000000
0000000000000000
0000000000000000
0000000000000000
0000000000000000
0000000000000000
0000000000000000
0000000000000000
0000000000000000
0000000000000000
0000000000000000
0000000000000000
0000000000000000
0000000000000000
0000000000000000
0000000000000000
0000000000000000
0000000000000000
ENDCHAR
STARTCHAR U+00B8
ENCODING 184
SWIDTH 1000 0
BBX 60 40 0 -8
DWIDTH 60 0
BITMAP
0000000000000000
0000000000000000
0000000000000000
0000000000000000
FFFFF80000000000
FFFFF80000000000
FFFFF80000000000
FFFFF80000000000
FF803FE000000000
FF803FE000000000
FF803FE000000000
FF803FE000000000
FFFFF80000000000
FFFFF80000000000
FFFFF80000000000
FFFFF80000000000
FF803FE000000000
FF803FE000000000
FF803FE000000000
FF803FE000000000
FFFFF8FFFE000000
FFFFF8FFFE000000
FFFFF8FFFE000000
FFFFF8FFFE000000
00003FE00FF80000
00003FE00FF80000
00003FE00FF80000
00003FE00FF80000
000000FFFE000000
000000FFFE000000
000000FFFE000000
000000FFFE000000
00003FE00FF80000
00003FE00FF80000
00003FE00FF80000
00003FE00FF80000
000000FFFE000000
000000FFFE000000
000000FFFE000000
000000FFFE000000
ENDCHAR
STARTCHAR U+00B7
ENCODING 183
SWIDTH 1000 0
BBX 60 40 0 -8
DWIDTH 60 0
BITMAP
0000000000000000
0000000000000000
0000000000000000
0000000000000000
0000000000000000
0000000000000000
0000000000000000
0000000000000000
0000000000000000
0000000000000000
0000000000000000
0000000000000000
000FFFE000000000
000FFFE000000000
000FFFE000000000
000FFFE000000000
000FFFE000000000
000FFFE000000000
000FFFE000000000
000FFFE000000000
0000000000000000
0000000000000000
0000000000000000
0000000000000000
0000000000000000
0000000000000000
0000000000000000
0000000000000000
0000000000000000
0000000000000000
0000000000000000
0000000000000000
0000000000000000
0000000000000000
0000000000000000
0000000000000000
0000000000000000
0000000000000000
0000000000000000
0000000000000000
ENDCHAR
STARTCHAR U+00B6
ENCODING 182
SWIDTH 1000 0
BBX 60 40 0 -8
DWIDTH 60 0
BITMAP
0000000000000000
0000000000000000
0000000000000000
0000000000000000
03FFFFFFFFF80000
03FFFFFFFFF80000
03FFFFFFFFF80000
03FFFFFFFFF80000
FFFE00FF8FF80000
FFFE00FF8FF80000
FFFE00FF8FF80000
FFFE00FF8FF80000
FFFE00FF8FF80000
FFFE00FF8FF80000
FFFE00FF8FF80000
FFFE00FF8FF80000
03FFFFFFFFF80000
03FFFFFFFFF80000
03FFFFFFFFF80000
03FFFFFFFFF80000
000000FF8FF80000
000000FF8FF80000
000000FF8FF80000
000000FF8FF80000
000000FF8FF80000
000000FF8FF80000
000000FF8FF80000
000000FF8FF80000
000000FF8FF80000
000000FF8FF80000
000000FF8FF80000
000000FF8FF80000
0000000000000000
0000000000000000
0000000000000000
0000000000000000
0000000000000000
0000000000000000
0000000000000000
0000000000000000
ENDCHAR
STARTCHAR U+00B5
ENCODING 181
SWIDTH 1000 0
BBX 60 40 0 -8
DWIDTH 60 0
BITMAP
0000000000000000
0000000000000000
0000000000000000
0000000000000000
0000000000000000
0000000000000000
0000000000000000
0000000000000000
0000000000000000
0000000000000000
0000000000000000
0000000000000000
03FE00000FF80000
03FE00000FF80000
03FE00000FF80000
03FE00000FF80000
03FE00000FF80000
03FE00000FF80000
03FE00000FF80000
03FE00000FF80000
03FE00000FF80000
03FE00000FF80000
03FE00000FF80000
03FE00000FF80000
03FFF803FFF80000
03FFF803FFF80000
03FFF803FFF80000
03FFF803FFF80000
03FE3FFF8FF80000
03FE3FFF8FF80000
03FE3FFF8FF80000
03FE3FFF8FF80000
03FE000000000000
03FE000000000000
03FE000000000000
03FE000000000000
FF80000000000000
FF80000000000000
FF80000000000000
FF80000000000000
ENDCHAR
STARTCHAR U+00B4
ENCODING 180
SWIDTH 1000 0
BBX 60 40 0 -8
DWIDTH 60 0
BITMAP
0000000000000000
0000000000000000
0000000000000000
0000000000000000
FFFFF80000000000
FFFFF80000000000
FFFFF80000000000
FFFFF80000000000
FF803FE000000000
FF803FE000000000
FF803FE000000000
FF803FE000000000
FFFFF80000000000
FFFFF80000000000
FFFFF80000000000
FFFFF80000000000
FF803FE000000000
FF803FE000000000
FF803FE000000000
FF803FE000000000
FFFFF803FE000000
FFFFF803FE000000
FFFFF803FE000000
FFFFF803FE000000
000000FFFE000000
000000FFFE000000
000000FFFE000000
000000FFFE000000
00003FE3FE000000
00003FE3FE000000
00003FE3FE000000
00003FE3FE000000
000FFFFFFFF80000
000FFFFFFFF80000
000FFFFFFFF80000
000FFFFFFFF80000
00000003FE000000
00000003FE000000
00000003FE000000
00000003FE000000
ENDCHAR
STARTCHAR U+00B3
ENCODING 179
SWIDTH 1000 0
BBX 60 40 0 -8
DWIDTH 60 0
BITMAP
03FFFFFFFE000000
03FFFFFFFE000000
03FFFFFFFE000000
03FFFFFFFE000000
00000003FE000000
00000003FE000000
00000003FE000000
00000003FE000000
00003FFF80000000
00003FFF80000000
00003FFF80000000
00003FFF80000000
00000003FE000000
00000003FE000000
00000003FE000000
00000003FE000000
03FFFFFF80000000
03FFFFFF80000000
03FFFFFF80000000
03FFFFFF80000000
0000000000000000
0000000000000000
0000000000000000
0000000000000000
0000000000000000
0000000000000000
0000000000000000
0000000000000000
0000000000000000
0000000000000000
0000000000000000
0000000000000000
0000000000000000
0000000000000000
0000000000000000
0000000000000000
0000000000000000
0000000000000000
0000000000000000
0000000000000000
ENDCHAR
STARTCHAR U+00B2
ENCODING 178
SWIDTH 1000 0
BBX 60 40 0 -8
DWIDTH 60 0
BITMAP
000FFFFF80000000
000FFFFF80000000
000FFFFF80000000
000FFFFF80000000
03FE0003FE000000
03FE0003FE000000
03FE0003FE000000
03FE0003FE000000
00003FFF80000000
00003FFF80000000
00003FFF80000000
00003FFF80000000
000FF80000000000
000FF80000000000
000FF80000000000
000FF80000000000
03FFFFFFFE000000
03FFFFFFFE000000
03FFFFFFFE000000
03FFFFFFFE000000
0000000000000000
0000000000000000
0000000000000000
0000000000000000
0000000000000000
0000000000000000
0000000000000000
0000000000000000
0000000000000000
0000000000000000
0000000000000000
0000000000000000
0000000000000000
0000000000000000
0000000000000000
0000000000000000
0000000000000000
0000000000000000
0000000000000000
0000000000000000
ENDCHAR
STARTCHAR U+00B1
ENCODING 177
SWIDTH 1000 0
BBX 60 40 0 -8
DWIDTH 60 0
BITMAP
0000000000000000
0000000000000000
0000000000000000
0000000000000000
0000000000000000
0000000000000000
0000000000000000
0000000000000000
00003FE000000000
00003FE000000000
00003FE000000000
00003FE000000000
00003FE000000000
00003FE000000000
00003FE000000000
00003FE000000000
FFFFFFFFFFF80000
FFFFFFFFFFF80000
FFFFFFFFFFF80000
FFFFFFFFFFF80000
00003FE000000000
00003FE000000000
00003FE000000000
00003FE000000000
00003FE000000000
00003FE000000000
00003FE000000000
00003FE000000000
FFFFFFFFFFF80000
FFFFFFFFFFF80000
FFFFFFFFFFF80000
FFFFFFFFFFF80000
0000000000000000
0000000000000000
0000000000000000
0000000000000000
0000000000000000
0000000000000000
0000000000000000
0000000000000000
ENDCHAR
STARTCHAR U+00B0
ENCODING 176
SWIDTH 1000 0
BBX 60 40 0 -8
DWIDTH 60 0
BITMAP
0000000000000000
0000000000000000
0000000000000000
0000000000000000
000FFFFF80000000
000FFFFF80000000
000FFFFF80000000
000FFFFF80000000
03FE0003FE000000
03FE0003FE000000
03FE0003FE000000
03FE0003FE000000
000FFFFF80000000
000FFFFF80000000
000FFFFF80000000
000FFFFF80000000
0000000000000000
0000000000000000
0000000000000000
0000000000000000
0000000000000000
0000000000000000
0000000000000000
0000000000000000
0000000000000000
0000000000000000
0000000000000000
0000000000000000
0000000000000000
0000000000000000
0000000000000000
0000000000000000
0000000000000000
0000000000000000
0000000000000000
0000000000000000
0000000000000000
0000000000000000
0000000000000000
0000000000000000
ENDCHAR
STARTCHAR U+00AF
ENCODING 175
SWIDTH 1000 0
BBX 60 40 0 -8
DWIDTH 60 0
BITMAP
0000000000000000
0000000000000000
0000000000000000
0000000000000000
03FFF80000000000
03FFF80000000000
03FFF80000000000
03FFF80000000000
FF803FE000000000
FF803FE000000000
FF803FE000000000
FF803FE000000000
FFFFFFE000000000
FFFFFFE000000000
FFFFFFE000000000
FFFFFFE000000000
FF803FE000000000
FF803FE000000000
FF803FE000000000
FF803FE000000000
FF803FFFFFF80000
FF803FFFFFF80000
FF803FFFFFF80000
FF803FFFFFF80000
00003FE000000000
00003FE000000000
00003FE000000000
00003FE000000000
00003FFFFE000000
00003FFFFE000000
00003FFFFE000000
00003FFFFE000000
00003FE000000000
00003FE000000000
00003FE000000000
00003FE000000000
00003FE000000000
00003FE000000000
00003FE000000000
00003FE000000000
ENDCHAR
STARTCHAR U+00AE
ENCODING 174
SWIDTH 1000 0
BBX 60 40 0 -8
DWIDTH 60 0
BITMAP
0000000000000000
0000000000000000
0000000000000000
0000000000000000
03FFF80000000000
03FFF80000000000
03FFF80000000000
03FFF80000000000
FF803FE000000000
FF803FE000000000
FF803FE000000000
FF803FE000000000
FFFFFFE000000000
FFFFFFE000000000
FFFFFFE000000000
FFFFFFE000000000
FF803FE000000000
FF803FE000000000
FF803FE000000000
FF803FE000000000
FF803FFFFFF80000
FF803FFFFFF80000
FF803FFFFFF80000
FF803FFFFFF80000
00003FE000000000
00003FE000000000
00003FE000000000
00003FE000000000
00003FFFFE000000
00003FFFFE000000
00003FFFFE000000
00003FFFFE000000
00003FE000000000
00003FE000000000
00003FE000000000
00003FE000000000
00003FFFFFF80000
00003FFFFFF80000
00003FFFFFF80000
00003FFFFFF80000
ENDCHAR
STARTCHAR U+00AC
ENCODING 172
SWIDTH 1000 0
BBX 60 40 0 -8
DWIDTH 60 0
BITMAP
0000000000000000
0000000000000000
0000000000000000
0000000000000000
03FFF80000000000
03FFF80000000000
03FFF80000000000
03FFF80000000000
FF803FE000000000
FF803FE000000000
FF803FE000000000
FF803FE000000000
FFFFFFE000000000
FFFFFFE000000000
FFFFFFE000000000
FFFFFFE000000000
FF803FE000000000
FF803FE000000000
FF803FE000000000
FF803FE000000000
FF803FFFFFF80000
FF803FFFFFF80000
FF803FFFFFF80000
FF803FFFFFF80000
00003FE000000000
00003FE000000000
00003FE000000000
00003FE000000000
00003FE000000000
00003FE000000000
00003FE000000000
00003FE000000000
00003FE000000000
00003FE000000000
00003FE000000000
00003FE000000000
000000FFFFF80000
000000FFFFF80000
000000FFFFF80000
000000FFFFF80000
ENDCHAR
STARTCHAR U+00AB
ENCODING 171
SWIDTH 1000 0
BBX 60 40 0 -8
DWIDTH 60 0
BITMAP
0000000000000000
0000000000000000
0000000000000000
0000000000000000
00003FE00FF80000
00003FE00FF80000
00003FE00FF80000
00003FE00FF80000
000FF803FE000000
000FF803FE000000
000FF803FE000000
000FF803FE000000
03FE00FF80000000
03FE00FF80000000
03FE00FF80000000
03FE00FF80000000
FF803FE000000000
FF803FE000000000
FF803FE000000000
FF803FE000000000
03FE00FF80000000
03FE00FF80000000
03FE00FF80000000
03FE00FF80000000
000FF803FE000000
000FF803FE000000
000FF803FE000000
000FF803FE000000
00003FE00FF80000
00003FE00FF80000
00003FE00FF80000
00003FE00FF80000
0000000000000000
0000000000000000
0000000000000000
0000000000000000
0000000000000000
0000000000000000
0000000000000000
0000000000000000
ENDCHAR
STARTCHAR U+00AA
ENCODING 170
SWIDTH 1000 0
BBX 60 40 0 -8
DWIDTH 60 0
BITMAP
0000000000000000
0000000000000000
0000000000000000
0000000000000000
03FFFFFFFE000000
03FFFFFFFE000000
03FFFFFFFE000000
03FFFFFFFE000000
000000000FF80000
000000000FF80000
000000000FF80000
000000000FF80000
03FFFFFFFFF80000
03FFFFFFFFF80000
03FFFFFFFFF80000
03FFFFFFFFF80000
FF800003FFF80000
FF800003FFF80000
FF800003FFF80000
FF800003FFF80000
03FFFFFF8FF80000
03FFFFFF8FF80000
03FFFFFF8FF80000
03FFFFFF8FF80000
0000000000000000
0000000000000000
0000000000000000
0000000000000000
FFFFFFFFFFF80000
FFFFFFFFFFF80000
FFFFFFFFFFF80000
FFFFFFFFFFF80000
0000000000000000
0000000000000000
0000000000000000
0000000000000000
0000000000000000
0000000000000000
0000000000000000
0000000000000000
ENDCHAR
STARTCHAR U+00A9
ENCODING 169
SWIDTH 1000 0
BBX 60 40 0 -8
DWIDTH 60 0
BITMAP
0000000000000000
0000000000000000
0000000000000000
0000000000000000
000FFFFF80000000
000FFFFF80000000
000FFFFF80000000
000FFFFF80000000
03FE0003FE000000
03FE0003FE000000
03FE0003FE000000
03FE0003FE000000
FF803FFF8FF80000
FF803FFF8FF80000
FF803FFF8FF80000
FF803FFF8FF80000
FF8FF8000FF80000
FF8FF8000FF80000
FF8FF8000FF80000
FF8FF8000FF80000
FF8FF8000FF80000
FF8FF8000FF80000
FF8FF8000FF80000
FF8FF8000FF80000
FF803FFF8FF80000
FF803FFF8FF80000
FF803FFF8FF80000
FF803FFF8FF80000
03FE0003FE000000
03FE0003FE000000
03FE0003FE000000
03FE0003FE000000
000FFFFF80000000
000FFFFF80000000
000FFFFF80000000
000FFFFF80000000
0000000000000000
0000000000000000
0000000000000000
0000000000000000
ENDCHAR
STARTCHAR U+00A4
ENCODING 164
SWIDTH 1000 0
BBX 60 40 0 -8
DWIDTH 60 0
BITMAP
0000000000000000
0000000000000000
0000000000000000
0000000000000000
0000000000000000
0000000000000000
0000000000000000
0000000000000000
FF8000000FF80000
FF8000000FF80000
FF8000000FF80000
FF8000000FF80000
03FFFFFFFE000000
03FFFFFFFE000000
03FFFFFFFE000000
03FFFFFFFE000000
03FE0003FE000000
03FE0003FE000000
03FE0003FE000000
03FE0003FE000000
03FFFFFFFE000000
03FFFFFFFE000000
03FFFFFFFE000000
03FFFFFFFE000000
FF8000000FF80000
FF8000000FF80000
FF8000000FF80000
FF8000000FF80000
0000000000000000
0000000000000000
0000000000000000
0000000000000000
0000000000000000
0000000000000000
0000000000000000
0000000000000000
0000000000000000
0000000000000000
0000000000000000
0000000000000000
ENDCHAR
STARTCHAR U+00A7
ENCODING 167
SWIDTH 1000 0
BBX 60 40 0 -8
DWIDTH 60 0
BITMAP
0000000000000000
0000000000000000
0000000000000000
0000000000000000
000FFFFFFE000000
000FFFFFFE000000
000FFFFFFE000000
000FFFFFFE000000
03FE000000000000
03FE000000000000
03FE000000000000
03FE000000000000
000FFFFF80000000
000FFFFF80000000
000FFFFF80000000
000FFFFF80000000
03FE0003FE000000
03FE0003FE000000
03FE0003FE000000
03FE0003FE000000
000FFFFF80000000
000FFFFF80000000
000FFFFF80000000
000FFFFF80000000
00000003FE000000
00000003FE000000
00000003FE000000
00000003FE000000
03FFFFFF80000000
03FFFFFF80000000
03FFFFFF80000000
03FFFFFF80000000
0000000000000000
0000000000000000
0000000000000000
0000000000000000
0000000000000000
0000000000000000
0000000000000000
0000000000000000
ENDCHAR
STARTCHAR U+00A6
ENCODING 166
SWIDTH 1000 0
BBX 60 40 0 -8
DWIDTH 60 0
BITMAP
0000000000000000
0000000000000000
0000000000000000
0000000000000000
03FFF80000000000
03FFF80000000000
03FFF80000000000
03FFF80000000000
FF803FE000000000
FF803FE000000000
FF803FE000000000
FF803FE000000000
FFFFFFE000000000
FFFFFFE000000000
FFFFFFE000000000
FFFFFFE000000000
FF803FE000000000
FF803FE000000000
FF803FE000000000
FF803FE000000000
FF803FE3FFF80000
FF803FE3FFF80000
FF803FE3FFF80000
FF803FE3FFF80000
000000FF80000000
000000FF80000000
000000FF80000000
000000FF80000000
00003FFFFE000000
00003FFFFE000000
00003FFFFE000000
00003FFFFE000000
00003FE00FF80000
00003FE00FF80000
00003FE00FF80000
00003FE00FF80000
000000FFFE000000
000000FFFE000000
000000FFFE000000
000000FFFE000000
ENDCHAR
STARTCHAR U+00A5
ENCODING 165
SWIDTH 1000 0
BBX 60 40 0 -8
DWIDTH 60 0
BITMAP
0000000000000000
0000000000000000
0000000000000000
0000000000000000
FF8000000FF80000
FF8000000FF80000
FF8000000FF80000
FF8000000FF80000
03FE0003FE000000
03FE0003FE000000
03FE0003FE000000
03FE0003FE000000
000FF8FF80000000
000FF8FF80000000
000FF8FF80000000
000FF8FF80000000
00003FE000000000
00003FE000000000
00003FE000000000
00003FE000000000
FFFFFFFFFFF80000
FFFFFFFFFFF80000
FFFFFFFFFFF80000
FFFFFFFFFFF80000
00003FE000000000
00003FE000000000
00003FE000000000
00003FE000000000
00003FE000000000
00003FE000000000
00003FE000000000
00003FE000000000
0000000000000000
0000000000000000
0000000000000000
0000000000000000
0000000000000000
0000000000000000
0000000000000000
0000000000000000
ENDCHAR
STARTCHAR U+00A8
ENCODING 168
SWIDTH 1000 0
BBX 60 40 0 -8
DWIDTH 60 0
BITMAP
0000000000000000
0000000000000000
0000000000000000
0000000000000000
03FFF80000000000
03FFF80000000000
03FFF80000000000
03FFF80000000000
FF803FE000000000
FF803FE000000000
FF803FE000000000
FF803FE000000000
FFFFFFE000000000
FFFFFFE000000000
FFFFFFE000000000
FFFFFFE000000000
FF803FE000000000
FF803FE000000000
FF803FE000000000
FF803FE000000000
FF803FE3FE000000
FF803FE3FE000000
FF803FE3FE000000
FF803FE3FE000000
000000FFFE000000
000000FFFE000000
000000FFFE000000
000000FFFE000000
00003FE3FE000000
00003FE3FE000000
00003FE3FE000000
00003FE3FE000000
000FFFFFFFF80000
000FFFFFFFF80000
000FFFFFFFF80000
000FFFFFFFF80000
00000003FE000000
00000003FE000000
00000003FE000000
00000003FE000000
ENDCHAR
STARTCHAR U+00A3
ENCODING 163
SWIDTH 1000 0
BBX 60 40 0 -8
DWIDTH 60 0
BITMAP
0000000000000000
0000000000000000
0000000000000000
0000000000000000
00003FFFFE000000
00003FFFFE000000
00003FFFFE000000
00003FFFFE000000
000FF8000FF80000
000FF8000FF80000
000FF8000FF80000
000FF8000FF80000
000FF80000000000
000FF80000000000
000FF80000000000
000FF80000000000
FFFFFFFF80000000
FFFFFFFF80000000
FFFFFFFF80000000
FFFFFFFF80000000
000FF80000000000
000FF80000000000
000FF80000000000
000FF80000000000
03FFFFFF80000000
03FFFFFF80000000
03FFFFFF80000000
03FFFFFF80000000
FF8FF803FFF80000
FF8FF803FFF80000
FF8FF803FFF80000
FF8FF803FFF80000
03FE000000000000
03FE000000000000
03FE000000000000
03FE000000000000
0000000000000000
0000000000000000
0000000000000000
0000000000000000
ENDCHAR
STARTCHAR U+00A2
ENCODING 162
SWIDTH 1000 0
BBX 60 40 0 -8
DWIDTH 60 0
BITMAP
0000000000000000
0000000000000000
0000000000000000
0000000000000000
0000000000000000
0000000000000000
0000000000000000
0000000000000000
00003FE000000000
00003FE000000000
00003FE000000000
00003FE000000000
03FFFFFFFE000000
03FFFFFFFE000000
03FFFFFFFE000000
03FFFFFFFE000000
FF803FE00FF80000
FF803FE00FF80000
FF803FE00FF80000
FF803FE00FF80000
FF803FE000000000
FF803FE000000000
FF803FE000000000
FF803FE000000000
FF803FE00FF80000
FF803FE00FF80000
FF803FE00FF80000
FF803FE00FF80000
03FFFFFFFE000000
03FFFFFFFE000000
03FFFFFFFE000000
03FFFFFFFE000000
00003FE000000000
00003FE000000000
00003FE000000000
00003FE000000000
0000000000000000
0000000000000000
0000000000000000
0000000000000000
ENDCHAR
STARTCHAR U+00A1
ENCODING 161
SWIDTH 1000 0
BBX 60 40 0 -8
DWIDTH 60 0
BITMAP
0000000000000000
0000000000000000
0000000000000000
0000000000000000
00003FE000000000
00003FE000000000
00003FE000000000
00003FE000000000
0000000000000000
0000000000000000
0000000000000000
0000000000000000
00003FE000000000
00003FE000000000
00003FE000000000
00003FE000000000
00003FE000000000
00003FE000000000
00003FE000000000
00003FE000000000
00003FE000000000
00003FE000000000
00003FE000000000
00003FE000000000
00003FE000000000
00003FE000000000
00003FE000000000
00003FE000000000
00003FE000000000
00003FE000000000
00003FE000000000
00003FE000000000
0000000000000000
0000000000000000
0000000000000000
0000000000000000
0000000000000000
0000000000000000
0000000000000000
0000000000000000
ENDCHAR
STARTCHAR U+007F
ENCODING 127
SWIDTH 1000 0
BBX 60 40 0 -8
DWIDTH 60 0
BITMAP
0000000000000000
0000000000000000
0000000000000000
0000000000000000
FFFFF80000000000
FFFFF80000000000
FFFFF80000000000
FFFFF80000000000
FF803FE000000000
FF803FE000000000
FF803FE000000000
FF803FE000000000
FF803FE000000000
FF803FE000000000
FF803FE000000000
FF803FE000000000
FF803FE000000000
FF803FE000000000
FF803FE000000000
FF803FE000000000
FFFFFFFF80000000
FFFFFFFF80000000
FFFFFFFF80000000
FFFFFFFF80000000
000FF80000000000
000FF80000000000
000FF80000000000
000FF80000000000
000FF80000000000
000FF80000000000
000FF80000000000
000FF80000000000
000FF80000000000
000FF80000000000
000FF80000000000
000FF80000000000
000FF80000000000
000FF80000000000
000FF80000000000
000FF80000000000
ENDCHAR
STARTCHAR U+007E
ENCODING 126
SWIDTH 1000 0
BBX 60 40 0 -8
DWIDTH 60 0
BITMAP
0000000000000000
0000000000000000
0000000000000000
0000000000000000
03FFF8000FF80000
03FFF8000FF80000
03FFF8000FF80000
03FFF8000FF80000
FF803FE00FF80000
FF803FE00FF80000
FF803FE00FF80000
FF803FE00FF80000
FF8000FFFE000000
FF8000FFFE000000
FF8000FFFE000000
FF8000FFFE000000
0000000000000000
0000000000000000
0000000000000000
0000000000000000
0000000000000000
0000000000000000
0000000000000000
0000000000000000
0000000000000000
0000000000000000
0000000000000000
0000000000000000
0000000000000000
0000000000000000
0000000000000000
0000000000000000
0000000000000000
0000000000000000
0000000000000000
0000000000000000
0000000000000000
0000000000000000
0000000000000000
0000000000000000
ENDCHAR
STARTCHAR U+007D
ENCODING 125
SWIDTH 1000 0
BBX 60 40 0 -8
DWIDTH 60 0
BITMAP
0000000000000000
0000000000000000
0000000000000000
0000000000000000
FFFFF80000000000
FFFFF80000000000
FFFFF80000000000
FFFFF80000000000
00003FE000000000
00003FE000000000
00003FE000000000
00003FE000000000
000FF80000000000
000FF80000000000
000FF80000000000
000FF80000000000
00003FFF80000000
00003FFF80000000
00003FFF80000000
00003FFF80000000
000FF80000000000
000FF80000000000
000FF80000000000
000FF80000000000
00003FE000000000
00003FE000000000
00003FE000000000
00003FE000000000
FFFFF80000000000
FFFFF80000000000
FFFFF80000000000
FFFFF80000000000
0000000000000000
0000000000000000
0000000000000000
0000000000000000
0000000000000000
0000000000000000
0000000000000000
0000000000000000
ENDCHAR
STARTCHAR U+007C
ENCODING 124
SWIDTH 1000 0
BBX 60 40 0 -8
DWIDTH 60 0
BITMAP
0000000000000000
0000000000000000
0000000000000000
0000000000000000
00003FE000000000
00003FE000000000
00003FE000000000
00003FE000000000
00003FE000000000
00003FE000000000
00003FE000000000
00003FE000000000
00003FE000000000
00003FE000000000
00003FE000000000
00003FE000000000
00003FE000000000
00003FE000000000
00003FE000000000
00003FE000000000
00003FE000000000
00003FE000000000
00003FE000000000
00003FE000000000
00003FE000000000
00003FE000000000
00003FE000000000
00003FE000000000
00003FE000000000
00003FE000000000
00003FE000000000
00003FE000000000
0000000000000000
0000000000000000
0000000000000000
0000000000000000
0000000000000000
0000000000000000
0000000000000000
0000000000000000
ENDCHAR
STARTCHAR U+007B
ENCODING 123
SWIDTH 1000 0
BBX 60 40 0 -8
DWIDTH 60 0
BITMAP
0000000000000000
0000000000000000
0000000000000000
0000000000000000
000000FFFFF80000
000000FFFFF80000
000000FFFFF80000
000000FFFFF80000
00003FE000000000
00003FE000000000
00003FE000000000
00003FE000000000
000000FF80000000
000000FF80000000
000000FF80000000
000000FF80000000
000FFFE000000000
000FFFE000000000
000FFFE000000000
000FFFE000000000
000000FF80000000
000000FF80000000
000000FF80000000
000000FF80000000
00003FE000000000
00003FE000000000
00003FE000000000
00003FE000000000
000000FFFFF80000
000000FFFFF80000
000000FFFFF80000
000000FFFFF80000
0000000000000000
0000000000000000
0000000000000000
0000000000000000
0000000000000000
0000000000000000
0000000000000000
0000000000000000
ENDCHAR
STARTCHAR U+007A
ENCODING 122
SWIDTH 1000 0
BBX 60 40 0 -8
DWIDTH 60 0
BITMAP
0000000000000000
0000000000000000
0000000000000000
0000000000000000
0000000000000000
0000000000000000
0000000000000000
0000000000000000
0000000000000000
0000000000000000
0000000000000000
0000000000000000
FFFFFFFFFFF80000
FFFFFFFFFFF80000
FFFFFFFFFFF80000
FFFFFFFFFFF80000
00000003FE000000
00000003FE000000
00000003FE000000
00000003FE000000
00003FFF80000000
00003FFF80000000
00003FFF80000000
00003FFF80000000
000FF80000000000
000FF80000000000
000FF80000000000
000FF80000000000
FFFFFFFFFFF80000
FFFFFFFFFFF80000
FFFFFFFFFFF80000
FFFFFFFFFFF80000
0000000000000000
0000000000000000
0000000000000000
0000000000000000
0000000000000000
0000000000000000
0000000000000000
0000000000000000
ENDCHAR
STARTCHAR U+0079
ENCODING 121
SWIDTH 1000 0
BBX 60 40 0 -8
DWIDTH 60 0
BITMAP
0000000000000000
0000000000000000
0000000000000000
0000000000000000
0000000000000000
0000000000000000
0000000000000000
0000000000000000
0000000000000000
0000000000000000
0000000000000000
0000000000000000
FF800003FE000000
FF800003FE000000
FF800003FE000000
FF800003FE000000
FF800003FE000000
FF800003FE000000
FF800003FE000000
FF800003FE000000
FF8000FFFE000000
FF8000FFFE000000
FF8000FFFE000000
FF8000FFFE000000
03FFFFE3FE000000
03FFFFE3FE000000
03FFFFE3FE000000
03FFFFE3FE000000
00000003FE000000
00000003FE000000
00000003FE000000
00000003FE000000
FF800003FE000000
FF800003FE000000
FF800003FE000000
FF800003FE000000
03FFFFFF80000000
03FFFFFF80000000
03FFFFFF80000000
03FFFFFF80000000
ENDCHAR
STARTCHAR U+0078
ENCODING 120
SWIDTH 1000 0
BBX 60 40 0 -8
DWIDTH 60 0
BITMAP
0000000000000000
0000000000000000
0000000000000000
0000000000000000
0000000000000000
0000000000000000
0000000000000000
0000000000000000
0000000000000000
0000000000000000
0000000000000000
0000000000000000
FF800003FE000000
FF800003FE000000
FF800003FE000000
FF800003FE000000
03FE00FF80000000
03FE00FF80000000
03FE00FF80000000
03FE00FF80000000
000FFFE000000000
000FFFE000000000
000FFFE000000000
000FFFE000000000
03FE00FF80000000
03FE00FF80000000
03FE00FF80000000
03FE00FF80000000
FF800003FE000000
FF800003FE000000
FF800003FE000000
FF800003FE000000
0000000000000000
0000000000000000
0000000000000000
0000000000000000
0000000000000000
0000000000000000
0000000000000000
0000000000000000
ENDCHAR
STARTCHAR U+0077
ENCODING 119
SWIDTH 1000 0
BBX 60 40 0 -8
DWIDTH 60 0
BITMAP
0000000000000000
0000000000000000
0000000000000000
0000000000000000
0000000000000000
0000000000000000
0000000000000000
0000000000000000
0000000000000000
0000000000000000
0000000000000000
0000000000000000
FF8000000FF80000
FF8000000FF80000
FF8000000FF80000
FF8000000FF80000
FF8000000FF80000
FF8000000FF80000
FF8000000FF80000
FF8000000FF80000
FF803FE00FF80000
FF803FE00FF80000
FF803FE00FF80000
FF803FE00FF80000
FF8FF8FF8FF80000
FF8FF8FF8FF80000
FF8FF8FF8FF80000
FF8FF8FF8FF80000
03FE0003FE000000
03FE0003FE000000
03FE0003FE000000
03FE0003FE000000
0000000000000000
0000000000000000
0000000000000000
0000000000000000
0000000000000000
0000000000000000
0000000000000000
0000000000000000
ENDCHAR
STARTCHAR U+0076
ENCODING 118
SWIDTH 1000 0
BBX 60 40 0 -8
DWIDTH 60 0
BITMAP
0000000000000000
0000000000000000
0000000000000000
0000000000000000
0000000000000000
0000000000000000
0000000000000000
0000000000000000
0000000000000000
0000000000000000
0000000000000000
0000000000000000
FF8000000FF80000
FF8000000FF80000
FF8000000FF80000
FF8000000FF80000
FF8000000FF80000
FF8000000FF80000
FF8000000FF80000
FF8000000FF80000
03FE0003FE000000
03FE0003FE000000
03FE0003FE000000
03FE0003FE000000
000FF8FF80000000
000FF8FF80000000
000FF8FF80000000
000FF8FF80000000
00003FE000000000
00003FE000000000
00003FE000000000
00003FE000000000
0000000000000000
0000000000000000
0000000000000000
0000000000000000
0000000000000000
0000000000000000
0000000000000000
0000000000000000
ENDCHAR
STARTCHAR U+0075
ENCODING 117
SWIDTH 1000 0
BBX 60 40 0 -8
DWIDTH 60 0
BITMAP
0000000000000000
0000000000000000
0000000000000000
0000000000000000
0000000000000000
0000000000000000
0000000000000000
0000000000000000
0000000000000000
0000000000000000
0000000000000000
0000000000000000
FF800003FE000000
FF800003FE000000
FF800003FE000000
FF800003FE000000
FF800003FE000000
FF800003FE000000
FF800003FE000000
FF800003FE000000
FF800003FE000000
FF800003FE000000
FF800003FE000000
FF800003FE000000
FF800003FE000000
FF800003FE000000
FF800003FE000000
FF800003FE000000
03FFFFFF8FF80000
03FFFFFF8FF80000
03FFFFFF8FF80000
03FFFFFF8FF80000
0000000000000000
0000000000000000
0000000000000000
0000000000000000
0000000000000000
0000000000000000
0000000000000000
0000000000000000
ENDCHAR
STARTCHAR U+0074
ENCODING 116
SWIDTH 1000 0
BBX 60 40 0 -8
DWIDTH 60 0
BITMAP
0000000000000000
0000000000000000
0000000000000000
0000000000000000
000FF80000000000
000FF80000000000
000FF80000000000
000FF80000000000
000FF80000000000
000FF80000000000
000FF80000000000
000FF80000000000
FFFFFFFF80000000
FFFFFFFF80000000
FFFFFFFF80000000
FFFFFFFF80000000
000FF80000000000
000FF80000000000
000FF80000000000
000FF80000000000
000FF80000000000
000FF80000000000
000FF80000000000
000FF80000000000
000FF803FE000000
000FF803FE000000
000FF803FE000000
000FF803FE000000
00003FFF80000000
00003FFF80000000
00003FFF80000000
00003FFF80000000
0000000000000000
0000000000000000
0000000000000000
0000000000000000
0000000000000000
0000000000000000
0000000000000000
0000000000000000
ENDCHAR
STARTCHAR U+0073
ENCODING 115
SWIDTH 1000 0
BBX 60 40 0 -8
DWIDTH 60 0
BITMAP
0000000000000000
0000000000000000
0000000000000000
0000000000000000
0000000000000000
0000000000000000
0000000000000000
0000000000000000
0000000000000000
0000000000000000
0000000000000000
0000000000000000
03FFFFFFFE000000
03FFFFFFFE000000
03FFFFFFFE000000
03FFFFFFFE000000
FF80000000000000
FF80000000000000
FF80000000000000
FF80000000000000
03FFFFFFFE000000
03FFFFFFFE000000
03FFFFFFFE000000
03FFFFFFFE000000
000000000FF80000
000000000FF80000
000000000FF80000
000000000FF80000
FFFFFFFFFE000000
FFFFFFFFFE000000
FFFFFFFFFE000000
FFFFFFFFFE000000
0000000000000000
0000000000000000
0000000000000000
0000000000000000
0000000000000000
0000000000000000
0000000000000000
0000000000000000
ENDCHAR
STARTCHAR U+0072
ENCODING 114
SWIDTH 1000 0
BBX 60 40 0 -8
DWIDTH 60 0
BITMAP
0000000000000000
0000000000000000
0000000000000000
0000000000000000
0000000000000000
0000000000000000
0000000000000000
0000000000000000
0000000000000000
0000000000000000
0000000000000000
0000000000000000
FF803FFFFE000000
FF803FFFFE000000
FF803FFFFE000000
FF803FFFFE000000
03FFF8000FF80000
03FFF8000FF80000
03FFF8000FF80000
03FFF8000FF80000
03FE000000000000
03FE000000000000
03FE000000000000
03FE000000000000
03FE000000000000
03FE000000000000
03FE000000000000
03FE000000000000
03FE000000000000
03FE000000000000
03FE000000000000
03FE000000000000
0000000000000000
0000000000000000
0000000000000000
0000000000000000
0000000000000000
0000000000000000
0000000000000000
0000000000000000
ENDCHAR
STARTCHAR U+0071
ENCODING 113
SWIDTH 1000 0
BBX 60 40 0 -8
DWIDTH 60 0
BITMAP
0000000000000000
0000000000000000
0000000000000000
0000000000000000
0000000000000000
0000000000000000
0000000000000000
0000000000000000
0000000000000000
0000000000000000
0000000000000000
0000000000000000
03FFFFFF8FF80000
03FFFFFF8FF80000
03FFFFFF8FF80000
03FFFFFF8FF80000
FF800003FFF80000
FF800003FFF80000
FF800003FFF80000
FF800003FFF80000
FF800003FFF80000
FF800003FFF80000
FF800003FFF80000
FF800003FFF80000
03FFFFFF8FF80000
03FFFFFF8FF80000
03FFFFFF8FF80000
03FFFFFF8FF80000
000000000FF80000
000000000FF80000
000000000FF80000
000000000FF80000
000000000FF80000
000000000FF80000
000000000FF80000
000000000FF80000
000000000FF80000
000000000FF80000
000000000FF80000
000000000FF80000
ENDCHAR
STARTCHAR U+0070
ENCODING 112
SWIDTH 1000 0
BBX 60 40 0 -8
DWIDTH 60 0
BITMAP
0000000000000000
0000000000000000
0000000000000000
0000000000000000
0000000000000000
0000000000000000
0000000000000000
0000000000000000
0000000000000000
0000000000000000
0000000000000000
0000000000000000
FF8FFFFFFE000000
FF8FFFFFFE000000
FF8FFFFFFE000000
FF8FFFFFFE000000
FFFE00000FF80000
FFFE00000FF80000
FFFE00000FF80000
FFFE00000FF80000
FFFE00000FF80000
FFFE00000FF80000
FFFE00000FF80000
FFFE00000FF80000
FF8FFFFFFE000000
FF8FFFFFFE000000
FF8FFFFFFE000000
FF8FFFFFFE000000
FF80000000000000
FF80000000000000
FF80000000000000
FF80000000000000
FF80000000000000
FF80000000000000
FF80000000000000
FF80000000000000
FF80000000000000
FF80000000000000
FF80000000000000
FF80000000000000
ENDCHAR
STARTCHAR U+006f
ENCODING 111
SWIDTH 1000 0
BBX 60 40 0 -8
DWIDTH 60 0
BITMAP
0000000000000000
0000000000000000
0000000000000000
0000000000000000
0000000000000000
0000000000000000
0000000000000000
0000000000000000
0000000000000000
0000000000000000
0000000000000000
0000000000000000
03FFFFFFFE000000
03FFFFFFFE000000
03FFFFFFFE000000
03FFFFFFFE000000
FF8000000FF80000
FF8000000FF80000
FF8000000FF80000
FF8000000FF80000
FF8000000FF80000
FF8000000FF80000
FF8000000FF80000
FF8000000FF80000
FF8000000FF80000
FF8000000FF80000
FF8000000FF80000
FF8000000FF80000
03FFFFFFFE000000
03FFFFFFFE000000
03FFFFFFFE000000
03FFFFFFFE000000
0000000000000000
0000000000000000
0000000000000000
0000000000000000
0000000000000000
0000000000000000
0000000000000000
0000000000000000
ENDCHAR
STARTCHAR U+006e
ENCODING 110
SWIDTH 1000 0
BBX 60 40 0 -8
DWIDTH 60 0
BITMAP
0000000000000000
0000000000000000
0000000000000000
0000000000000000
0000000000000000
0000000000000000
0000000000000000
0000000000000000
0000000000000000
0000000000000000
0000000000000000
0000000000000000
FF8FFFFFFE000000
FF8FFFFFFE000000
FF8FFFFFFE000000
FF8FFFFFFE000000
FFFE00000FF80000
FFFE00000FF80000
FFFE00000FF80000
FFFE00000FF80000
FF8000000FF80000
FF8000000FF80000
FF8000000FF80000
FF8000000FF80000
FF8000000FF80000
FF8000000FF80000
FF8000000FF80000
FF8000000FF80000
FF8000000FF80000
FF8000000FF80000
FF8000000FF80000
FF8000000FF80000
0000000000000000
0000000000000000
0000000000000000
0000000000000000
0000000000000000
0000000000000000
0000000000000000
0000000000000000
ENDCHAR
STARTCHAR U+006d
ENCODING 109
SWIDTH 1000 0
BBX 60 40 0 -8
DWIDTH 60 0
BITMAP
0000000000000000
0000000000000000
0000000000000000
0000000000000000
0000000000000000
0000000000000000
0000000000000000
0000000000000000
0000000000000000
0000000000000000
0000000000000000
0000000000000000
FFFE0003FE000000
FFFE0003FE000000
FFFE0003FE000000
FFFE0003FE000000
FF8FF8FF8FF80000
FF8FF8FF8FF80000
FF8FF8FF8FF80000
FF8FF8FF8FF80000
FF803FE00FF80000
FF803FE00FF80000
FF803FE00FF80000
FF803FE00FF80000
FF803FE00FF80000
FF803FE00FF80000
FF803FE00FF80000
FF803FE00FF80000
FF8000000FF80000
FF8000000FF80000
FF8000000FF80000
FF8000000FF80000
0000000000000000
0000000000000000
0000000000000000
0000000000000000
0000000000000000
0000000000000000
0000000000000000
0000000000000000
ENDCHAR
STARTCHAR U+006c
ENCODING 108
SWIDTH 1000 0
BBX 60 40 0 -8
DWIDTH 60 0
BITMAP
0000000000000000
0000000000000000
0000000000000000
0000000000000000
000FFFE000000000
000FFFE000000000
000FFFE000000000
000FFFE000000000
00003FE000000000
00003FE000000000
00003FE000000000
00003FE000000000
00003FE000000000
00003FE000000000
00003FE000000000
00003FE000000000
00003FE000000000
00003FE000000000
00003FE000000000
00003FE000000000
00003FE000000000
00003FE000000000
00003FE000000000
00003FE000000000
00003FE000000000
00003FE000000000
00003FE000000000
00003FE000000000
000FFFFF80000000
000FFFFF80000000
000FFFFF80000000
000FFFFF80000000
0000000000000000
0000000000000000
0000000000000000
0000000000000000
0000000000000000
0000000000000000
0000000000000000
0000000000000000
ENDCHAR
STARTCHAR U+006b
ENCODING 107
SWIDTH 1000 0
BBX 60 40 0 -8
DWIDTH 60 0
BITMAP
0000000000000000
0000000000000000
0000000000000000
0000000000000000
FF80000000000000
FF80000000000000
FF80000000000000
FF80000000000000
FF80000000000000
FF80000000000000
FF80000000000000
FF80000000000000
FF8000FF80000000
FF8000FF80000000
FF8000FF80000000
FF8000FF80000000
FF803FE000000000
FF803FE000000000
FF803FE000000000
FF803FE000000000
FFFFF80000000000
FFFFF80000000000
FFFFF80000000000
FFFFF80000000000
FF8000FF80000000
FF8000FF80000000
FF8000FF80000000
FF8000FF80000000
FF8000000FF80000
FF8000000FF80000
FF8000000FF80000
FF8000000FF80000
0000000000000000
0000000000000000
0000000000000000
0000000000000000
0000000000000000
0000000000000000
0000000000000000
0000000000000000
ENDCHAR
STARTCHAR U+006a
ENCODING 106
SWIDTH 1000 0
BBX 60 40 0 -8
DWIDTH 60 0
BITMAP
0000000000000000
0000000000000000
0000000000000000
0000000000000000
00000003FE000000
00000003FE000000
00000003FE000000
00000003FE000000
0000000000000000
0000000000000000
0000000000000000
0000000000000000
00000003FE000000
00000003FE000000
00000003FE000000
00000003FE000000
00000003FE000000
00000003FE000000
00000003FE000000
00000003FE000000
00000003FE000000
00000003FE000000
00000003FE000000
00000003FE000000
00000003FE000000
00000003FE000000
00000003FE000000
00000003FE000000
FF800003FE000000
FF800003FE000000
FF800003FE000000
FF800003FE000000
FF800003FE000000
FF800003FE000000
FF800003FE000000
FF800003FE000000
03FFFFFF80000000
03FFFFFF80000000
03FFFFFF80000000
03FFFFFF80000000
ENDCHAR
STARTCHAR U+0069
ENCODING 105
SWIDTH 1000 0
BBX 60 40 0 -8
DWIDTH 60 0
BITMAP
0000000000000000
0000000000000000
0000000000000000
0000000000000000
00003FE000000000
00003FE000000000
00003FE000000000
00003FE000000000
0000000000000000
0000000000000000
0000000000000000
0000000000000000
000FFFE000000000
000FFFE000000000
000FFFE000000000
000FFFE000000000
00003FE000000000
00003FE000000000
00003FE000000000
00003FE000000000
00003FE000000000
00003FE000000000
00003FE000000000
00003FE000000000
00003FE000000000
00003FE000000000
00003FE000000000
00003FE000000000
03FFFFFFFE000000
03FFFFFFFE000000
03FFFFFFFE000000
03FFFFFFFE000000
0000000000000000
0000000000000000
0000000000000000
0000000000000000
0000000000000000
0000000000000000
0000000000000000
0000000000000000
ENDCHAR
STARTCHAR U+0068
ENCODING 104
SWIDTH 1000 0
BBX 60 40 0 -8
DWIDTH 60 0
BITMAP
0000000000000000
0000000000000000
0000000000000000
0000000000000000
FF80000000000000
FF80000000000000
FF80000000000000
FF80000000000000
FF80000000000000
FF80000000000000
FF80000000000000
FF80000000000000
FF8FFFFFFE000000
FF8FFFFFFE000000
FF8FFFFFFE000000
FF8FFFFFFE000000
FFFE00000FF80000
FFFE00000FF80000
FFFE00000FF80000
FFFE00000FF80000
FF8000000FF80000
FF8000000FF80000
FF8000000FF80000
FF8000000FF80000
FF8000000FF80000
FF8000000FF80000
FF8000000FF80000
FF8000000FF80000
FF8000000FF80000
FF8000000FF80000
FF8000000FF80000
FF8000000FF80000
0000000000000000
0000000000000000
0000000000000000
0000000000000000
0000000000000000
0000000000000000
0000000000000000
0000000000000000
ENDCHAR
STARTCHAR U+0067
ENCODING 103
SWIDTH 1000 0
BBX 60 40 0 -8
DWIDTH 60 0
BITMAP
0000000000000000
0000000000000000
0000000000000000
0000000000000000
0000000000000000
0000000000000000
0000000000000000
0000000000000000
0000000000000000
0000000000000000
0000000000000000
0000000000000000
03FFFFFF8FF80000
03FFFFFF8FF80000
03FFFFFF8FF80000
03FFFFFF8FF80000
FF800003FE000000
FF800003FE000000
FF800003FE000000
FF800003FE000000
03FFFFFF80000000
03FFFFFF80000000
03FFFFFF80000000
03FFFFFF80000000
FF80000000000000
FF80000000000000
FF80000000000000
FF80000000000000
03FFFFFFFE000000
03FFFFFFFE000000
03FFFFFFFE000000
03FFFFFFFE000000
FF8000000FF80000
FF8000000FF80000
FF8000000FF80000
FF8000000FF80000
03FFFFFFFE000000
03FFFFFFFE000000
03FFFFFFFE000000
03FFFFFFFE000000
ENDCHAR
STARTCHAR U+0066
ENCODING 102
SWIDTH 1000 0
BBX 60 40 0 -8
DWIDTH 60 0
BITMAP
0000000000000000
0000000000000000
0000000000000000
0000000000000000
00003FFFFE000000
00003FFFFE000000
00003FFFFE000000
00003FFFFE000000
000FF8000FF80000
000FF8000FF80000
000FF8000FF80000
000FF8000FF80000
000FF80000000000
000FF80000000000
000FF80000000000
000FF80000000000
FFFFFFFF80000000
FFFFFFFF80000000
FFFFFFFF80000000
FFFFFFFF80000000
000FF80000000000
000FF80000000000
000FF80000000000
000FF80000000000
000FF80000000000
000FF80000000000
000FF80000000000
000FF80000000000
000FF80000000000
000FF80000000000
000FF80000000000
000FF80000000000
0000000000000000
0000000000000000
0000000000000000
0000000000000000
0000000000000000
0000000000000000
0000000000000000
0000000000000000
ENDCHAR
STARTCHAR U+0065
ENCODING 101
SWIDTH 1000 0
BBX 60 40 0 -8
DWIDTH 60 0
BITMAP
0000000000000000
0000000000000000
0000000000000000
0000000000000000
0000000000000000
0000000000000000
0000000000000000
0000000000000000
0000000000000000
0000000000000000
0000000000000000
0000000000000000
03FFFFFFFE000000
03FFFFFFFE000000
03FFFFFFFE000000
03FFFFFFFE000000
FF8000000FF80000
FF8000000FF80000
FF8000000FF80000
FF8000000FF80000
FFFFFFFFFFF80000
FFFFFFFFFFF80000
FFFFFFFFFFF80000
FFFFFFFFFFF80000
FF80000000000000
FF80000000000000
FF80000000000000
FF80000000000000
03FFFFFFFE000000
03FFFFFFFE000000
03FFFFFFFE000000
03FFFFFFFE000000
0000000000000000
0000000000000000
0000000000000000
0000000000000000
0000000000000000
0000000000000000
0000000000000000
0000000000000000
ENDCHAR
STARTCHAR U+0064
ENCODING 100
SWIDTH 1000 0
BBX 60 40 0 -8
DWIDTH 60 0
BITMAP
0000000000000000
0000000000000000
0000000000000000
0000000000000000
000000000FF80000
000000000FF80000
000000000FF80000
000000000FF80000
000000000FF80000
000000000FF80000
000000000FF80000
000000000FF80000
03FFFFFF8FF80000
03FFFFFF8FF80000
03FFFFFF8FF80000
03FFFFFF8FF80000
FF800003FFF80000
FF800003FFF80000
FF800003FFF80000
FF800003FFF80000
FF8000000FF80000
FF8000000FF80000
FF8000000FF80000
FF8000000FF80000
FF800003FFF80000
FF800003FFF80000
FF800003FFF80000
FF800003FFF80000
03FFFFFF8FF80000
03FFFFFF8FF80000
03FFFFFF8FF80000
03FFFFFF8FF80000
0000000000000000
0000000000000000
0000000000000000
0000000000000000
0000000000000000
0000000000000000
0000000000000000
0000000000000000
ENDCHAR
STARTCHAR U+0063
ENCODING 99
SWIDTH 1000 0
BBX 60 40 0 -8
DWIDTH 60 0
BITMAP
0000000000000000
0000000000000000
0000000000000000
0000000000000000
0000000000000000
0000000000000000
0000000000000000
0000000000000000
0000000000000000
0000000000000000
0000000000000000
0000000000000000
03FFFFFFFE000000
03FFFFFFFE000000
03FFFFFFFE000000
03FFFFFFFE000000
FF8000000FF80000
FF8000000FF80000
FF8000000FF80000
FF8000000FF80000
FF80000000000000
FF80000000000000
FF80000000000000
FF80000000000000
FF80000000000000
FF80000000000000
FF80000000000000
FF80000000000000
03FFFFFFFFF80000
03FFFFFFFFF80000
03FFFFFFFFF80000
03FFFFFFFFF80000
0000000000000000
0000000000000000
0000000000000000
0000000000000000
0000000000000000
0000000000000000
0000000000000000
0000000000000000
ENDCHAR
STARTCHAR U+0062
ENCODING 98
SWIDTH 1000 0
BBX 60 40 0 -8
DWIDTH 60 0
BITMAP
0000000000000000
0000000000000000
0000000000000000
0000000000000000
FF80000000000000
FF80000000000000
FF80000000000000
FF80000000000000
FF80000000000000
FF80000000000000
FF80000000000000
FF80000000000000
FF8FFFFFFE000000
FF8FFFFFFE000000
FF8FFFFFFE000000
FF8FFFFFFE000000
FFFE00000FF80000
FFFE00000FF80000
FFFE00000FF80000
FFFE00000FF80000
FF8000000FF80000
FF8000000FF80000
FF8000000FF80000
FF8000000FF80000
FFFE00000FF80000
FFFE00000FF80000
FFFE00000FF80000
FFFE00000FF80000
FF8FFFFFFE000000
FF8FFFFFFE000000
FF8FFFFFFE000000
FF8FFFFFFE000000
0000000000000000
0000000000000000
0000000000000000
0000000000000000
0000000000000000
0000000000000000
0000000000000000
0000000000000000
ENDCHAR
STARTCHAR U+0061
ENCODING 97
SWIDTH 1000 0
BBX 60 40 0 -8
DWIDTH 60 0
BITMAP
0000000000000000
0000000000000000
0000000000000000
0000000000000000
0000000000000000
0000000000000000
0000000000000000
0000000000000000
0000000000000000
0000000000000000
0000000000000000
0000000000000000
03FFFFFFFE000000
03FFFFFFFE000000
03FFFFFFFE000000
03FFFFFFFE000000
000000000FF80000
000000000FF80000
000000000FF80000
000000000FF80000
03FFFFFFFFF80000
03FFFFFFFFF80000
03FFFFFFFFF80000
03FFFFFFFFF80000
FF800003FFF80000
FF800003FFF80000
FF800003FFF80000
FF800003FFF80000
03FFFFFF8FF80000
03FFFFFF8FF80000
03FFFFFF8FF80000
03FFFFFF8FF80000
0000000000000000
0000000000000000
0000000000000000
0000000000000000
0000000000000000
0000000000000000
0000000000000000
0000000000000000
ENDCHAR
STARTCHAR U+0060
ENCODING 96
SWIDTH 1000 0
BBX 60 40 0 -8
DWIDTH 60 0
BITMAP
0000000000000000
0000000000000000
0000000000000000
0000000000000000
000FFFE000000000
000FFFE000000000
000FFFE000000000
000FFFE000000000
00003FE000000000
00003FE000000000
00003FE000000000
00003FE000000000
000000FF80000000
000000FF80000000
000000FF80000000
000000FF80000000
0000000000000000
0000000000000000
0000000000000000
0000000000000000
0000000000000000
0000000000000000
0000000000000000
0000000000000000
0000000000000000
0000000000000000
0000000000000000
0000000000000000
0000000000000000
0000000000000000
0000000000000000
0000000000000000
0000000000000000
0000000000000000
0000000000000000
0000000000000000
0000000000000000
0000000000000000
0000000000000000
0000000000000000
ENDCHAR
STARTCHAR U+005F
ENCODING 95
SWIDTH 1000 0
BBX 60 40 0 -8
DWIDTH 60 0
BITMAP
0000000000000000
0000000000000000
0000000000000000
0000000000000000
0000000000000000
0000000000000000
0000000000000000
0000000000000000
0000000000000000
0000000000000000
0000000000000000
0000000000000000
0000000000000000
0000000000000000
0000000000000000
0000000000000000
0000000000000000
0000000000000000
0000000000000000
0000000000000000
0000000000000000
0000000000000000
0000000000000000
0000000000000000
0000000000000000
0000000000000000
0000000000000000
0000000000000000
FFFFFFFFFFF80000
FFFFFFFFFFF80000
FFFFFFFFFFF80000
FFFFFFFFFFF80000
0000000000000000
0000000000000000
0000000000000000
0000000000000000
0000000000000000
0000000000000000
0000000000000000
0000000000000000
ENDCHAR
STARTCHAR U+005E
ENCODING 94
SWIDTH 1000 0
BBX 60 40 0 -8
DWIDTH 60 0
BITMAP
0000000000000000
0000000000000000
0000000000000000
0000000000000000
00003FE000000000
00003FE000000000
00003FE000000000
00003FE000000000
000FF8FF80000000
000FF8FF80000000
000FF8FF80000000
000FF8FF80000000
03FE0003FE000000
03FE0003FE000000
03FE0003FE000000
03FE0003FE000000
FF8000000FF80000
FF8000000FF80000
FF8000000FF80000
FF8000000FF80000
0000000000000000
0000000000000000
0000000000000000
0000000000000000
0000000000000000
0000000000000000
0000000000000000
0000000000000000
0000000000000000
0000000000000000
0000000000000000
0000000000000000
0000000000000000
0000000000000000
0000000000000000
0000000000000000
0000000000000000
0000000000000000
0000000000000000
0000000000000000
ENDCHAR
STARTCHAR U+005D
ENCODING 93
SWIDTH 1000 0
BBX 60 40 0 -8
DWIDTH 60 0
BITMAP
0000000000000000
0000000000000000
0000000000000000
0000000000000000
03FFFFFF80000000
03FFFFFF80000000
03FFFFFF80000000
03FFFFFF80000000
000000FF80000000
000000FF80000000
000000FF80000000
000000FF80000000
000000FF80000000
000000FF80000000
000000FF80000000
000000FF80000000
000000FF80000000
000000FF80000000
000000FF80000000
000000FF80000000
000000FF80000000
000000FF80000000
000000FF80000000
000000FF80000000
000000FF80000000
000000FF80000000
000000FF80000000
000000FF80000000
03FFFFFF80000000
03FFFFFF80000000
03FFFFFF80000000
03FFFFFF80000000
0000000000000000
0000000000000000
0000000000000000
0000000000000000
0000000000000000
0000000000000000
0000000000000000
0000000000000000
ENDCHAR
STARTCHAR U+005C
ENCODING 92
SWIDTH 1000 0
BBX 60 40 0 -8
DWIDTH 60 0
BITMAP
0000000000000000
0000000000000000
0000000000000000
0000000000000000
FF80000000000000
FF80000000000000
FF80000000000000
FF80000000000000
03FE000000000000
03FE000000000000
03FE000000000000
03FE000000000000
000FF80000000000
000FF80000000000
000FF80000000000
000FF80000000000
00003FE000000000
00003FE000000000
00003FE000000000
00003FE000000000
000000FF80000000
000000FF80000000
000000FF80000000
000000FF80000000
00000003FE000000
00000003FE000000
00000003FE000000
00000003FE000000
000000000FF80000
000000000FF80000
000000000FF80000
000000000FF80000
0000000000000000
0000000000000000
0000000000000000
0000000000000000
0000000000000000
0000000000000000
0000000000000000
0000000000000000
ENDCHAR
STARTCHAR U+005B
ENCODING 91
SWIDTH 1000 0
BBX 60 40 0 -8
DWIDTH 60 0
BITMAP
0000000000000000
0000000000000000
0000000000000000
0000000000000000
000FFFFFFE000000
000FFFFFFE000000
000FFFFFFE000000
000FFFFFFE000000
000FF80000000000
000FF80000000000
000FF80000000000
000FF80000000000
000FF80000000000
000FF80000000000
000FF80000000000
000FF80000000000
000FF80000000000
000FF80000000000
000FF80000000000
000FF80000000000
000FF80000000000
000FF80000000000
000FF80000000000
000FF80000000000
000FF80000000000
000FF80000000000
000FF80000000000
000FF80000000000
000FFFFFFE000000
000FFFFFFE000000
000FFFFFFE000000
000FFFFFFE000000
0000000000000000
0000000000000000
0000000000000000
0000000000000000
0000000000000000
0000000000000000
0000000000000000
0000000000000000
ENDCHAR
STARTCHAR U+005A
ENCODING 90
SWIDTH 1000 0
BBX 60 40 0 -8
DWIDTH 60 0
BITMAP
0000000000000000
0000000000000000
0000000000000000
0000000000000000
FFFFFFFFFFF80000
FFFFFFFFFFF80000
FFFFFFFFFFF80000
FFFFFFFFFFF80000
00000003FE000000
00000003FE000000
00000003FE000000
00000003FE000000
000000FF80000000
000000FF80000000
000000FF80000000
000000FF80000000
00003FE000000000
00003FE000000000
00003FE000000000
00003FE000000000
000FF80000000000
000FF80000000000
000FF80000000000
000FF80000000000
03FE000000000000
03FE000000000000
03FE000000000000
03FE000000000000
FFFFFFFFFFF80000
FFFFFFFFFFF80000
FFFFFFFFFFF80000
FFFFFFFFFFF80000
0000000000000000
0000000000000000
0000000000000000
0000000000000000
0000000000000000
0000000000000000
0000000000000000
0000000000000000
ENDCHAR
STARTCHAR U+0059
ENCODING 89
SWIDTH 1000 0
BBX 60 40 0 -8
DWIDTH 60 0
BITMAP
0000000000000000
0000000000000000
0000000000000000
0000000000000000
FF8000000FF80000
FF8000000FF80000
FF8000000FF80000
FF8000000FF80000
03FE0003FE000000
03FE0003FE000000
03FE0003FE000000
03FE0003FE000000
000FF8FF80000000
000FF8FF80000000
000FF8FF80000000
000FF8FF80000000
00003FE000000000
00003FE000000000
00003FE000000000
00003FE000000000
00003FE000000000
00003FE000000000
00003FE000000000
00003FE000000000
00003FE000000000
00003FE000000000
00003FE000000000
00003FE000000000
00003FE000000000
00003FE000000000
00003FE000000000
00003FE000000000
0000000000000000
0000000000000000
0000000000000000
0000000000000000
0000000000000000
0000000000000000
0000000000000000
0000000000000000
ENDCHAR
STARTCHAR U+0058
ENCODING 88
SWIDTH 1000 0
BBX 60 40 0 -8
DWIDTH 60 0
BITMAP
0000000000000000
0000000000000000
0000000000000000
0000000000000000
FF8000000FF80000
FF8000000FF80000
FF8000000FF80000
FF8000000FF80000
03FE0003FE000000
03FE0003FE000000
03FE0003FE000000
03FE0003FE000000
000FF8FF80000000
000FF8FF80000000
000FF8FF80000000
000FF8FF80000000
00003FE000000000
00003FE000000000
00003FE000000000
00003FE000000000
000FF8FF80000000
000FF8FF80000000
000FF8FF80000000
000FF8FF80000000
03FE0003FE000000
03FE0003FE000000
03FE0003FE000000
03FE0003FE000000
FF8000000FF80000
FF8000000FF80000
FF8000000FF80000
FF8000000FF80000
0000000000000000
0000000000000000
0000000000000000
0000000000000000
0000000000000000
0000000000000000
0000000000000000
0000000000000000
ENDCHAR
STARTCHAR U+0057
ENCODING 87
SWIDTH 1000 0
BBX 60 40 0 -8
DWIDTH 60 0
BITMAP
0000000000000000
0000000000000000
0000000000000000
0000000000000000
FF8000000FF80000
FF8000000FF80000
FF8000000FF80000
FF8000000FF80000
FF8000000FF80000
FF8000000FF80000
FF8000000FF80000
FF8000000FF80000
FF8000000FF80000
FF8000000FF80000
FF8000000FF80000
FF8000000FF80000
FF803FE00FF80000
FF803FE00FF80000
FF803FE00FF80000
FF803FE00FF80000
FF803FE00FF80000
FF803FE00FF80000
FF803FE00FF80000
FF803FE00FF80000
FF8FF8FF8FF80000
FF8FF8FF8FF80000
FF8FF8FF8FF80000
FF8FF8FF8FF80000
03FE0003FE000000
03FE0003FE000000
03FE0003FE000000
03FE0003FE000000
0000000000000000
0000000000000000
0000000000000000
0000000000000000
0000000000000000
0000000000000000
0000000000000000
0000000000000000
ENDCHAR
STARTCHAR U+0056
ENCODING 86
SWIDTH 1000 0
BBX 60 40 0 -8
DWIDTH 60 0
BITMAP
0000000000000000
0000000000000000
0000000000000000
0000000000000000
FF8000000FF80000
FF8000000FF80000
FF8000000FF80000
FF8000000FF80000
FF8000000FF80000
FF8000000FF80000
FF8000000FF80000
FF8000000FF80000
03FE0003FE000000
03FE0003FE000000
03FE0003FE000000
03FE0003FE000000
03FE0003FE000000
03FE0003FE000000
03FE0003FE000000
03FE0003FE000000
000FF8FF80000000
000FF8FF80000000
000FF8FF80000000
000FF8FF80000000
000FF8FF80000000
000FF8FF80000000
000FF8FF80000000
000FF8FF80000000
00003FE000000000
00003FE000000000
00003FE000000000
00003FE000000000
0000000000000000
0000000000000000
0000000000000000
0000000000000000
0000000000000000
0000000000000000
0000000000000000
0000000000000000
ENDCHAR
STARTCHAR U+0055
ENCODING 85
SWIDTH 1000 0
BBX 60 40 0 -8
DWIDTH 60 0
BITMAP
0000000000000000
0000000000000000
0000000000000000
0000000000000000
FF8000000FF80000
FF8000000FF80000
FF8000000FF80000
FF8000000FF80000
FF8000000FF80000
FF8000000FF80000
FF8000000FF80000
FF8000000FF80000
FF8000000FF80000
FF8000000FF80000
FF8000000FF80000
FF8000000FF80000
FF8000000FF80000
FF8000000FF80000
FF8000000FF80000
FF8000000FF80000
FF8000000FF80000
FF8000000FF80000
FF8000000FF80000
FF8000000FF80000
FF8000000FF80000
FF8000000FF80000
FF8000000FF80000
FF8000000FF80000
03FFFFFFFE000000
03FFFFFFFE000000
03FFFFFFFE000000
03FFFFFFFE000000
0000000000000000
0000000000000000
0000000000000000
0000000000000000
0000000000000000
0000000000000000
0000000000000000
0000000000000000
ENDCHAR
STARTCHAR U+0054
ENCODING 84
SWIDTH 1000 0
BBX 60 40 0 -8
DWIDTH 60 0
BITMAP
0000000000000000
0000000000000000
0000000000000000
0000000000000000
FFFFFFFFFFF80000
FFFFFFFFFFF80000
FFFFFFFFFFF80000
FFFFFFFFFFF80000
00003FE000000000
00003FE000000000
00003FE000000000
00003FE000000000
00003FE000000000
00003FE000000000
00003FE000000000
00003FE000000000
00003FE000000000
00003FE000000000
00003FE000000000
00003FE000000000
00003FE000000000
00003FE000000000
00003FE000000000
00003FE000000000
00003FE000000000
00003FE000000000
00003FE000000000
00003FE000000000
00003FE000000000
00003FE000000000
00003FE000000000
00003FE000000000
0000000000000000
0000000000000000
0000000000000000
0000000000000000
0000000000000000
0000000000000000
0000000000000000
0000000000000000
ENDCHAR
STARTCHAR U+0053
ENCODING 83
SWIDTH 1000 0
BBX 60 40 0 -8
DWIDTH 60 0
BITMAP
0000000000000000
0000000000000000
0000000000000000
0000000000000000
03FFFFFFFE000000
03FFFFFFFE000000
03FFFFFFFE000000
03FFFFFFFE000000
FF8000000FF80000
FF8000000FF80000
FF8000000FF80000
FF8000000FF80000
FF80000000000000
FF80000000000000
FF80000000000000
FF80000000000000
03FFFFFFFE000000
03FFFFFFFE000000
03FFFFFFFE000000
03FFFFFFFE000000
000000000FF80000
000000000FF80000
000000000FF80000
000000000FF80000
FF8000000FF80000
FF8000000FF80000
FF8000000FF80000
FF8000000FF80000
03FFFFFFFE000000
03FFFFFFFE000000
03FFFFFFFE000000
03FFFFFFFE000000
0000000000000000
0000000000000000
0000000000000000
0000000000000000
0000000000000000
0000000000000000
0000000000000000
0000000000000000
ENDCHAR
STARTCHAR U+0052
ENCODING 82
SWIDTH 1000 0
BBX 60 40 0 -8
DWIDTH 60 0
BITMAP
0000000000000000
0000000000000000
0000000000000000
0000000000000000
FFFFFFFFFE000000
FFFFFFFFFE000000
FFFFFFFFFE000000
FFFFFFFFFE000000
FF8000000FF80000
FF8000000FF80000
FF8000000FF80000
FF8000000FF80000
FF8000000FF80000
FF8000000FF80000
FF8000000FF80000
FF8000000FF80000
FFFFFFFFFE000000
FFFFFFFFFE000000
FFFFFFFFFE000000
FFFFFFFFFE000000
FF8000FF80000000
FF8000FF80000000
FF8000FF80000000
FF8000FF80000000
FF800003FE000000
FF800003FE000000
FF800003FE000000
FF800003FE000000
FF8000000FF80000
FF8000000FF80000
FF8000000FF80000
FF8000000FF80000
0000000000000000
0000000000000000
0000000000000000
0000000000000000
0000000000000000
0000000000000000
0000000000000000
0000000000000000
ENDCHAR
STARTCHAR U+0051
ENCODING 81
SWIDTH 1000 0
BBX 60 40 0 -8
DWIDTH 60 0
BITMAP
0000000000000000
0000000000000000
0000000000000000
0000000000000000
03FFFFFFFE000000
03FFFFFFFE000000
03FFFFFFFE000000
03FFFFFFFE000000
FF8000000FF80000
FF8000000FF80000
FF8000000FF80000
FF8000000FF80000
FF8000000FF80000
FF8000000FF80000
FF8000000FF80000
FF8000000FF80000
FF8000000FF80000
FF8000000FF80000
FF8000000FF80000
FF8000000FF80000
FF8000FF8FF80000
FF8000FF8FF80000
FF8000FF8FF80000
FF8000FF8FF80000
FF800003FE000000
FF800003FE000000
FF800003FE000000
FF800003FE000000
03FFFFFF8FF80000
03FFFFFF8FF80000
03FFFFFF8FF80000
03FFFFFF8FF80000
0000000000000000
0000000000000000
0000000000000000
0000000000000000
0000000000000000
0000000000000000
0000000000000000
0000000000000000
ENDCHAR
STARTCHAR U+0050
ENCODING 80
SWIDTH 1000 0
BBX 60 40 0 -8
DWIDTH 60 0
BITMAP
0000000000000000
0000000000000000
0000000000000000
0000000000000000
FFFFFFFFFE000000
FFFFFFFFFE000000
FFFFFFFFFE000000
FFFFFFFFFE000000
FF8000000FF80000
FF8000000FF80000
FF8000000FF80000
FF8000000FF80000
FF8000000FF80000
FF8000000FF80000
FF8000000FF80000
FF8000000FF80000
FFFFFFFFFE000000
FFFFFFFFFE000000
FFFFFFFFFE000000
FFFFFFFFFE000000
FF80000000000000
FF80000000000000
FF80000000000000
FF80000000000000
FF80000000000000
FF80000000000000
FF80000000000000
FF80000000000000
FF80000000000000
FF80000000000000
FF80000000000000
FF80000000000000
0000000000000000
0000000000000000
0000000000000000
0000000000000000
0000000000000000
0000000000000000
0000000000000000
0000000000000000
ENDCHAR
STARTCHAR U+004F
ENCODING 79
SWIDTH 1000 0
BBX 60 40 0 -8
DWIDTH 60 0
BITMAP
0000000000000000
0000000000000000
0000000000000000
0000000000000000
03FFFFFFFE000000
03FFFFFFFE000000
03FFFFFFFE000000
03FFFFFFFE000000
FF8000000FF80000
FF8000000FF80000
FF8000000FF80000
FF8000000FF80000
FF8000000FF80000
FF8000000FF80000
FF8000000FF80000
FF8000000FF80000
FF8000000FF80000
FF8000000FF80000
FF8000000FF80000
FF8000000FF80000
FF8000000FF80000
FF8000000FF80000
FF8000000FF80000
FF8000000FF80000
FF8000000FF80000
FF8000000FF80000
FF8000000FF80000
FF8000000FF80000
03FFFFFFFE000000
03FFFFFFFE000000
03FFFFFFFE000000
03FFFFFFFE000000
0000000000000000
0000000000000000
0000000000000000
0000000000000000
0000000000000000
0000000000000000
0000000000000000
0000000000000000
ENDCHAR
STARTCHAR U+004E
ENCODING 78
SWIDTH 1000 0
BBX 60 40 0 -8
DWIDTH 60 0
BITMAP
0000000000000000
0000000000000000
0000000000000000
0000000000000000
FF8000000FF80000
FF8000000FF80000
FF8000000FF80000
FF8000000FF80000
FFFE00000FF80000
FFFE00000FF80000
FFFE00000FF80000
FFFE00000FF80000
FF8FF8000FF80000
FF8FF8000FF80000
FF8FF8000FF80000
FF8FF8000FF80000
FF803FE00FF80000
FF803FE00FF80000
FF803FE00FF80000
FF803FE00FF80000
FF8000FF8FF80000
FF8000FF8FF80000
FF8000FF8FF80000
FF8000FF8FF80000
FF800003FFF80000
FF800003FFF80000
FF800003FFF80000
FF800003FFF80000
FF8000000FF80000
FF8000000FF80000
FF8000000FF80000
FF8000000FF80000
0000000000000000
0000000000000000
0000000000000000
0000000000000000
0000000000000000
0000000000000000
0000000000000000
0000000000000000
ENDCHAR
STARTCHAR U+004D
ENCODING 77
SWIDTH 1000 0
BBX 60 40 0 -8
DWIDTH 60 0
BITMAP
0000000000000000
0000000000000000
0000000000000000
0000000000000000
FF8000000FF80000
FF8000000FF80000
FF8000000FF80000
FF8000000FF80000
FFFE0003FFF80000
FFFE0003FFF80000
FFFE0003FFF80000
FFFE0003FFF80000
FF8FF8FF8FF80000
FF8FF8FF8FF80000
FF8FF8FF8FF80000
FF8FF8FF8FF80000
FF803FE00FF80000
FF803FE00FF80000
FF803FE00FF80000
FF803FE00FF80000
FF8000000FF80000
FF8000000FF80000
FF8000000FF80000
FF8000000FF80000
FF8000000FF80000
FF8000000FF80000
FF8000000FF80000
FF8000000FF80000
FF8000000FF80000
FF8000000FF80000
FF8000000FF80000
FF8000000FF80000
0000000000000000
0000000000000000
0000000000000000
0000000000000000
0000000000000000
0000000000000000
0000000000000000
0000000000000000
ENDCHAR
STARTCHAR U+004C
ENCODING 76
SWIDTH 1000 0
BBX 60 40 0 -8
DWIDTH 60 0
BITMAP
0000000000000000
0000000000000000
0000000000000000
0000000000000000
FF80000000000000
FF80000000000000
FF80000000000000
FF80000000000000
FF80000000000000
FF80000000000000
FF80000000000000
FF80000000000000
FF80000000000000
FF80000000000000
FF80000000000000
FF80000000000000
FF80000000000000
FF80000000000000
FF80000000000000
FF80000000000000
FF80000000000000
FF80000000000000
FF80000000000000
FF80000000000000
FF80000000000000
FF80000000000000
FF80000000000000
FF80000000000000
FFFFFFFFFFF80000
FFFFFFFFFFF80000
FFFFFFFFFFF80000
FFFFFFFFFFF80000
0000000000000000
0000000000000000
0000000000000000
0000000000000000
0000000000000000
0000000000000000
0000000000000000
0000000000000000
ENDCHAR
STARTCHAR U+004B
ENCODING 75
SWIDTH 1000 0
BBX 60 40 0 -8
DWIDTH 60 0
BITMAP
0000000000000000
0000000000000000
0000000000000000
0000000000000000
FF8000000FF80000
FF8000000FF80000
FF8000000FF80000
FF8000000FF80000
FF8000FFFE000000
FF8000FFFE000000
FF8000FFFE000000
FF8000FFFE000000
FF8FFFE000000000
FF8FFFE000000000
FF8FFFE000000000
FF8FFFE000000000
FFFE000000000000
FFFE000000000000
FFFE000000000000
FFFE000000000000
FF8FFFE000000000
FF8FFFE000000000
FF8FFFE000000000
FF8FFFE000000000
FF8000FFFE000000
FF8000FFFE000000
FF8000FFFE000000
FF8000FFFE000000
FF8000000FF80000
FF8000000FF80000
FF8000000FF80000
FF8000000FF80000
0000000000000000
0000000000000000
0000000000000000
0000000000000000
0000000000000000
0000000000000000
0000000000000000
0000000000000000
ENDCHAR
STARTCHAR U+004A
ENCODING 74
SWIDTH 1000 0
BBX 60 40 0 -8
DWIDTH 60 0
BITMAP
0000000000000000
0000000000000000
0000000000000000
0000000000000000
000000FFFFF80000
000000FFFFF80000
000000FFFFF80000
000000FFFFF80000
00000003FE000000
00000003FE000000
00000003FE000000
00000003FE000000
00000003FE000000
00000003FE000000
00000003FE000000
00000003FE000000
00000003FE000000
00000003FE000000
00000003FE000000
00000003FE000000
00000003FE000000
00000003FE000000
00000003FE000000
00000003FE000000
FF800003FE000000
FF800003FE000000
FF800003FE000000
FF800003FE000000
03FFFFFF80000000
03FFFFFF80000000
03FFFFFF80000000
03FFFFFF80000000
0000000000000000
0000000000000000
0000000000000000
0000000000000000
0000000000000000
0000000000000000
0000000000000000
0000000000000000
ENDCHAR
STARTCHAR U+0049
ENCODING 73
SWIDTH 1000 0
BBX 60 40 0 -8
DWIDTH 60 0
BITMAP
0000000000000000
0000000000000000
0000000000000000
0000000000000000
03FFFFFFFE000000
03FFFFFFFE000000
03FFFFFFFE000000
03FFFFFFFE000000
00003FE000000000
00003FE000000000
00003FE000000000
00003FE000000000
00003FE000000000
00003FE000000000
00003FE000000000
00003FE000000000
00003FE000000000
00003FE000000000
00003FE000000000
00003FE000000000
00003FE000000000
00003FE000000000
00003FE000000000
00003FE000000000
00003FE000000000
00003FE000000000
00003FE000000000
00003FE000000000
03FFFFFFFE000000
03FFFFFFFE000000
03FFFFFFFE000000
03FFFFFFFE000000
0000000000000000
0000000000000000
0000000000000000
0000000000000000
0000000000000000
0000000000000000
0000000000000000
0000000000000000
ENDCHAR
STARTCHAR U+0048
ENCODING 72
SWIDTH 1000 0
BBX 60 40 0 -8
DWIDTH 60 0
BITMAP
0000000000000000
0000000000000000
0000000000000000
0000000000000000
FF8000000FF80000
FF8000000FF80000
FF8000000FF80000
FF8000000FF80000
FF8000000FF80000
FF8000000FF80000
FF8000000FF80000
FF8000000FF80000
FF8000000FF80000
FF8000000FF80000
FF8000000FF80000
FF8000000FF80000
FFFFFFFFFFF80000
FFFFFFFFFFF80000
FFFFFFFFFFF80000
FFFFFFFFFFF80000
FF8000000FF80000
FF8000000FF80000
FF8000000FF80000
FF8000000FF80000
FF8000000FF80000
FF8000000FF80000
FF8000000FF80000
FF8000000FF80000
FF8000000FF80000
FF8000000FF80000
FF8000000FF80000
FF8000000FF80000
0000000000000000
0000000000000000
0000000000000000
0000000000000000
0000000000000000
0000000000000000
0000000000000000
0000000000000000
ENDCHAR
STARTCHAR U+0047
ENCODING 71
SWIDTH 1000 0
BBX 60 40 0 -8
DWIDTH 60 0
BITMAP
0000000000000000
0000000000000000
0000000000000000
0000000000000000
000FFFFFFE000000
000FFFFFFE000000
000FFFFFFE000000
000FFFFFFE000000
03FE00000FF80000
03FE00000FF80000
03FE00000FF80000
03FE00000FF80000
FF80000000000000
FF80000000000000
FF80000000000000
FF80000000000000
FF80000000000000
FF80000000000000
FF80000000000000
FF80000000000000
FF8000FFFFF80000
FF8000FFFFF80000
FF8000FFFFF80000
FF8000FFFFF80000
03FE00000FF80000
03FE00000FF80000
03FE00000FF80000
03FE00000FF80000
000FFFFFFE000000
000FFFFFFE000000
000FFFFFFE000000
000FFFFFFE000000
0000000000000000
0000000000000000
0000000000000000
0000000000000000
0000000000000000
0000000000000000
0000000000000000
0000000000000000
ENDCHAR
STARTCHAR U+0046
ENCODING 70
SWIDTH 1000 0
BBX 60 40 0 -8
DWIDTH 60 0
BITMAP
0000000000000000
0000000000000000
0000000000000000
0000000000000000
FFFFFFFFFFF80000
FFFFFFFFFFF80000
FFFFFFFFFFF80000
FFFFFFFFFFF80000
FF80000000000000
FF80000000000000
FF80000000000000
FF80000000000000
FF80000000000000
FF80000000000000
FF80000000000000
FF80000000000000
FFFFFFFF80000000
FFFFFFFF80000000
FFFFFFFF80000000
FFFFFFFF80000000
FF80000000000000
FF80000000000000
FF80000000000000
FF80000000000000
FF80000000000000
FF80000000000000
FF80000000000000
FF80000000000000
FF80000000000000
FF80000000000000
FF80000000000000
FF80000000000000
0000000000000000
0000000000000000
0000000000000000
0000000000000000
0000000000000000
0000000000000000
0000000000000000
0000000000000000
ENDCHAR
STARTCHAR U+0045
ENCODING 69
SWIDTH 1000 0
BBX 60 40 0 -8
DWIDTH 60 0
BITMAP
0000000000000000
0000000000000000
0000000000000000
0000000000000000
FFFFFFFFFFF80000
FFFFFFFFFFF80000
FFFFFFFFFFF80000
FFFFFFFFFFF80000
FF80000000000000
FF80000000000000
FF80000000000000
FF80000000000000
FF80000000000000
FF80000000000000
FF80000000000000
FF80000000000000
FFFFFFFF80000000
FFFFFFFF80000000
FFFFFFFF80000000
FFFFFFFF80000000
FF80000000000000
FF80000000000000
FF80000000000000
FF80000000000000
FF80000000000000
FF80000000000000
FF80000000000000
FF80000000000000
FFFFFFFFFFF80000
FFFFFFFFFFF80000
FFFFFFFFFFF80000
FFFFFFFFFFF80000
0000000000000000
0000000000000000
0000000000000000
0000000000000000
0000000000000000
0000000000000000
0000000000000000
0000000000000000
ENDCHAR
STARTCHAR U+0044
ENCODING 68
SWIDTH 1000 0
BBX 60 40 0 -8
DWIDTH 60 0
BITMAP
0000000000000000
0000000000000000
0000000000000000
0000000000000000
FFFFFFFF80000000
FFFFFFFF80000000
FFFFFFFF80000000
FFFFFFFF80000000
03FE0003FE000000
03FE0003FE000000
03FE0003FE000000
03FE0003FE000000
03FE00000FF80000
03FE00000FF80000
03FE00000FF80000
03FE00000FF80000
03FE00000FF80000
03FE00000FF80000
03FE00000FF80000
03FE00000FF80000
03FE00000FF80000
03FE00000FF80000
03FE00000FF80000
03FE00000FF80000
03FE0003FE000000
03FE0003FE000000
03FE0003FE000000
03FE0003FE000000
FFFFFFFF80000000
FFFFFFFF80000000
FFFFFFFF80000000
FFFFFFFF80000000
0000000000000000
0000000000000000
0000000000000000
0000000000000000
0000000000000000
0000000000000000
0000000000000000
0000000000000000
ENDCHAR
STARTCHAR U+0043
ENCODING 67
SWIDTH 1000 0
BBX 60 40 0 -8
DWIDTH 60 0
BITMAP
0000000000000000
0000000000000000
0000000000000000
0000000000000000
000FFFFFFE000000
000FFFFFFE000000
000FFFFFFE000000
000FFFFFFE000000
03FE00000FF80000
03FE00000FF80000
03FE00000FF80000
03FE00000FF80000
FF80000000000000
FF80000000000000
FF80000000000000
FF80000000000000
FF80000000000000
FF80000000000000
FF80000000000000
FF80000000000000
FF80000000000000
FF80000000000000
FF80000000000000
FF80000000000000
03FE00000FF80000
03FE00000FF80000
03FE00000FF80000
03FE00000FF80000
000FFFFFFE000000
000FFFFFFE000000
000FFFFFFE000000
000FFFFFFE000000
0000000000000000
0000000000000000
0000000000000000
0000000000000000
0000000000000000
0000000000000000
0000000000000000
0000000000000000
ENDCHAR
STARTCHAR U+0042
ENCODING 66
SWIDTH 1000 0
BBX 60 40 0 -8
DWIDTH 60 0
BITMAP
0000000000000000
0000000000000000
0000000000000000
0000000000000000
FFFFFFFFFE000000
FFFFFFFFFE000000
FFFFFFFFFE000000
FFFFFFFFFE000000
03FE00000FF80000
03FE00000FF80000
03FE00000FF80000
03FE00000FF80000
03FE00000FF80000
03FE00000FF80000
03FE00000FF80000
03FE00000FF80000
03FFFFFFFE000000
03FFFFFFFE000000
03FFFFFFFE000000
03FFFFFFFE000000
03FE00000FF80000
03FE00000FF80000
03FE00000FF80000
03FE00000FF80000
03FE00000FF80000
03FE00000FF80000
03FE00000FF80000
03FE00000FF80000
FFFFFFFFFE000000
FFFFFFFFFE000000
FFFFFFFFFE000000
FFFFFFFFFE000000
0000000000000000
0000000000000000
0000000000000000
0000000000000000
0000000000000000
0000000000000000
0000000000000000
0000000000000000
ENDCHAR
STARTCHAR U+0041
ENCODING 65
SWIDTH 1000 0
BBX 60 40 0 -8
DWIDTH 60 0
BITMAP
0000000000000000
0000000000000000
0000000000000000
0000000000000000
00003FE000000000
00003FE000000000
00003FE000000000
00003FE000000000
000FF8FF80000000
000FF8FF80000000
000FF8FF80000000
000FF8FF80000000
03FE0003FE000000
03FE0003FE000000
03FE0003FE000000
03FE0003FE000000
FF8000000FF80000
FF8000000FF80000
FF8000000FF80000
FF8000000FF80000
FFFFFFFFFFF80000
FFFFFFFFFFF80000
FFFFFFFFFFF80000
FFFFFFFFFFF80000
FF8000000FF80000
FF8000000FF80000
FF8000000FF80000
FF8000000FF80000
FF8000000FF80000
FF8000000FF80000
FF8000000FF80000
FF8000000FF80000
0000000000000000
0000000000000000
0000000000000000
0000000000000000
0000000000000000
0000000000000000
0000000000000000
0000000000000000
ENDCHAR
STARTCHAR U+0040
ENCODING 64
SWIDTH 1000 0
BBX 60 40 0 -8
DWIDTH 60 0
BITMAP
0000000000000000
0000000000000000
0000000000000000
0000000000000000
03FFFFFFFE000000
03FFFFFFFE000000
03FFFFFFFE000000
03FFFFFFFE000000
FF8000000FF80000
FF8000000FF80000
FF8000000FF80000
FF8000000FF80000
FF803FFFFFF80000
FF803FFFFFF80000
FF803FFFFFF80000
FF803FFFFFF80000
FF8FF803FFF80000
FF8FF803FFF80000
FF8FF803FFF80000
FF8FF803FFF80000
FF803FFF8FF80000
FF803FFF8FF80000
FF803FFF8FF80000
FF803FFF8FF80000
FF80000000000000
FF80000000000000
FF80000000000000
FF80000000000000
03FFFFFFFE000000
03FFFFFFFE000000
03FFFFFFFE000000
03FFFFFFFE000000
0000000000000000
0000000000000000
0000000000000000
0000000000000000
0000000000000000
0000000000000000
0000000000000000
0000000000000000
ENDCHAR
STARTCHAR U+003F
ENCODING 63
SWIDTH 1000 0
BBX 60 40 0 -8
DWIDTH 60 0
BITMAP
0000000000000000
0000000000000000
0000000000000000
0000000000000000
03FFFFFFFE000000
03FFFFFFFE000000
03FFFFFFFE000000
03FFFFFFFE000000
FF8000000FF80000
FF8000000FF80000
FF8000000FF80000
FF8000000FF80000
000000FFFE000000
000000FFFE000000
000000FFFE000000
000000FFFE000000
00003FE000000000
00003FE000000000
00003FE000000000
00003FE000000000
00003FE000000000
00003FE000000000
00003FE000000000
00003FE000000000
0000000000000000
0000000000000000
0000000000000000
0000000000000000
00003FE000000000
00003FE000000000
00003FE000000000
00003FE000000000
0000000000000000
0000000000000000
0000000000000000
0000000000000000
0000000000000000
0000000000000000
0000000000000000
0000000000000000
ENDCHAR
STARTCHAR U+003E
ENCODING 62
SWIDTH 1000 0
BBX 60 40 0 -8
DWIDTH 60 0
BITMAP
0000000000000000
0000000000000000
0000000000000000
0000000000000000
FF80000000000000
FF80000000000000
FF80000000000000
FF80000000000000
000FF80000000000
000FF80000000000
000FF80000000000
000FF80000000000
000000FF80000000
000000FF80000000
000000FF80000000
000000FF80000000
000000000FF80000
000000000FF80000
000000000FF80000
000000000FF80000
000000FF80000000
000000FF80000000
000000FF80000000
000000FF80000000
000FF80000000000
000FF80000000000
000FF80000000000
000FF80000000000
FF80000000000000
FF80000000000000
FF80000000000000
FF80000000000000
0000000000000000
0000000000000000
0000000000000000
0000000000000000
0000000000000000
0000000000000000
0000000000000000
0000000000000000
ENDCHAR
STARTCHAR U+003D
ENCODING 61
SWIDTH 1000 0
BBX 60 40 0 -8
DWIDTH 60 0
BITMAP
0000000000000000
0000000000000000
0000000000000000
0000000000000000
0000000000000000
0000000000000000
0000000000000000
0000000000000000
0000000000000000
0000000000000000
0000000000000000
0000000000000000
FFFFFFFFFFF80000
FFFFFFFFFFF80000
FFFFFFFFFFF80000
FFFFFFFFFFF80000
0000000000000000
0000000000000000
0000000000000000
0000000000000000
FFFFFFFFFFF80000
FFFFFFFFFFF80000
FFFFFFFFFFF80000
FFFFFFFFFFF80000
0000000000000000
0000000000000000
0000000000000000
0000000000000000
0000000000000000
0000000000000000
0000000000000000
0000000000000000
0000000000000000
0000000000000000
0000000000000000
0000000000000000
0000000000000000
0000000000000000
0000000000000000
0000000000000000
ENDCHAR
STARTCHAR U+003C
ENCODING 60
SWIDTH 1000 0
BBX 60 40 0 -8
DWIDTH 60 0
BITMAP
0000000000000000
0000000000000000
0000000000000000
0000000000000000
000000000FF80000
000000000FF80000
000000000FF80000
000000000FF80000
000000FF80000000
000000FF80000000
000000FF80000000
000000FF80000000
000FF80000000000
000FF80000000000
000FF80000000000
000FF80000000000
FF80000000000000
FF80000000000000
FF80000000000000
FF80000000000000
000FF80000000000
000FF80000000000
000FF80000000000
000FF80000000000
000000FF80000000
000000FF80000000
000000FF80000000
000000FF80000000
000000000FF80000
000000000FF80000
000000000FF80000
000000000FF80000
0000000000000000
0000000000000000
0000000000000000
0000000000000000
0000000000000000
0000000000000000
0000000000000000
0000000000000000
ENDCHAR
STARTCHAR U+003B
ENCODING 59
SWIDTH 1000 0
BBX 60 40 0 -8
DWIDTH 60 0
BITMAP
0000000000000000
0000000000000000
0000000000000000
0000000000000000
0000000000000000
0000000000000000
0000000000000000
0000000000000000
000FFFE000000000
000FFFE000000000
000FFFE000000000
000FFFE000000000
000FFFE000000000
000FFFE000000000
000FFFE000000000
000FFFE000000000
0000000000000000
0000000000000000
0000000000000000
0000000000000000
0000000000000000
0000000000000000
0000000000000000
0000000000000000
000FFFE000000000
000FFFE000000000
000FFFE000000000
000FFFE000000000
000FF80000000000
000FF80000000000
000FF80000000000
000FF80000000000
03FE000000000000
03FE000000000000
03FE000000000000
03FE000000000000
0000000000000000
0000000000000000
0000000000000000
0000000000000000
ENDCHAR
STARTCHAR U+003A
ENCODING 58
SWIDTH 1000 0
BBX 60 40 0 -8
DWIDTH 60 0
BITMAP
0000000000000000
0000000000000000
0000000000000000
0000000000000000
0000000000000000
0000000000000000
0000000000000000
0000000000000000
000FFFE000000000
000FFFE000000000
000FFFE000000000
000FFFE000000000
000FFFE000000000
000FFFE000000000
000FFFE000000000
000FFFE000000000
0000000000000000
0000000000000000
0000000000000000
0000000000000000
0000000000000000
0000000000000000
0000000000000000
0000000000000000
000FFFE000000000
000FFFE000000000
000FFFE000000000
000FFFE000000000
000FFFE000000000
000FFFE000000000
000FFFE000000000
000FFFE000000000
0000000000000000
0000000000000000
0000000000000000
0000000000000000
0000000000000000
0000000000000000
0000000000000000
0000000000000000
ENDCHAR
STARTCHAR U+0039
ENCODING 57
SWIDTH 1000 0
BBX 60 40 0 -8
DWIDTH 60 0
BITMAP
0000000000000000
0000000000000000
0000000000000000
0000000000000000
03FFFFFFFE000000
03FFFFFFFE000000
03FFFFFFFE000000
03FFFFFFFE000000
FF8000000FF80000
FF8000000FF80000
FF8000000FF80000
FF8000000FF80000
FF800003FFF80000
FF800003FFF80000
FF800003FFF80000
FF800003FFF80000
03FFFFFF8FF80000
03FFFFFF8FF80000
03FFFFFF8FF80000
03FFFFFF8FF80000
000000000FF80000
000000000FF80000
000000000FF80000
000000000FF80000
00000003FE000000
00000003FE000000
00000003FE000000
00000003FE000000
03FFFFFF80000000
03FFFFFF80000000
03FFFFFF80000000
03FFFFFF80000000
0000000000000000
0000000000000000
0000000000000000
0000000000000000
0000000000000000
0000000000000000
0000000000000000
0000000000000000
ENDCHAR
STARTCHAR U+0038
ENCODING 56
SWIDTH 1000 0
BBX 60 40 0 -8
DWIDTH 60 0
BITMAP
0000000000000000
0000000000000000
0000000000000000
0000000000000000
03FFFFFFFE000000
03FFFFFFFE000000
03FFFFFFFE000000
03FFFFFFFE000000
FF8000000FF80000
FF8000000FF80000
FF8000000FF80000
FF8000000FF80000
FF8000000FF80000
FF8000000FF80000
FF8000000FF80000
FF8000000FF80000
03FFFFFFFE000000
03FFFFFFFE000000
03FFFFFFFE000000
03FFFFFFFE000000
FF8000000FF80000
FF8000000FF80000
FF8000000FF80000
FF8000000FF80000
FF8000000FF80000
FF8000000FF80000
FF8000000FF80000
FF8000000FF80000
03FFFFFFFE000000
03FFFFFFFE000000
03FFFFFFFE000000
03FFFFFFFE000000
0000000000000000
0000000000000000
0000000000000000
0000000000000000
0000000000000000
0000000000000000
0000000000000000
0000000000000000
ENDCHAR
STARTCHAR U+0037
ENCODING 55
SWIDTH 1000 0
BBX 60 40 0 -8
DWIDTH 60 0
BITMAP
0000000000000000
0000000000000000
0000000000000000
0000000000000000
FFFFFFFFFFF80000
FFFFFFFFFFF80000
FFFFFFFFFFF80000
FFFFFFFFFFF80000
000000000FF80000
000000000FF80000
000000000FF80000
000000000FF80000
00000003FE000000
00000003FE000000
00000003FE000000
00000003FE000000
000000FF80000000
000000FF80000000
000000FF80000000
000000FF80000000
00003FE000000000
00003FE000000000
00003FE000000000
00003FE000000000
000FF80000000000
000FF80000000000
000FF80000000000
000FF80000000000
000FF80000000000
000FF80000000000
000FF80000000000
000FF80000000000
0000000000000000
0000000000000000
0000000000000000
0000000000000000
0000000000000000
0000000000000000
0000000000000000
0000000000000000
ENDCHAR
STARTCHAR U+0036
ENCODING 54
SWIDTH 1000 0
BBX 60 40 0 -8
DWIDTH 60 0
BITMAP
0000000000000000
0000000000000000
0000000000000000
0000000000000000
000FFFFFFE000000
000FFFFFFE000000
000FFFFFFE000000
000FFFFFFE000000
03FE000000000000
03FE000000000000
03FE000000000000
03FE000000000000
FF80000000000000
FF80000000000000
FF80000000000000
FF80000000000000
FF8FFFFFFE000000
FF8FFFFFFE000000
FF8FFFFFFE000000
FF8FFFFFFE000000
FFFE00000FF80000
FFFE00000FF80000
FFFE00000FF80000
FFFE00000FF80000
FF8000000FF80000
FF8000000FF80000
FF8000000FF80000
FF8000000FF80000
03FFFFFFFE000000
03FFFFFFFE000000
03FFFFFFFE000000
03FFFFFFFE000000
0000000000000000
0000000000000000
0000000000000000
0000000000000000
0000000000000000
0000000000000000
0000000000000000
0000000000000000
ENDCHAR
STARTCHAR U+0035
ENCODING 53
SWIDTH 1000 0
BBX 60 40 0 -8
DWIDTH 60 0
BITMAP
0000000000000000
0000000000000000
0000000000000000
0000000000000000
FFFFFFFFFFF80000
FFFFFFFFFFF80000
FFFFFFFFFFF80000
FFFFFFFFFFF80000
FF80000000000000
FF80000000000000
FF80000000000000
FF80000000000000
FF8FFFFFFE000000
FF8FFFFFFE000000
FF8FFFFFFE000000
FF8FFFFFFE000000
FFFE00000FF80000
FFFE00000FF80000
FFFE00000FF80000
FFFE00000FF80000
000000000FF80000
000000000FF80000
000000000FF80000
000000000FF80000
FF8000000FF80000
FF8000000FF80000
FF8000000FF80000
FF8000000FF80000
03FFFFFFFE000000
03FFFFFFFE000000
03FFFFFFFE000000
03FFFFFFFE000000
0000000000000000
0000000000000000
0000000000000000
0000000000000000
0000000000000000
0000000000000000
0000000000000000
0000000000000000
ENDCHAR
STARTCHAR U+0034
ENCODING 52
SWIDTH 1000 0
BBX 60 40 0 -8
DWIDTH 60 0
BITMAP
0000000000000000
0000000000000000
0000000000000000
0000000000000000
000000FF80000000
000000FF80000000
000000FF80000000
000000FF80000000
00003FFF80000000
00003FFF80000000
00003FFF80000000
00003FFF80000000
000FF8FF80000000
000FF8FF80000000
000FF8FF80000000
000FF8FF80000000
03FE00FF80000000
03FE00FF80000000
03FE00FF80000000
03FE00FF80000000
FFFFFFFFFFF80000
FFFFFFFFFFF80000
FFFFFFFFFFF80000
FFFFFFFFFFF80000
000000FF80000000
000000FF80000000
000000FF80000000
000000FF80000000
000000FF80000000
000000FF80000000
000000FF80000000
000000FF80000000
0000000000000000
0000000000000000
0000000000000000
0000000000000000
0000000000000000
0000000000000000
0000000000000000
0000000000000000
ENDCHAR
STARTCHAR U+0033
ENCODING 51
SWIDTH 1000 0
BBX 60 40 0 -8
DWIDTH 60 0
BITMAP
0000000000000000
0000000000000000
0000000000000000
0000000000000000
FFFFFFFFFFF80000
FFFFFFFFFFF80000
FFFFFFFFFFF80000
FFFFFFFFFFF80000
00000003FE000000
00000003FE000000
00000003FE000000
00000003FE000000
000000FF80000000
000000FF80000000
000000FF80000000
000000FF80000000
00003FFFFE000000
00003FFFFE000000
00003FFFFE000000
00003FFFFE000000
000000000FF80000
000000000FF80000
000000000FF80000
000000000FF80000
FF8000000FF80000
FF8000000FF80000
FF8000000FF80000
FF8000000FF80000
03FFFFFFFE000000
03FFFFFFFE000000
03FFFFFFFE000000
03FFFFFFFE000000
0000000000000000
0000000000000000
0000000000000000
0000000000000000
0000000000000000
0000000000000000
0000000000000000
0000000000000000
ENDCHAR
STARTCHAR U+0032
ENCODING 50
SWIDTH 1000 0
BBX 60 40 0 -8
DWIDTH 60 0
BITMAP
0000000000000000
0000000000000000
0000000000000000
0000000000000000
03FFFFFFFE000000
03FFFFFFFE000000
03FFFFFFFE000000
03FFFFFFFE000000
FF8000000FF80000
FF8000000FF80000
FF8000000FF80000
FF8000000FF80000
000000000FF80000
000000000FF80000
000000000FF80000
000000000FF80000
00003FFFFE000000
00003FFFFE000000
00003FFFFE000000
00003FFFFE000000
03FFF80000000000
03FFF80000000000
03FFF80000000000
03FFF80000000000
FF80000000000000
FF80000000000000
FF80000000000000
FF80000000000000
FFFFFFFFFFF80000
FFFFFFFFFFF80000
FFFFFFFFFFF80000
FFFFFFFFFFF80000
0000000000000000
0000000000000000
0000000000000000
0000000000000000
0000000000000000
0000000000000000
0000000000000000
0000000000000000
ENDCHAR
STARTCHAR U+0031
ENCODING 49
SWIDTH 1000 0
BBX 60 40 0 -8
DWIDTH 60 0
BITMAP
0000000000000000
0000000000000000
0000000000000000
0000000000000000
00003FE000000000
00003FE000000000
00003FE000000000
00003FE000000000
000FFFE000000000
000FFFE000000000
000FFFE000000000
000FFFE000000000
03FE3FE000000000
03FE3FE000000000
03FE3FE000000000
03FE3FE000000000
00003FE000000000
00003FE000000000
00003FE000000000
00003FE000000000
00003FE000000000
00003FE000000000
00003FE000000000
00003FE000000000
00003FE000000000
00003FE000000000
00003FE000000000
00003FE000000000
03FFFFFFFE000000
03FFFFFFFE000000
03FFFFFFFE000000
03FFFFFFFE000000
0000000000000000
0000000000000000
0000000000000000
0000000000000000
0000000000000000
0000000000000000
0000000000000000
0000000000000000
ENDCHAR
STARTCHAR U+0030
ENCODING 48
SWIDTH 1000 0
BBX 60 40 0 -8
DWIDTH 60 0
BITMAP
0000000000000000
0000000000000000
0000000000000000
0000000000000000
000FFFFF80000000
000FFFFF80000000
000FFFFF80000000
000FFFFF80000000
03FE0003FE000000
03FE0003FE000000
03FE0003FE000000
03FE0003FE000000
FF8000000FF80000
FF8000000FF80000
FF8000000FF80000
FF8000000FF80000
FF8000000FF80000
FF8000000FF80000
FF8000000FF80000
FF8000000FF80000
FF8000000FF80000
FF8000000FF80000
FF8000000FF80000
FF8000000FF80000
03FE0003FE000000
03FE0003FE000000
03FE0003FE000000
03FE0003FE000000
000FFFFF80000000
000FFFFF80000000
000FFFFF80000000
000FFFFF80000000
0000000000000000
0000000000000000
0000000000000000
0000000000000000
0000000000000000
0000000000000000
0000000000000000
0000000000000000
ENDCHAR
STARTCHAR U+002F
ENCODING 47
SWIDTH 1000 0
BBX 60 40 0 -8
DWIDTH 60 0
BITMAP
0000000000000000
0000000000000000
0000000000000000
0000000000000000
000000000FF80000
000000000FF80000
000000000FF80000
000000000FF80000
00000003FE000000
00000003FE000000
00000003FE000000
00000003FE000000
000000FF80000000
000000FF80000000
000000FF80000000
000000FF80000000
00003FE000000000
00003FE000000000
00003FE000000000
00003FE000000000
000FF80000000000
000FF80000000000
000FF80000000000
000FF80000000000
03FE000000000000
03FE000000000000
03FE000000000000
03FE000000000000
FF80000000000000
FF80000000000000
FF80000000000000
FF80000000000000
0000000000000000
0000000000000000
0000000000000000
0000000000000000
0000000000000000
0000000000000000
0000000000000000
0000000000000000
ENDCHAR
STARTCHAR U+002E
ENCODING 46
SWIDTH 1000 0
BBX 60 40 0 -8
DWIDTH 60 0
BITMAP
0000000000000000
0000000000000000
0000000000000000
0000000000000000
0000000000000000
0000000000000000
0000000000000000
0000000000000000
0000000000000000
0000000000000000
0000000000000000
0000000000000000
0000000000000000
0000000000000000
0000000000000000
0000000000000000
0000000000000000
0000000000000000
0000000000000000
0000000000000000
0000000000000000
0000000000000000
0000000000000000
0000000000000000
000FFFE000000000
000FFFE000000000
000FFFE000000000
000FFFE000000000
000FFFE000000000
000FFFE000000000
000FFFE000000000
000FFFE000000000
0000000000000000
0000000000000000
0000000000000000
0000000000000000
0000000000000000
0000000000000000
0000000000000000
0000000000000000
ENDCHAR
STARTCHAR U+002D
ENCODING 45
SWIDTH 1000 0
BBX 60 40 0 -8
DWIDTH 60 0
BITMAP
0000000000000000
0000000000000000
0000000000000000
0000000000000000
0000000000000000
0000000000000000
0000000000000000
0000000000000000
0000000000000000
0000000000000000
0000000000000000
0000000000000000
0000000000000000
0000000000000000
0000000000000000
0000000000000000
FFFFFFFFFFF80000
FFFFFFFFFFF80000
FFFFFFFFFFF80000
FFFFFFFFFFF80000
0000000000000000
0000000000000000
0000000000000000
0000000000000000
0000000000000000
0000000000000000
0000000000000000
0000000000000000
0000000000000000
0000000000000000
0000000000000000
0000000000000000
0000000000000000
0000000000000000
0000000000000000
0000000000000000
0000000000000000
0000000000000000
0000000000000000
0000000000000000
ENDCHAR
STARTCHAR U+002C
ENCODING 44
SWIDTH 1000 0
BBX 60 40 0 -8
DWIDTH 60 0
BITMAP
0000000000000000
0000000000000000
0000000000000000
0000000000000000
0000000000000000
0000000000000000
0000000000000000
0000000000000000
0000000000000000
0000000000000000
0000000000000000
0000000000000000
0000000000000000
0000000000000000
0000000000000000
0000000000000000
0000000000000000
0000000000000000
0000000000000000
0000000000000000
0000000000000000
0000000000000000
0000000000000000
0000000000000000
000FFFE000000000
000FFFE000000000
000FFFE000000000
000FFFE000000000
000FF80000000000
000FF80000000000
000FF80000000000
000FF80000000000
03FE000000000000
03FE000000000000
03FE000000000000
03FE000000000000
0000000000000000
0000000000000000
0000000000000000
0000000000000000
ENDCHAR
STARTCHAR U+002B
ENCODING 43
SWIDTH 1000 0
BBX 60 40 0 -8
DWIDTH 60 0
BITMAP
0000000000000000
0000000000000000
0000000000000000
0000000000000000
0000000000000000
0000000000000000
0000000000000000
0000000000000000
00003FE000000000
00003FE000000000
00003FE000000000
00003FE000000000
00003FE000000000
00003FE000000000
00003FE000000000
00003FE000000000
FFFFFFFFFFF80000
FFFFFFFFFFF80000
FFFFFFFFFFF80000
FFFFFFFFFFF80000
00003FE000000000
00003FE000000000
00003FE000000000
00003FE000000000
00003FE000000000
00003FE000000000
00003FE000000000
00003FE000000000
0000000000000000
0000000000000000
0000000000000000
0000000000000000
0000000000000000
0000000000000000
0000000000000000
0000000000000000
0000000000000000
0000000000000000
0000000000000000
0000000000000000
ENDCHAR
STARTCHAR U+002A
ENCODING 42
SWIDTH 1000 0
BBX 60 40 0 -8
DWIDTH 60 0
BITMAP
0000000000000000
0000000000000000
0000000000000000
0000000000000000
0000000000000000
0000000000000000
0000000000000000
0000000000000000
03FE0003FE000000
03FE0003FE000000
03FE0003FE000000
03FE0003FE000000
000FF8FF80000000
000FF8FF80000000
000FF8FF80000000
000FF8FF80000000
FFFFFFFFFFF80000
FFFFFFFFFFF80000
FFFFFFFFFFF80000
FFFFFFFFFFF80000
000FF8FF80000000
000FF8FF80000000
000FF8FF80000000
000FF8FF80000000
03FE0003FE000000
03FE0003FE000000
03FE0003FE000000
03FE0003FE000000
0000000000000000
0000000000000000
0000000000000000
0000000000000000
0000000000000000
0000000000000000
0000000000000000
0000000000000000
0000000000000000
0000000000000000
0000000000000000
0000000000000000
ENDCHAR
STARTCHAR U+0029
ENCODING 41
SWIDTH 1000 0
BBX 60 40 0 -8
DWIDTH 60 0
BITMAP
0000000000000000
0000000000000000
0000000000000000
0000000000000000
000FF80000000000
000FF80000000000
000FF80000000000
000FF80000000000
00003FE000000000
00003FE000000000
00003FE000000000
00003FE000000000
000000FF80000000
000000FF80000000
000000FF80000000
000000FF80000000
000000FF80000000
000000FF80000000
000000FF80000000
000000FF80000000
000000FF80000000
000000FF80000000
000000FF80000000
000000FF80000000
00003FE000000000
00003FE000000000
00003FE000000000
00003FE000000000
000FF80000000000
000FF80000000000
000FF80000000000
000FF80000000000
0000000000000000
0000000000000000
0000000000000000
0000000000000000
0000000000000000
0000000000000000
0000000000000000
0000000000000000
ENDCHAR
STARTCHAR U+0028
ENCODING 40
SWIDTH 1000 0
BBX 60 40 0 -8
DWIDTH 60 0
BITMAP
0000000000000000
0000000000000000
0000000000000000
0000000000000000
000000FF80000000
000000FF80000000
000000FF80000000
000000FF80000000
00003FE000000000
00003FE000000000
00003FE000000000
00003FE000000000
000FF80000000000
000FF80000000000
000FF80000000000
000FF80000000000
000FF80000000000
000FF80000000000
000FF80000000000
000FF80000000000
000FF80000000000
000FF80000000000
000FF80000000000
000FF80000000000
00003FE000000000
00003FE000000000
00003FE000000000
00003FE000000000
000000FF80000000
000000FF80000000
000000FF80000000
000000FF80000000
0000000000000000
0000000000000000
0000000000000000
0000000000000000
0000000000000000
0000000000000000
0000000000000000
0000000000000000
ENDCHAR
STARTCHAR U+0027
ENCODING 39
SWIDTH 1000 0
BBX 60 40 0 -8
DWIDTH 60 0
BITMAP
0000000000000000
0000000000000000
0000000000000000
0000000000000000
00003FFF80000000
00003FFF80000000
00003FFF80000000
00003FFF80000000
00003FE000000000
00003FE000000000
00003FE000000000
00003FE000000000
000FF80000000000
000FF80000000000
000FF80000000000
000FF80000000000
0000000000000000
0000000000000000
0000000000000000
0000000000000000
0000000000000000
0000000000000000
0000000000000000
0000000000000000
0000000000000000
0000000000000000
0000000000000000
0000000000000000
0000000000000000
0000000000000000
0000000000000000
0000000000000000
0000000000000000
0000000000000000
0000000000000000
0000000000000000
0000000000000000
0000000000000000
0000000000000000
0000000000000000
ENDCHAR
STARTCHAR U+0026
ENCODING 38
SWIDTH 1000 0
BBX 60 40 0 -8
DWIDTH 60 0
BITMAP
0000000000000000
0000000000000000
0000000000000000
0000000000000000
03FFFFE000000000
03FFFFE000000000
03FFFFE000000000
03FFFFE000000000
FF8000FF80000000
FF8000FF80000000
FF8000FF80000000
FF8000FF80000000
FF8000FF80000000
FF8000FF80000000
FF8000FF80000000
FF8000FF80000000
03FFFFE000000000
03FFFFE000000000
03FFFFE000000000
03FFFFE000000000
FF8000FF8FF80000
FF8000FF8FF80000
FF8000FF8FF80000
FF8000FF8FF80000
FF800003FE000000
FF800003FE000000
FF800003FE000000
FF800003FE000000
03FFFFFF8FF80000
03FFFFFF8FF80000
03FFFFFF8FF80000
03FFFFFF8FF80000
0000000000000000
0000000000000000
0000000000000000
0000000000000000
0000000000000000
0000000000000000
0000000000000000
0000000000000000
ENDCHAR
STARTCHAR U+0025
ENCODING 37
SWIDTH 1000 0
BBX 60 40 0 -8
DWIDTH 60 0
BITMAP
0000000000000000
0000000000000000
0000000000000000
0000000000000000
03FE00000FF80000
03FE00000FF80000
03FE00000FF80000
03FE00000FF80000
FF8FF803FE000000
FF8FF803FE000000
FF8FF803FE000000
FF8FF803FE000000
03FE00FF80000000
03FE00FF80000000
03FE00FF80000000
03FE00FF80000000
00003FE000000000
00003FE000000000
00003FE000000000
00003FE000000000
000FF803FE000000
000FF803FE000000
000FF803FE000000
000FF803FE000000
03FE00FF8FF80000
03FE00FF8FF80000
03FE00FF8FF80000
03FE00FF8FF80000
FF800003FE000000
FF800003FE000000
FF800003FE000000
FF800003FE000000
0000000000000000
0000000000000000
0000000000000000
0000000000000000
0000000000000000
0000000000000000
0000000000000000
0000000000000000
ENDCHAR
STARTCHAR U+0024
ENCODING 36
SWIDTH 1000 0
BBX 60 40 0 -8
DWIDTH 60 0
BITMAP
0000000000000000
0000000000000000
0000000000000000
0000000000000000
00003FE000000000
00003FE000000000
00003FE000000000
00003FE000000000
03FFFFFFFE000000
03FFFFFFFE000000
03FFFFFFFE000000
03FFFFFFFE000000
FF803FE000000000
FF803FE000000000
FF803FE000000000
FF803FE000000000
03FFFFFFFE000000
03FFFFFFFE000000
03FFFFFFFE000000
03FFFFFFFE000000
00003FE00FF80000
00003FE00FF80000
00003FE00FF80000
00003FE00FF80000
03FFFFFFFE000000
03FFFFFFFE000000
03FFFFFFFE000000
03FFFFFFFE000000
00003FE000000000
00003FE000000000
00003FE000000000
00003FE000000000
0000000000000000
0000000000000000
0000000000000000
0000000000000000
0000000000000000
0000000000000000
0000000000000000
0000000000000000
ENDCHAR
STARTCHAR U+0023
ENCODING 35
SWIDTH 1000 0
BBX 60 40 0 -8
DWIDTH 60 0
BITMAP
0000000000000000
0000000000000000
0000000000000000
0000000000000000
03FE00FF80000000
03FE00FF80000000
03FE00FF80000000
03FE00FF80000000
03FE00FF80000000
03FE00FF80000000
03FE00FF80000000
03FE00FF80000000
FFFFFFFFFE000000
FFFFFFFFFE000000
FFFFFFFFFE000000
FFFFFFFFFE000000
03FE00FF80000000
03FE00FF80000000
03FE00FF80000000
03FE00FF80000000
FFFFFFFFFE000000
FFFFFFFFFE000000
FFFFFFFFFE000000
FFFFFFFFFE000000
03FE00FF80000000
03FE00FF80000000
03FE00FF80000000
03FE00FF80000000
03FE00FF80000000
03FE00FF80000000
03FE00FF80000000
03FE00FF80000000
0000000000000000
0000000000000000
0000000000000000
0000000000000000
0000000000000000
0000000000000000
0000000000000000
0000000000000000
ENDCHAR
STARTCHAR U+0022
ENCODING 34
SWIDTH 1000 0
BBX 60 40 0 -8
DWIDTH 60 0
BITMAP
0000000000000000
0000000000000000
0000000000000000
0000000000000000
03FE00FF80000000
03FE00FF80000000
03FE00FF80000000
03FE00FF80000000
03FE00FF80000000
03FE00FF80000000
03FE00FF80000000
03FE00FF80000000
03FE00FF80000000
03FE00FF80000000
03FE00FF80000000
03FE00FF80000000
0000000000000000
0000000000000000
0000000000000000
0000000000000000
0000000000000000
0000000000000000
0000000000000000
0000000000000000
0000000000000000
0000000000000000
0000000000000000
0000000000000000
0000000000000000
0000000000000000
0000000000000000
0000000000000000
0000000000000000
0000000000000000
0000000000000000
0000000000000000
0000000000000000
0000000000000000
0000000000000000
0000000000000000
ENDCHAR
STARTCHAR U+0021
ENCODING 33
SWIDTH 1000 0
BBX 60 40 0 -8
DWIDTH 60 0
BITMAP
0000000000000000
0000000000000000
0000000000000000
0000000000000000
00003FE000000000
00003FE000000000
00003FE000000000
00003FE000000000
00003FE000000000
00003FE000000000
00003FE000000000
00003FE000000000
00003FE000000000
00003FE000000000
00003FE000000000
00003FE000000000
00003FE000000000
00003FE000000000
00003FE000000000
00003FE000000000
00003FE000000000
00003FE000000000
00003FE000000000
00003FE000000000
0000000000000000
0000000000000000
0000000000000000
0000000000000000
00003FE000000000
00003FE000000000
00003FE000000000
00003FE000000000
0000000000000000
0000000000000000
0000000000000000
0000000000000000
0000000000000000
0000000000000000
0000000000000000
0000000000000000
ENDCHAR
STARTCHAR U+2E2E
ENCODING 11822
SWIDTH 1000 0
BBX 60 40 0 -8
DWIDTH 60 0
BITMAP
0000000000000000
0000000000000000
0000000000000000
0000000000000000
03FFFFFFFE000000
03FFFFFFFE000000
03FFFFFFFE000000
03FFFFFFFE000000
FF8000000FF80000
FF8000000FF80000
FF8000000FF80000
FF8000000FF80000
03FFF80000000000
03FFF80000000000
03FFF80000000000
03FFF80000000000
00003FE000000000
00003FE000000000
00003FE000000000
00003FE000000000
00003FE000000000
00003FE000000000
00003FE000000000
00003FE000000000
0000000000000000
0000000000000000
0000000000000000
0000000000000000
00003FE000000000
00003FE000000000
00003FE000000000
00003FE000000000
0000000000000000
0000000000000000
0000000000000000
0000000000000000
0000000000000000
0000000000000000
0000000000000000
0000000000000000
ENDCHAR
STARTCHAR U+00b7
ENCODING 183
SWIDTH 1000 0
BBX 60 40 0 -8
DWIDTH 60 0
BITMAP
0000000000000000
0000000000000000
0000000000000000
0000000000000000
0000000000000000
0000000000000000
0000000000000000
0000000000000000
0000000000000000
0000000000000000
0000000000000000
0000000000000000
0000000000000000
0000000000000000
0000000000000000
0000000000000000
00003FE000000000
00003FE000000000
00003FE000000000
00003FE000000000
0000000000000000
0000000000000000
0000000000000000
0000000000000000
0000000000000000
0000000000000000
0000000000000000
0000000000000000
0000000000000000
0000000000000000
0000000000000000
0000000000000000
0000000000000000
0000000000000000
0000000000000000
0000000000000000
0000000000000000
0000000000000000
0000000000000000
0000000000000000
ENDCHAR
STARTCHAR U+00A3
ENCODING 163
SWIDTH 1000 0
BBX 60 40 0 -8
DWIDTH 60 0
BITMAP
0000000000000000
0000000000000000
0000000000000000
0000000000000000
00003FFFFE000000
00003FFFFE000000
00003FFFFE000000
00003FFFFE000000
000FF8000FF80000
000FF8000FF80000
000FF8000FF80000
000FF8000FF80000
000FF80000000000
000FF80000000000
000FF80000000000
000FF80000000000
FFFFFFFF80000000
FFFFFFFF80000000
FFFFFFFF80000000
FFFFFFFF80000000
000FF80000000000
000FF80000000000
000FF80000000000
000FF80000000000
03FFFFFF80000000
03FFFFFF80000000
03FFFFFF80000000
03FFFFFF80000000
FF8FF803FFF80000
FF8FF803FFF80000
FF8FF803FFF80000
FF8FF803FFF80000
03FE000000000000
03FE000000000000
03FE000000000000
03FE000000000000
0000000000000000
0000000000000000
0000000000000000
0000000000000000
ENDCHAR
STARTCHAR U+2260
ENCODING 8800
SWIDTH 1000 0
BBX 60 40 0 -8
DWIDTH 60 0
BITMAP
0000000000000000
0000000000000000
0000000000000000
0000000000000000
000000000FF80000
000000000FF80000
000000000FF80000
000000000FF80000
00000003FE000000
00000003FE000000
00000003FE000000
00000003FE000000
FFFFFFFFFFF80000
FFFFFFFFFFF80000
FFFFFFFFFFF80000
FFFFFFFFFFF80000
00003FE000000000
00003FE000000000
00003FE000000000
00003FE000000000
FFFFFFFFFFF80000
FFFFFFFFFFF80000
FFFFFFFFFFF80000
FFFFFFFFFFF80000
03FE000000000000
03FE000000000000
03FE000000000000
03FE000000000000
FF80000000000000
FF80000000000000
FF80000000000000
FF80000000000000
0000000000000000
0000000000000000
0000000000000000
0000000000000000
0000000000000000
0000000000000000
0000000000000000
0000000000000000
ENDCHAR
STARTCHAR U+03C0
ENCODING 960
SWIDTH 1000 0
BBX 60 40 0 -8
DWIDTH 60 0
BITMAP
0000000000000000
0000000000000000
0000000000000000
0000000000000000
0000000000000000
0000000000000000
0000000000000000
0000000000000000
0000000000000000
0000000000000000
0000000000000000
0000000000000000
FFFFFFFFFFF80000
FFFFFFFFFFF80000
FFFFFFFFFFF80000
FFFFFFFFFFF80000
000FF803FE000000
000FF803FE000000
000FF803FE000000
000FF803FE000000
000FF803FE000000
000FF803FE000000
000FF803FE000000
000FF803FE000000
000FF803FE000000
000FF803FE000000
000FF803FE000000
000FF803FE000000
03FE0003FE000000
03FE0003FE000000
03FE0003FE000000
03FE0003FE000000
0000000000000000
0000000000000000
0000000000000000
0000000000000000
0000000000000000
0000000000000000
0000000000000000
0000000000000000
ENDCHAR
STARTCHAR U+2265
ENCODING 8805
SWIDTH 1000 0
BBX 60 40 0 -8
DWIDTH 60 0
BITMAP
0000000000000000
0000000000000000
0000000000000000
0000000000000000
FF80000000000000
FF80000000000000
FF80000000000000
FF80000000000000
000FF80000000000
000FF80000000000
000FF80000000000
000FF80000000000
000000FF80000000
000000FF80000000
000000FF80000000
000000FF80000000
000000000FF80000
000000000FF80000
000000000FF80000
000000000FF80000
000000FF80000000
000000FF80000000
000000FF80000000
000000FF80000000
000FF80000000000
000FF80000000000
000FF80000000000
000FF80000000000
FF80000000000000
FF80000000000000
FF80000000000000
FF80000000000000
FFFFFFFFFFF80000
FFFFFFFFFFF80000
FFFFFFFFFFF80000
FFFFFFFFFFF80000
0000000000000000
0000000000000000
0000000000000000
0000000000000000
ENDCHAR
STARTCHAR U+2264
ENCODING 8804
SWIDTH 1000 0
BBX 60 40 0 -8
DWIDTH 60 0
BITMAP
0000000000000000
0000000000000000
0000000000000000
0000000000000000
000000000FF80000
000000000FF80000
000000000FF80000
000000000FF80000
000000FF80000000
000000FF80000000
000000FF80000000
000000FF80000000
000FF80000000000
000FF80000000000
000FF80000000000
000FF80000000000
FF80000000000000
FF80000000000000
FF80000000000000
FF80000000000000
000FF80000000000
000FF80000000000
000FF80000000000
000FF80000000000
000000FF80000000
000000FF80000000
000000FF80000000
000000FF80000000
000000000FF80000
000000000FF80000
000000000FF80000
000000000FF80000
FFFFFFFFFFF80000
FFFFFFFFFFF80000
FFFFFFFFFFF80000
FFFFFFFFFFF80000
0000000000000000
0000000000000000
0000000000000000
0000000000000000
ENDCHAR
STARTCHAR U+2502
ENCODING 9474
SWIDTH 1000 0
BBX 60 40 0 -8
DWIDTH 60 0
BITMAP
00003FE000000000
00003FE000000000
00003FE000000000
00003FE000000000
00003FE000000000
00003FE000000000
00003FE000000000
00003FE000000000
00003FE000000000
00003FE000000000
00003FE000000000
00003FE000000000
00003FE000000000
00003FE000000000
00003FE000000000
00003FE000000000
00003FE000000000
00003FE000000000
00003FE000000000
00003FE000000000
00003FE000000000
00003FE000000000
00003FE000000000
00003FE000000000
00003FE000000000
00003FE000000000
00003FE000000000
00003FE000000000
00003FE000000000
00003FE000000000
00003FE000000000
00003FE000000000
00003FE000000000
00003FE000000000
00003FE000000000
00003FE000000000
00003FE000000000
00003FE000000000
00003FE000000000
00003FE000000000
ENDCHAR
STARTCHAR U+253C
ENCODING 9532
SWIDTH 1000 0
BBX 60 40 0 -8
DWIDTH 60 0
BITMAP
0000000000000000
0000000000000000
0000000000000000
0000000000000000
0000000000000000
0000000000000000
0000000000000000
0000000000000000
0000000000000000
0000000000000000
0000000000000000
0000000000000000
0000000000000000
0000000000000000
0000000000000000
0000000000000000
FFFFFFFFFFFFFFF0
FFFFFFFFFFFFFFF0
FFFFFFFFFFFFFFF0
FFFFFFFFFFFFFFF0
00003FE000000000
00003FE000000000
00003FE000000000
00003FE000000000
00003FE000000000
00003FE000000000
00003FE000000000
00003FE000000000
00003FE000000000
00003FE000000000
00003FE000000000
00003FE000000000
00003FE000000000
00003FE000000000
00003FE000000000
00003FE000000000
00003FE000000000
00003FE000000000
00003FE000000000
00003FE000000000
ENDCHAR
STARTCHAR U+2534
ENCODING 9524
SWIDTH 1000 0
BBX 60 40 0 -8
DWIDTH 60 0
BITMAP
00003FE000000000
00003FE000000000
00003FE000000000
00003FE000000000
00003FE000000000
00003FE000000000
00003FE000000000
00003FE000000000
00003FE000000000
00003FE000000000
00003FE000000000
00003FE000000000
00003FE000000000
00003FE000000000
00003FE000000000
00003FE000000000
FFFFFFFFFFFFFFF0
FFFFFFFFFFFFFFF0
FFFFFFFFFFFFFFF0
FFFFFFFFFFFFFFF0
0000000000000000
0000000000000000
0000000000000000
0000000000000000
0000000000000000
0000000000000000
0000000000000000
0000000000000000
0000000000000000
0000000000000000
0000000000000000
0000000000000000
0000000000000000
0000000000000000
0000000000000000
0000000000000000
0000000000000000
0000000000000000
0000000000000000
0000000000000000
ENDCHAR
STARTCHAR U+2524
ENCODING 9508
SWIDTH 1000 0
BBX 60 40 0 -8
DWIDTH 60 0
BITMAP
00003FE000000000
00003FE000000000
00003FE000000000
00003FE000000000
00003FE000000000
00003FE000000000
00003FE000000000
00003FE000000000
00003FE000000000
00003FE000000000
00003FE000000000
00003FE000000000
00003FE000000000
00003FE000000000
00003FE000000000
00003FE000000000
FFFFFFE000000000
FFFFFFE000000000
FFFFFFE000000000
FFFFFFE000000000
00003FE000000000
00003FE000000000
00003FE000000000
00003FE000000000
00003FE000000000
00003FE000000000
00003FE000000000
00003FE000000000
00003FE000000000
00003FE000000000
00003FE000000000
00003FE000000000
00003FE000000000
00003FE000000000
00003FE000000000
00003FE000000000
00003FE000000000
00003FE000000000
00003FE000000000
00003FE000000000
ENDCHAR
STARTCHAR U+251C
ENCODING 9500
SWIDTH 1000 0
BBX 60 40 0 -8
DWIDTH 60 0
BITMAP
00003FE000000000
00003FE000000000
00003FE000000000
00003FE000000000
00003FE000000000
00003FE000000000
00003FE000000000
00003FE000000000
00003FE000000000
00003FE000000000
00003FE000000000
00003FE000000000
00003FE000000000
00003FE000000000
00003FE000000000
00003FE000000000
00003FFFFFFFFFF0
00003FFFFFFFFFF0
00003FFFFFFFFFF0
00003FFFFFFFFFF0
00003FE000000000
00003FE000000000
00003FE000000000
00003FE000000000
00003FE000000000
00003FE000000000
00003FE000000000
00003FE000000000
00003FE000000000
00003FE000000000
00003FE000000000
00003FE000000000
00003FE000000000
00003FE000000000
00003FE000000000
00003FE000000000
00003FE000000000
00003FE000000000
00003FE000000000
00003FE000000000
ENDCHAR
STARTCHAR U+23BD
ENCODING 9149
SWIDTH 1000 0
BBX 60 40 0 -8
DWIDTH 60 0
BITMAP
0000000000000000
0000000000000000
0000000000000000
0000000000000000
0000000000000000
0000000000000000
0000000000000000
0000000000000000
0000000000000000
0000000000000000
0000000000000000
0000000000000000
0000000000000000
0000000000000000
0000000000000000
0000000000000000
0000000000000000
0000000000000000
0000000000000000
0000000000000000
0000000000000000
0000000000000000
0000000000000000
0000000000000000
0000000000000000
0000000000000000
0000000000000000
0000000000000000
0000000000000000
0000000000000000
0000000000000000
0000000000000000
FFFFFFFFFFFFFFF0
FFFFFFFFFFFFFFF0
FFFFFFFFFFFFFFF0
FFFFFFFFFFFFFFF0
0000000000000000
0000000000000000
0000000000000000
0000000000000000
ENDCHAR
STARTCHAR U+23BC
ENCODING 9148
SWIDTH 1000 0
BBX 60 40 0 -8
DWIDTH 60 0
BITMAP
0000000000000000
0000000000000000
0000000000000000
0000000000000000
0000000000000000
0000000000000000
0000000000000000
0000000000000000
0000000000000000
0000000000000000
0000000000000000
0000000000000000
0000000000000000
0000000000000000
0000000000000000
0000000000000000
0000000000000000
0000000000000000
0000000000000000
0000000000000000
0000000000000000
0000000000000000
0000000000000000
0000000000000000
FFFFFFFFFFFFFFF0
FFFFFFFFFFFFFFF0
FFFFFFFFFFFFFFF0
FFFFFFFFFFFFFFF0
0000000000000000
0000000000000000
0000000000000000
0000000000000000
0000000000000000
0000000000000000
0000000000000000
0000000000000000
0000000000000000
0000000000000000
0000000000000000
0000000000000000
ENDCHAR
STARTCHAR U+2500
ENCODING 9472
SWIDTH 1000 0
BBX 60 40 0 -8
DWIDTH 60 0
BITMAP
0000000000000000
0000000000000000
0000000000000000
0000000000000000
0000000000000000
0000000000000000
0000000000000000
0000000000000000
0000000000000000
0000000000000000
0000000000000000
0000000000000000
0000000000000000
0000000000000000
0000000000000000
0000000000000000
FFFFFFFFFFFFFFF0
FFFFFFFFFFFFFFF0
FFFFFFFFFFFFFFF0
FFFFFFFFFFFFFFF0
0000000000000000
0000000000000000
0000000000000000
0000000000000000
0000000000000000
0000000000000000
0000000000000000
0000000000000000
0000000000000000
0000000000000000
0000000000000000
0000000000000000
0000000000000000
0000000000000000
0000000000000000
0000000000000000
0000000000000000
0000000000000000
0000000000000000
0000000000000000
ENDCHAR
STARTCHAR U+23BB
ENCODING 9147
SWIDTH 1000 0
BBX 60 40 0 -8
DWIDTH 60 0
BITMAP
0000000000000000
0000000000000000
0000000000000000
0000000000000000
0000000000000000
0000000000000000
0000000000000000
0000000000000000
FFFFFFFFFFFFFFF0
FFFFFFFFFFFFFFF0
FFFFFFFFFFFFFFF0
FFFFFFFFFFFFFFF0
0000000000000000
0000000000000000
0000000000000000
0000000000000000
0000000000000000
0000000000000000
0000000000000000
0000000000000000
0000000000000000
0000000000000000
0000000000000000
0000000000000000
0000000000000000
0000000000000000
0000000000000000
0000000000000000
0000000000000000
0000000000000000
0000000000000000
0000000000000000
0000000000000000
0000000000000000
0000000000000000
0000000000000000
0000000000000000
0000000000000000
0000000000000000
0000000000000000
ENDCHAR
STARTCHAR U+23BA
ENCODING 9146
SWIDTH 1000 0
BBX 60 40 0 -8
DWIDTH 60 0
BITMAP
FFFFFFFFFFFFFFF0
FFFFFFFFFFFFFFF0
FFFFFFFFFFFFFFF0
FFFFFFFFFFFFFFF0
0000000000000000
0000000000000000
0000000000000000
0000000000000000
0000000000000000
0000000000000000
0000000000000000
0000000000000000
0000000000000000
0000000000000000
0000000000000000
0000000000000000
0000000000000000
0000000000000000
0000000000000000
0000000000000000
0000000000000000
0000000000000000
0000000000000000
0000000000000000
0000000000000000
0000000000000000
0000000000000000
0000000000000000
0000000000000000
0000000000000000
0000000000000000
0000000000000000
0000000000000000
0000000000000000
0000000000000000
0000000000000000
0000000000000000
0000000000000000
0000000000000000
0000000000000000
ENDCHAR
STARTCHAR U+253C
ENCODING 9532
SWIDTH 1000 0
BBX 60 40 0 -8
DWIDTH 60 0
BITMAP
00003FE000000000
00003FE000000000
00003FE000000000
00003FE000000000
00003FE000000000
00003FE000000000
00003FE000000000
00003FE000000000
00003FE000000000
00003FE000000000
00003FE000000000
00003FE000000000
00003FE000000000
00003FE000000000
00003FE000000000
00003FE000000000
FFFFFFFFFFFFFFF0
FFFFFFFFFFFFFFF0
FFFFFFFFFFFFFFF0
FFFFFFFFFFFFFFF0
00003FE000000000
00003FE000000000
00003FE000000000
00003FE000000000
00003FE000000000
00003FE000000000
00003FE000000000
00003FE000000000
00003FE000000000
00003FE000000000
00003FE000000000
00003FE000000000
00003FE000000000
00003FE000000000
00003FE000000000
00003FE000000000
00003FE000000000
00003FE000000000
00003FE000000000
00003FE000000000
ENDCHAR
STARTCHAR U+2514
ENCODING 9492
SWIDTH 1000 0
BBX 60 40 0 -8
DWIDTH 60 0
BITMAP
00003FE000000000
00003FE000000000
00003FE000000000
00003FE000000000
00003FE000000000
00003FE000000000
00003FE000000000
00003FE000000000
00003FE000000000
00003FE000000000
00003FE000000000
00003FE000000000
00003FE000000000
00003FE000000000
00003FE000000000
00003FE000000000
00003FFFFFFFFFF0
00003FFFFFFFFFF0
00003FFFFFFFFFF0
00003FFFFFFFFFF0
0000000000000000
0000000000000000
0000000000000000
0000000000000000
0000000000000000
0000000000000000
0000000000000000
0000000000000000
0000000000000000
0000000000000000
0000000000000000
0000000000000000
0000000000000000
0000000000000000
0000000000000000
0000000000000000
0000000000000000
0000000000000000
0000000000000000
0000000000000000
ENDCHAR
STARTCHAR U+250C
ENCODING 9484
SWIDTH 1000 0
BBX 60 40 0 -8
DWIDTH 60 0
BITMAP
0000000000000000
0000000000000000
0000000000000000
0000000000000000
0000000000000000
0000000000000000
0000000000000000
0000000000000000
0000000000000000
0000000000000000
0000000000000000
0000000000000000
0000000000000000
0000000000000000
0000000000000000
0000000000000000
00003FFFFFFFFFF0
00003FFFFFFFFFF0
00003FFFFFFFFFF0
00003FFFFFFFFFF0
00003FE000000000
00003FE000000000
00003FE000000000
00003FE000000000
00003FE000000000
00003FE000000000
00003FE000000000
00003FE000000000
00003FE000000000
00003FE000000000
00003FE000000000
00003FE000000000
00003FE000000000
00003FE000000000
00003FE000000000
00003FE000000000
00003FE000000000
00003FE000000000
00003FE000000000
00003FE000000000
ENDCHAR
STARTCHAR U+2510
ENCODING 9488
SWIDTH 1000 0
BBX 60 40 0 -8
DWIDTH 60 0
BITMAP
0000000000000000
0000000000000000
0000000000000000
0000000000000000
0000000000000000
0000000000000000
0000000000000000
0000000000000000
0000000000000000
0000000000000000
0000000000000000
0000000000000000
0000000000000000
0000000000000000
0000000000000000
0000000000000000
FFFFFFE000000000
FFFFFFE000000000
FFFFFFE000000000
FFFFFFE000000000
00003FE000000000
00003FE000000000
00003FE000000000
00003FE000000000
00003FE000000000
00003FE000000000
00003FE000000000
00003FE000000000
00003FE000000000
00003FE000000000
00003FE000000000
00003FE000000000
00003FE000000000
00003FE000000000
00003FE000000000
00003FE000000000
00003FE000000000
00003FE000000000
00003FE000000000
00003FE000000000
ENDCHAR
STARTCHAR U+2518
ENCODING 9496
SWIDTH 1000 0
BBX 60 40 0 -8
DWIDTH 60 0
BITMAP
00003FE000000000
00003FE000000000
00003FE000000000
00003FE000000000
00003FE000000000
00003FE000000000
00003FE000000000
00003FE000000000
00003FE000000000
00003FE000000000
00003FE000000000
00003FE000000000
00003FE000000000
00003FE000000000
00003FE000000000
00003FE000000000
FFFFFFE000000000
FFFFFFE000000000
FFFFFFE000000000
FFFFFFE000000000
0000000000000000
0000000000000000
0000000000000000
0000000000000000
0000000000000000
0000000000000000
0000000000000000
0000000000000000
0000000000000000
0000000000000000
0000000000000000
0000000000000000
0000000000000000
0000000000000000
0000000000000000
0000000000000000
0000000000000000
0000000000000000
0000000000000000
0000000000000000
ENDCHAR
STARTCHAR U+240B
ENCODING 9227
SWIDTH 1000 0
BBX 60 40 0 -8
DWIDTH 60 0
BITMAP
0000000000000000
0000000000000000
0000000000000000
0000000000000000
FF8000FF80000000
FF8000FF80000000
FF8000FF80000000
FF8000FF80000000
FF8000FF80000000
FF8000FF80000000
FF8000FF80000000
FF8000FF80000000
03FE3FE000000000
03FE3FE000000000
03FE3FE000000000
03FE3FE000000000
03FE3FE000000000
03FE3FE000000000
03FE3FE000000000
03FE3FE000000000
000FFFFFFFF80000
000FFFFFFFF80000
000FFFFFFFF80000
000FFFFFFFF80000
000000FF80000000
000000FF80000000
000000FF80000000
000000FF80000000
000000FF80000000
000000FF80000000
000000FF80000000
000000FF80000000
000000FF80000000
000000FF80000000
000000FF80000000
000000FF80000000
000000FF80000000
000000FF80000000
000000FF80000000
000000FF80000000
ENDCHAR
STARTCHAR U+2424
ENCODING 9252
SWIDTH 1000 0
BBX 60 40 0 -8
DWIDTH 60 0
BITMAP
0000000000000000
0000000000000000
0000000000000000
0000000000000000
FF8000FF80000000
FF8000FF80000000
FF8000FF80000000
FF8000FF80000000
FFFE00FF80000000
FFFE00FF80000000
FFFE00FF80000000
FFFE00FF80000000
FF8FF8FF80000000
FF8FF8FF80000000
FF8FF8FF80000000
FF8FF8FF80000000
FF803FFF80000000
FF803FFF80000000
FF803FFF80000000
FF803FFF80000000
FF803FFF80000000
FF803FFF80000000
FF803FFF80000000
FF803FFF80000000
00003FE000000000
00003FE000000000
00003FE000000000
00003FE000000000
00003FE000000000
00003FE000000000
00003FE000000000
00003FE000000000
00003FE000000000
00003FE000000000
00003FE000000000
00003FE000000000
00003FFFFFF80000
00003FFFFFF80000
00003FFFFFF80000
00003FFFFFF80000
ENDCHAR
STARTCHAR U+00B1
ENCODING 177
SWIDTH 1000 0
BBX 60 40 0 -8
DWIDTH 60 0
BITMAP
0000000000000000
0000000000000000
0000000000000000
0000000000000000
0000000000000000
0000000000000000
0000000000000000
0000000000000000
00003FE000000000
00003FE000000000
00003FE000000000
00003FE000000000
00003FE000000000
00003FE000000000
00003FE000000000
00003FE000000000
FFFFFFFFFFF80000
FFFFFFFFFFF80000
FFFFFFFFFFF80000
FFFFFFFFFFF80000
00003FE000000000
00003FE000000000
00003FE000000000
00003FE000000000
00003FE000000000
00003FE000000000
00003FE000000000
00003FE000000000
FFFFFFFFFFF80000
FFFFFFFFFFF80000
FFFFFFFFFFF80000
FFFFFFFFFFF80000
0000000000000000
0000000000000000
0000000000000000
0000000000000000
0000000000000000
0000000000000000
0000000000000000
0000000000000000
ENDCHAR
STARTCHAR U+00B0
ENCODING 176
SWIDTH 1000 0
BBX 60 40 0 -8
DWIDTH 60 0
BITMAP
0000000000000000
0000000000000000
0000000000000000
0000000000000000
000FFFFF80000000
000FFFFF80000000
000FFFFF80000000
000FFFFF80000000
03FE0003FE000000
03FE0003FE000000
03FE0003FE000000
03FE0003FE000000
000FFFFF80000000
000FFFFF80000000
000FFFFF80000000
000FFFFF80000000
0000000000000000
0000000000000000
0000000000000000
0000000000000000
0000000000000000
0000000000000000
0000000000000000
0000000000000000
0000000000000000
0000000000000000
0000000000000000
0000000000000000
0000000000000000
0000000000000000
0000000000000000
0000000000000000
0000000000000000
0000000000000000
0000000000000000
0000000000000000
0000000000000000
0000000000000000
0000000000000000
0000000000000000
ENDCHAR
STARTCHAR U+240A
ENCODING 9226
SWIDTH 1000 0
BBX 60 40 0 -8
DWIDTH 60 0
BITMAP
0000000000000000
0000000000000000
0000000000000000
0000000000000000
FF80000000000000
FF80000000000000
FF80000000000000
FF80000000000000
FF80000000000000
FF80000000000000
FF80000000000000
FF80000000000000
FF80000000000000
FF80000000000000
FF80000000000000
FF80000000000000
FF80000000000000
FF80000000000000
FF80000000000000
FF80000000000000
FFFFFFFFFFF80000
FFFFFFFFFFF80000
FFFFFFFFFFF80000
FFFFFFFFFFF80000
00003FE000000000
00003FE000000000
00003FE000000000
00003FE000000000
00003FFFFE000000
00003FFFFE000000
00003FFFFE000000
00003FFFFE000000
00003FE000000000
00003FE000000000
00003FE000000000
00003FE000000000
00003FE000000000
00003FE000000000
00003FE000000000
00003FE000000000
ENDCHAR
STARTCHAR U+240D
ENCODING 9229
SWIDTH 1000 0
BBX 60 40 0 -8
DWIDTH 60 0
BITMAP
0000000000000000
0000000000000000
0000000000000000
0000000000000000
03FFFFE000000000
03FFFFE000000000
03FFFFE000000000
03FFFFE000000000
FF80000000000000
FF80000000000000
FF80000000000000
FF80000000000000
FF80000000000000
FF80000000000000
FF80000000000000
FF80000000000000
FF80000000000000
FF80000000000000
FF80000000000000
FF80000000000000
03FFFFFFFE000000
03FFFFFFFE000000
03FFFFFFFE000000
03FFFFFFFE000000
00003FE00FF80000
00003FE00FF80000
00003FE00FF80000
00003FE00FF80000
00003FFFFE000000
00003FFFFE000000
00003FFFFE000000
00003FFFFE000000
00003FE00FF80000
00003FE00FF80000
00003FE00FF80000
00003FE00FF80000
00003FE00FF80000
00003FE00FF80000
00003FE00FF80000
00003FE00FF80000
ENDCHAR
STARTCHAR U+240C
ENCODING 9228
SWIDTH 1000 0
BBX 60 40 0 -8
DWIDTH 60 0
BITMAP
0000000000000000
0000000000000000
0000000000000000
0000000000000000
FFFFFFE000000000
FFFFFFE000000000
FFFFFFE000000000
FFFFFFE000000000
FF80000000000000
FF80000000000000
FF80000000000000
FF80000000000000
FFFFF80000000000
FFFFF80000000000
FFFFF80000000000
FFFFF80000000000
FF80000000000000
FF80000000000000
FF80000000000000
FF80000000000000
FF803FFFFFF80000
FF803FFFFFF80000
FF803FFFFFF80000
FF803FFFFFF80000
00003FE000000000
00003FE000000000
00003FE000000000
00003FE000000000
00003FFFFE000000
00003FFFFE000000
00003FFFFE000000
00003FFFFE000000
00003FE000000000
00003FE000000000
00003FE000000000
00003FE000000000
00003FE000000000
00003FE000000000
00003FE000000000
00003FE000000000
ENDCHAR
STARTCHAR U+2409
ENCODING 9225
SWIDTH 1000 0
BBX 60 40 0 -8
DWIDTH 60 0
BITMAP
0000000000000000
0000000000000000
0000000000000000
0000000000000000
FF803FE000000000
FF803FE000000000
FF803FE000000000
FF803FE000000000
FF803FE000000000
FF803FE000000000
FF803FE000000000
FF803FE000000000
FFFFFFE000000000
FFFFFFE000000000
FFFFFFE000000000
FFFFFFE000000000
FF803FE000000000
FF803FE000000000
FF803FE000000000
FF803FE000000000
FF8FFFFFFFF80000
FF8FFFFFFFF80000
FF8FFFFFFFF80000
FF8FFFFFFFF80000
000000FF80000000
000000FF80000000
000000FF80000000
000000FF80000000
000000FF80000000
000000FF80000000
000000FF80000000
000000FF80000000
000000FF80000000
000000FF80000000
000000FF80000000
000000FF80000000
000000FF80000000
000000FF80000000
000000FF80000000
000000FF80000000
ENDCHAR
STARTCHAR U+2592
ENCODING 9618
SWIDTH 1000 0
BBX 60 40 0 -8
DWIDTH 60 0
BITMAP
0000000000000000
0000000000000000
0000000000000000
0000000000000000
FF803FE00FF80000
FF803FE00FF80000
FF803FE00FF80000
FF803FE00FF80000
03FE0003FE000000
03FE0003FE000000
03FE0003FE000000
03FE0003FE000000
FF803FE00FF80000
FF803FE00FF80000
FF803FE00FF80000
FF803FE00FF80000
03FE0003FE000000
03FE0003FE000000
03FE0003FE000000
03FE0003FE000000
FF803FE00FF80000
FF803FE00FF80000
FF803FE00FF80000
FF803FE00FF80000
03FE0003FE000000
03FE0003FE000000
03FE0003FE000000
03FE0003FE000000
FF803FE00FF80000
FF803FE00FF80000
FF803FE00FF80000
FF803FE00FF80000
0000000000000000
0000000000000000
0000000000000000
0000000000000000
0000000000000000
0000000000000000
0000000000000000
0000000000000000
ENDCHAR
STARTCHAR U+25C6
ENCODING 9670
SWIDTH 1000 0
BBX 60 40 0 -8
DWIDTH 60 0
BITMAP
0000000000000000
0000000000000000
0000000000000000
0000000000000000
00003FE000000000
00003FE000000000
00003FE000000000
00003FE000000000
000FFFFF80000000
000FFFFF80000000
000FFFFF80000000
000FFFFF80000000
03FFFFFFFE000000
03FFFFFFFE000000
03FFFFFFFE000000
03FFFFFFFE000000
FFFFFFFFFFF80000
FFFFFFFFFFF80000
FFFFFFFFFFF80000
FFFFFFFFFFF80000
03FFFFFFFE000000
03FFFFFFFE000000
03FFFFFFFE000000
03FFFFFFFE000000
000FFFFF80000000
000FFFFF80000000
000FFFFF80000000
000FFFFF80000000
00003FE000000000
00003FE000000000
00003FE000000000
00003FE000000000
0000000000000000
0000000000000000
0000000000000000
0000000000000000
0000000000000000
0000000000000000
0000000000000000
0000000000000000
ENDCHAR
STARTCHAR U+0020
ENCODING 32
SWIDTH 1000 0
BBX 60 40 0 -8
DWIDTH 60 0
BITMAP
0000000000000000
0000000000000000
0000000000000000
0000000000000000
0000000000000000
0000000000000000
0000000000000000
0000000000000000
0000000000000000
0000000000000000
0000000000000000
0000000000000000
0000000000000000
0000000000000000
0000000000000000
0000000000000000
0000000000000000
0000000000000000
0000000000000000
0000000000000000
0000000000000000
0000000000000000
0000000000000000
0000000000000000
0000000000000000
0000000000000000
0000000000000000
0000000000000000
0000000000000000
0000000000000000
0000000000000000
0000000000000000
0000000000000000
0000000000000000
0000000000000000
0000000000000000
0000000000000000
0000000000000000
0000000000000000
0000000000000000
ENDCHAR
ENDFONT
